<svg width="16" height="16" viewBox="0 0 16 16" fill="none" xmlns="http://www.w3.org/2000/svg">
<path d="M3.33333 14.6666C2.96667 14.6666 2.65267 14.5362 2.39133 14.2753C2.13044 14.014 2 13.7 2 13.3333V3.99998H3.33333V13.3333H10.6667V14.6666H3.33333ZM6 12C5.63333 12 5.31956 11.8695 5.05867 11.6086C4.79733 11.3473 4.66667 11.0333 4.66667 10.6666V2.66665C4.66667 2.29998 4.79733 1.98598 5.05867 1.72465C5.31956 1.46376 5.63333 1.33331 6 1.33331H12C12.3667 1.33331 12.6807 1.46376 12.942 1.72465C13.2029 1.98598 13.3333 2.29998 13.3333 2.66665V10.6666C13.3333 11.0333 13.2029 11.3473 12.942 11.6086C12.6807 11.8695 12.3667 12 12 12H6ZM6 10.6666H12V2.66665H6V10.6666Z" fill="white"/>
</svg>
