<svg width="16" height="16" viewBox="0 0 16 16" fill="none" xmlns="http://www.w3.org/2000/svg">
<path d="M6.74283 2.99403C6.7935 2.46403 7.34683 2.02736 7.90483 2.34603C9.06483 3.02536 10.1595 3.79936 11.2182 4.62669C12.5248 5.65869 13.5735 6.63136 14.3162 7.40803C14.6382 7.74603 14.6082 8.28003 14.3002 8.60269C13.5647 9.3634 12.7868 10.0819 11.9702 10.7547C10.6782 11.8127 9.34016 12.838 7.8835 13.66C7.3895 13.9387 6.85416 13.62 6.75883 13.126L6.7475 13.0507L6.59616 10.668C5.3855 10.6934 4.2135 11.1094 3.27616 11.8834L3.0995 12.0314L3.01416 12.1007L2.8495 12.2287C2.82283 12.2487 2.79616 12.2687 2.7695 12.2874L2.61616 12.394C2.56854 12.4253 2.52008 12.4553 2.47083 12.484L2.3335 12.558C1.6895 12.876 1.3335 12.5947 1.3335 11.3334C1.3335 8.39736 3.49683 5.78469 6.4215 5.38869L6.59416 5.36803L6.74283 2.99403ZM8.0155 3.97669L7.8875 6.29136C7.88318 6.37049 7.85081 6.44548 7.7962 6.5029C7.74159 6.56032 7.66831 6.59641 7.5895 6.60469L6.68216 6.69936C4.63883 6.94336 3.0175 8.54069 2.71683 10.6287C3.71619 9.89185 4.90226 9.45022 6.14016 9.35403L6.40483 9.33869L7.54083 9.31469C7.62724 9.31283 7.71099 9.3446 7.77443 9.40331C7.83786 9.46202 7.87601 9.54307 7.88083 9.62936L8.01216 12.0267C9.08083 11.346 10.0995 10.5627 11.1215 9.72669C11.7815 9.17835 12.4171 8.60112 13.0262 7.99669L12.8542 7.82603L12.4835 7.47069C11.8131 6.84263 11.116 6.24363 10.3942 5.67536C9.62862 5.07179 8.83484 4.50493 8.0155 3.97669Z" fill="white"/>
</svg>
