<svg width="24" height="25" viewBox="0 0 24 25" fill="none" xmlns="http://www.w3.org/2000/svg">
<path d="M19.2844 18.3677C19.4252 18.5099 19.5042 18.7019 19.5042 18.9021C19.5042 19.1022 19.4252 19.2943 19.2844 19.4364C19.141 19.5751 18.9494 19.6525 18.75 19.6525C18.5506 19.6525 18.359 19.5751 18.2156 19.4364L12 13.2114L5.78438 19.4364C5.64103 19.5751 5.44942 19.6525 5.25001 19.6525C5.0506 19.6525 4.85899 19.5751 4.71563 19.4364C4.5748 19.2943 4.49579 19.1022 4.49579 18.9021C4.49579 18.7019 4.5748 18.5099 4.71563 18.3677L10.9406 12.1521L4.71563 5.93645C4.59604 5.79072 4.53492 5.60573 4.54416 5.41744C4.55341 5.22915 4.63236 5.05103 4.76567 4.91773C4.89897 4.78443 5.07708 4.70547 5.26537 4.69623C5.45366 4.68698 5.63866 4.7481 5.78438 4.8677L12 11.0927L18.2156 4.8677C18.3614 4.7481 18.5464 4.68698 18.7346 4.69623C18.9229 4.70547 19.101 4.78443 19.2344 4.91773C19.3677 5.05103 19.4466 5.22915 19.4559 5.41744C19.4651 5.60573 19.404 5.79072 19.2844 5.93645L13.0594 12.1521L19.2844 18.3677Z" fill="black"/>
</svg>
