<svg width="643" height="643" viewBox="0 0 643 643" fill="none" xmlns="http://www.w3.org/2000/svg">
<g filter="url(#filter0_f_77_83)">
<rect x="56" y="56" width="530.564" height="530.564" rx="265.282" fill="url(#paint0_radial_77_83)"/>
<path d="M253.673 247.837C249.585 255.467 196.21 380.249 186.605 402.719C185.899 404.372 187.127 406.172 188.924 406.172H221.387C222.389 406.172 223.295 405.575 223.69 404.654L276.552 281.364C277.433 279.31 280.36 279.35 281.184 281.428L330.013 404.59C330.391 405.545 331.314 406.172 332.341 406.172L365.581 406.172C367.362 406.172 368.575 404.365 367.899 402.717L339.676 333.837C339.395 333.15 339.432 332.374 339.779 331.718L366.785 280.574C367.782 278.685 370.533 278.831 371.326 280.814L420.816 404.597C421.196 405.548 422.117 406.172 423.142 406.172H453.647C455.431 406.172 456.661 404.405 455.981 402.756C446.719 380.291 394.831 254.429 392.29 247.837C389.5 240.598 383.406 236.392 369.315 236.392C355.223 236.392 349.805 239.451 345.191 247.837C341.602 254.359 330.396 279.659 325.59 290.587C324.721 292.562 321.933 292.597 321.019 290.643C315.982 279.873 304.302 254.947 300.772 247.837C296.228 238.686 291.607 236.392 276.903 236.392C262.199 236.392 258.166 239.451 253.673 247.837Z" fill="url(#paint1_radial_77_83)"/>
<path d="M204.84 359.816L186.598 402.683C185.895 404.335 187.099 406.169 188.895 406.169H230.567C232.532 406.169 245.035 399 251.04 395.829L417.5 293.716C418.129 293.33 417.69 292.363 416.985 292.584L206.006 358.759C205.481 358.923 205.055 359.31 204.84 359.816Z" fill="#8362FD"/>
</g>
<rect x="56" y="56" width="530.564" height="530.564" rx="265.282" fill="url(#paint2_radial_77_83)"/>
<path d="M220.031 187.696C213.9 199.201 133.836 387.372 119.429 421.257C118.37 423.749 120.211 426.463 122.907 426.463H171.603C173.106 426.463 174.464 425.563 175.057 424.174L254.351 238.254C255.673 235.156 260.062 235.217 261.298 238.35L334.543 424.078C335.11 425.518 336.495 426.463 338.036 426.463H387.896C390.568 426.463 392.386 423.739 391.373 421.253L349.038 317.383C348.616 316.347 348.672 315.177 349.192 314.187L389.702 237.062C391.197 234.215 395.324 234.434 396.514 237.424L470.749 424.088C471.319 425.522 472.701 426.463 474.238 426.463H519.996C522.672 426.463 524.517 423.798 523.498 421.312C509.603 387.435 431.77 197.637 427.96 187.696C423.775 176.779 414.634 170.436 393.496 170.436C372.359 170.436 364.232 175.049 357.31 187.696C351.927 197.531 335.117 235.683 327.908 252.162C326.605 255.14 322.423 255.193 321.052 252.247C313.497 236.006 295.976 198.417 290.681 187.696C283.865 173.896 276.934 170.436 254.877 170.436C232.821 170.436 226.771 175.049 220.031 187.696Z" fill="url(#paint3_radial_77_83)"/>
<path d="M146.781 356.558L119.419 421.202C118.364 423.693 120.171 426.459 122.864 426.459H185.372C188.32 426.459 207.074 415.648 216.083 410.866L465.775 256.88C466.719 256.298 466.059 254.841 465.003 255.174L148.531 354.964C147.744 355.213 147.104 355.795 146.781 356.558Z" fill="#8362FD"/>
<defs>
<filter id="filter0_f_77_83" x="0.502472" y="0.502472" width="641.558" height="641.559" filterUnits="userSpaceOnUse" color-interpolation-filters="sRGB">
<feFlood flood-opacity="0" result="BackgroundImageFix"/>
<feBlend mode="normal" in="SourceGraphic" in2="BackgroundImageFix" result="shape"/>
<feGaussianBlur stdDeviation="27.7488" result="effect1_foregroundBlur_77_83"/>
</filter>
<radialGradient id="paint0_radial_77_83" cx="0" cy="0" r="1" gradientUnits="userSpaceOnUse" gradientTransform="translate(56 195.573) rotate(18.5655) scale(641.595 582.29)">
<stop stop-color="#8362FD"/>
<stop offset="0.484375"/>
<stop offset="1" stop-color="#ABFC86"/>
</radialGradient>
<radialGradient id="paint1_radial_77_83" cx="0" cy="0" r="1" gradientUnits="userSpaceOnUse" gradientTransform="translate(207.022 243.573) rotate(39.4859) scale(319.428 340.569)">
<stop stop-color="#8362FD"/>
<stop offset="0.484375" stop-color="white"/>
<stop offset="1" stop-color="#ABFC86"/>
</radialGradient>
<radialGradient id="paint2_radial_77_83" cx="0" cy="0" r="1" gradientUnits="userSpaceOnUse" gradientTransform="translate(56 195.573) rotate(18.5655) scale(641.595 582.29)">
<stop stop-color="#8362FD"/>
<stop offset="0.484375"/>
<stop offset="1" stop-color="#ABFC86"/>
</radialGradient>
<radialGradient id="paint3_radial_77_83" cx="0" cy="0" r="1" gradientUnits="userSpaceOnUse" gradientTransform="translate(150.055 181.265) rotate(39.6351) scale(480.179 512.471)">
<stop stop-color="#8362FD"/>
<stop offset="0.484375" stop-color="white"/>
<stop offset="1" stop-color="#ABFC86"/>
</radialGradient>
</defs>
</svg>
