<svg width="16" height="16" viewBox="0 0 13 12" fill="none" xmlns="http://www.w3.org/2000/svg">
<path fill-rule="evenodd" clip-rule="evenodd" d="M10.75 6.00004C10.7504 7.03096 10.3967 8.03074 9.74825 8.83217C9.09979 9.63359 8.1958 10.1881 7.1875 10.4028C6.17921 10.6176 5.12773 10.4797 4.20895 10.0121C3.29017 9.54449 2.5598 8.77561 2.14 7.83404L0.749 8.39904C1.30042 9.6625 2.27003 10.6976 3.49482 11.3303C4.7196 11.963 6.12488 12.1547 7.47438 11.8732C8.82388 11.5917 10.0353 10.8542 10.905 9.78457C11.7747 8.71499 12.2497 7.37859 12.25 6.00004C12.2501 4.74777 11.8583 3.52687 11.1296 2.50843C10.4009 1.49 9.37187 0.725088 8.18662 0.320893C7.00138 -0.0833025 5.71937 -0.10652 4.52027 0.254493C3.32117 0.615507 2.26508 1.34266 1.5 2.33404V0.500036H0V4.50004L0.75 5.25004H4.25V3.75004H2.352C2.84711 2.89171 3.61167 2.22079 4.52705 1.84141C5.44243 1.46202 6.45744 1.39537 7.41457 1.6518C8.3717 1.90824 9.21743 2.47342 9.82052 3.25964C10.4236 4.04586 10.7503 5.00915 10.75 6.00004Z" fill="white" fill-opacity="0.93"/>
</svg>
