<svg width="16" height="16" viewBox="0 0 17 16" fill="none" xmlns="http://www.w3.org/2000/svg">
<path d="M9.83357 2.66667C9.83376 2.49675 9.89882 2.33332 10.0155 2.20976C10.1321 2.0862 10.2915 2.01185 10.4612 2.00189C10.6308 1.99193 10.7978 2.04712 10.9281 2.15618C11.0584 2.26524 11.1422 2.41994 11.1622 2.58867L11.1669 2.66667V11.724L12.6956 10.1953C12.8155 10.0758 12.9765 10.0064 13.1458 10.0012C13.3151 9.99602 13.48 10.0555 13.6071 10.1675C13.7341 10.2795 13.8138 10.4357 13.8298 10.6043C13.8459 10.7729 13.7972 10.9413 13.6936 11.0753L13.6382 11.138L11.0849 13.6913C10.6422 14.1347 9.89623 13.8507 9.83757 13.2493L9.83357 13.1727V2.66667ZM3.36223 5.80467C3.24745 5.68988 3.17849 5.53714 3.16831 5.37513C3.15812 5.21311 3.2074 5.05294 3.3069 4.92467L3.36223 4.86201L5.91557 2.30867C6.35823 1.86534 7.10423 2.14934 7.1629 2.75067L7.1669 2.82734L7.1669 13.3333C7.16671 13.5033 7.10165 13.6667 6.985 13.7903C6.86835 13.9138 6.70893 13.9882 6.5393 13.9981C6.36968 14.0081 6.20265 13.9529 6.07234 13.8438C5.94204 13.7348 5.8583 13.5801 5.83823 13.4113L5.83357 13.3333V4.27601L4.3049 5.80467C4.17988 5.92965 4.01034 5.99986 3.83357 5.99986C3.65679 5.99986 3.48725 5.92965 3.36223 5.80467Z" fill="white"/>
</svg>
