<svg width="1440" height="571" viewBox="0 0 1440 571" fill="none" xmlns="http://www.w3.org/2000/svg">
<path d="M922.526 234.309V155.729L923.336 155.864V136.415L918.475 138.717L921.716 133.046V127.376L967.081 103.073H1139.63V116.844H1078.07V163.02H1114.52V244.03H966.271L922.526 234.309Z" fill="url(#paint0_radial_249_719)"/>
<path d="M966.271 244.03L922.526 234.309V155.729L923.336 155.864M966.271 244.03V163.02M966.271 244.03H1114.52V163.02H1078.07M966.271 163.02L961.411 162.21M966.271 163.02H983.283M964.651 116.844L967.081 111.174V103.073M964.651 116.844L961.411 118.379M964.651 116.844H970.322M967.081 103.073L921.716 127.376V133.046L918.475 138.717L923.336 136.415M967.081 103.073H1139.63V116.844H1078.07M923.336 136.415V155.864M923.336 136.415L926.576 134.88M923.336 155.864L926.576 156.404M926.576 156.404V134.88M926.576 156.404L930.447 157.049M926.576 134.88L930.447 133.046M930.447 133.046V157.049M930.447 133.046L935.487 130.659M930.447 157.049L935.487 157.89M935.487 157.89V130.659M935.487 157.89L941.968 158.97M935.487 130.659L941.968 127.589M941.968 127.589V158.97M941.968 127.589L951.689 122.984M941.968 158.97L951.689 160.59M951.689 160.59V122.984M951.689 160.59L961.411 162.21M951.689 122.984L961.411 118.379M961.411 162.21V118.379M970.322 162.21V116.844M970.322 116.844H983.283M983.283 116.844V163.02M983.283 116.844H998.675M983.283 163.02H998.675M998.675 163.02V116.844M998.675 163.02H1014.88M998.675 116.844H1014.88M1014.88 116.844V163.02M1014.88 116.844H1030.27M1014.88 163.02H1030.27M1030.27 163.02V116.844M1030.27 163.02H1045.66M1030.27 116.844H1045.66M1045.66 116.844V163.02M1045.66 116.844H1061.86M1045.66 163.02H1061.86M1061.86 116.844V163.02M1061.86 116.844H1078.07M1061.86 163.02H1078.07M1078.07 116.844V163.02" stroke="#8362FD" stroke-opacity="0.36" stroke-width="1.62021"/>
<path d="M847.186 248.082C829.688 251.322 817.212 274.815 813.162 286.157C859.824 378.832 1293.28 360.955 1504.18 340.433C1507.96 238.9 1513.25 34.7019 1504.18 30.1654C1495.11 25.6288 1480.96 33.1343 1475.02 37.4542C1473.13 37.9943 1466.75 35.996 1456.38 23.6825C1443.42 8.2905 1432.89 2.62186 1420.74 2.62186C1408.59 2.62186 1404.54 5.86227 1390.77 12.3431C1379.42 2.62343 1362.41 -1.42866 1347.02 2.62186C1331.63 6.67237 1341.35 35.026 1338.92 35.8361C1336.49 36.6462 1337.3 40.6967 1341.35 47.1775C1339.73 52.0381 1312.19 33.4058 1308.13 30.1654C1304.08 26.9249 1295.17 22.8729 1287.07 22.0628C1278.97 21.2527 1250.62 29.3537 1236.85 44.7456C1223.07 60.1376 1234.42 64.1881 1219.83 65.8083C1205.25 67.4285 1194.72 80.3904 1191.48 82.8207C1188.24 85.251 1178.52 77.15 1159.89 77.9601C1141.25 78.7702 1130.72 116.845 1120.19 112.794C1109.66 108.744 1094.27 109.554 1088.6 109.554C1082.93 109.554 1069.15 115.225 1061.86 123.326C1054.57 131.427 1055.38 142.767 1044.85 140.337C1034.32 137.907 1026.22 137.097 1014.07 142.767C1004.35 147.304 1003.54 163.021 1004.35 170.312C1005.43 170.853 1005.64 171.609 997.865 170.312C988.144 168.692 975.182 181.654 972.752 194.616C970.322 207.577 967.081 205.957 963.031 206.767C958.98 207.577 954.12 205.957 948.449 199.476C942.778 192.994 933.057 185.704 922.526 184.084C911.994 182.463 911.184 192.995 899.033 199.476C886.071 201.906 885.261 214.868 883.641 218.918C882.021 222.969 877.97 222.969 868.249 225.399C858.528 227.829 867.439 236.74 847.186 248.082Z" fill="url(#paint1_radial_249_719)" stroke="#8362FD" stroke-opacity="0.69" stroke-width="1.62021"/>
<path d="M800.092 287.355C790.656 287.787 782.387 299.239 779.431 304.911C797.212 357.065 1026.39 379.209 1138.76 383.762C1148.14 330.619 1165.8 223.573 1161.36 220.526C1156.92 217.479 1148.94 220.398 1145.5 222.238C1144.46 222.385 1141.26 220.869 1136.7 213.636C1131.01 204.595 1125.89 200.846 1119.5 199.962C1113.11 199.077 1110.75 200.487 1103.03 202.895C1097.78 196.955 1089.13 193.585 1080.74 194.596C1072.36 195.607 1075.4 211.232 1074.07 211.481C1072.73 211.73 1072.86 213.92 1074.52 217.625C1073.31 220.064 1060.19 208.257 1058.3 206.257C1056.4 204.257 1052.01 201.477 1047.81 200.461C1043.61 199.445 1028.12 201.643 1019.75 208.739C1011.39 215.835 1017.06 218.791 1009.28 218.582C1001.49 218.373 995.012 224.426 993.132 225.469C991.251 226.512 986.731 221.542 976.876 220.612C967.022 219.682 958.712 238.947 953.47 236.05C948.229 233.152 940.078 232.458 937.097 232.045C934.116 231.632 926.462 233.613 922.039 237.345C917.616 241.076 917.216 247.102 911.857 245.057C906.497 243.011 902.297 241.996 895.496 244.095C890.055 245.774 888.484 253.984 888.379 257.879C888.907 258.242 888.966 258.655 884.972 257.407C879.979 255.847 872.221 261.723 869.999 268.365C867.777 275.008 866.192 273.92 864.003 274.051C861.815 274.182 859.377 272.976 856.868 269.153C854.359 265.331 849.779 260.788 844.361 259.169C838.942 257.55 837.749 263.032 830.889 265.557C823.898 265.892 822.528 272.652 821.381 274.665C820.234 276.678 818.105 276.384 812.817 276.955C807.529 277.526 811.565 282.863 800.092 287.355Z" stroke="url(#paint2_radial_249_719)" stroke-opacity="0.69" stroke-width="1.07386"/>
<path d="M1098.21 156.119C1088.77 156.55 1080.5 168.002 1077.55 173.674C1095.33 225.828 1324.51 247.972 1436.88 252.525C1446.26 199.383 1463.92 92.3364 1459.48 89.2893C1455.04 86.2422 1447.05 89.161 1443.62 91.0014C1442.58 91.1479 1439.38 89.6328 1434.82 82.3997C1429.13 73.3584 1424.01 69.6095 1417.62 68.7251C1411.23 67.8406 1408.86 69.2506 1401.15 71.6579C1395.9 65.7188 1387.25 62.3487 1378.86 63.3594C1370.47 64.3701 1373.52 79.9949 1372.18 80.2442C1370.85 80.4935 1370.98 82.6835 1372.64 86.388C1371.43 88.8273 1358.31 77.0198 1356.41 75.0202C1354.52 73.0205 1350.13 70.2401 1345.93 69.2242C1341.73 68.2084 1326.23 70.4067 1317.87 77.5023C1309.51 84.5978 1315.18 87.5543 1307.39 87.3454C1299.61 87.1365 1293.13 93.1894 1291.25 94.2321C1289.37 95.2749 1284.85 90.3053 1274.99 89.3753C1265.14 88.4454 1256.83 107.71 1251.59 104.813C1246.35 101.915 1238.2 101.221 1235.21 100.808C1232.23 100.396 1224.58 102.377 1220.16 106.108C1215.73 109.84 1215.33 115.865 1209.97 113.82C1204.61 111.775 1200.41 110.759 1193.61 112.858C1188.17 114.537 1186.6 122.747 1186.5 126.642C1187.03 127.005 1187.08 127.418 1183.09 126.17C1178.1 124.61 1170.34 130.486 1168.12 137.129C1165.89 143.771 1164.31 142.683 1162.12 142.814C1159.93 142.946 1157.5 141.739 1154.99 137.917C1152.48 134.094 1147.9 129.551 1142.48 127.932C1137.06 126.313 1135.87 131.795 1129.01 134.32C1122.02 134.655 1120.65 141.416 1119.5 143.429C1118.35 145.442 1116.22 145.147 1110.93 145.718C1105.65 146.289 1109.68 151.626 1098.21 156.119Z" stroke="url(#paint3_radial_249_719)" stroke-opacity="0.69" stroke-width="1.07386"/>
<path d="M1155.83 141.748C1159.56 139.313 1165.88 141.416 1168.58 142.772C1176.15 167.63 1094.55 239.267 1052.81 271.978C1034.57 254.229 998.309 218.132 999.169 215.742C1000.03 213.352 1003.89 212.269 1005.71 212.025C1006.15 211.797 1006.96 210.334 1006.7 206.311C1006.39 201.282 1007.32 198.435 1009.52 196.336C1011.72 194.237 1013.01 194.124 1016.63 192.92C1017 189.199 1019.38 185.526 1022.87 183.601C1026.36 181.677 1029.5 188.495 1030.08 188.222C1030.66 187.949 1031.21 188.823 1031.6 190.698C1032.73 191.299 1034.5 183.164 1034.68 181.876C1034.85 180.589 1035.76 178.316 1037.09 176.769C1038.42 175.223 1044.95 171.794 1050.11 172.204C1055.26 172.615 1053.91 175.309 1056.83 173.083C1059.75 170.858 1063.9 171.388 1064.91 171.269C1065.91 171.15 1066.27 168.002 1069.79 164.93C1073.3 161.858 1081.79 166.94 1083 164.387C1084.21 161.834 1087.13 159.321 1088.16 158.342C1089.19 157.362 1092.66 156.011 1095.38 156.22C1098.1 156.429 1099.92 158.624 1101.41 156.365C1102.89 154.105 1104.22 152.559 1107.4 151.487C1109.95 150.63 1112.81 153.339 1113.92 154.801C1113.82 155.085 1113.91 155.26 1115.1 153.681C1116.58 151.708 1121.17 151.818 1123.85 153.748C1126.53 155.677 1126.84 154.824 1127.71 154.271C1128.58 153.718 1129.18 152.585 1129.09 150.431C1129 148.276 1129.5 145.276 1131.12 143.163C1132.75 141.05 1134.72 142.819 1138.04 141.894C1140.81 140.096 1143.19 142.305 1144.19 142.759C1145.18 143.214 1145.92 142.514 1148.1 141.275C1150.28 140.036 1150.2 143.191 1155.83 141.748Z" stroke="url(#paint4_radial_249_719)" stroke-opacity="0.69" stroke-width="0.506414"/>
<path d="M968.216 298.607C998.678 299.208 1011.87 315.013 1014.66 322.84L1488.78 370.989L1517.33 271.048C1512.77 226.318 1501.51 133.881 1492.93 121.974C1482.2 107.09 1429.06 114.471 1409.81 118.331C1394.41 121.419 1389.89 141.718 1389.55 151.482C1384.14 148.157 1369.08 142.563 1352.19 146.788C1335.31 151.012 1328.19 167.412 1326.75 175.084C1324.61 172.193 1315.91 167.481 1298.25 171.757C1280.59 176.033 1278.6 184.304 1279.81 187.905C1272.42 184.276 1251.78 176.882 1228.35 176.34C1204.91 175.798 1193.45 189.452 1190.65 196.347C1186.49 192.291 1173.08 184.121 1152.78 183.893C1127.41 183.608 1129.99 193.181 1113.78 198.79C1098.8 193.278 1084.27 194.879 1065.91 197.382C1047.55 199.885 1035.48 224.055 1028.98 229.027C1022.48 233.999 999.686 228.35 993.06 231.382C987.758 233.808 987.476 240.408 987.997 243.405C986.027 243.101 980.551 242.854 974.405 244.296C968.259 245.738 965.768 251.357 965.291 253.986C962.575 252.216 952.701 249.356 934.938 252.08C912.735 255.484 921.943 276.962 931.78 278.265C936.172 285.771 942.757 282.092 943.897 284.615C945.038 287.138 945.673 296.838 968.216 298.607Z" fill="url(#paint5_radial_249_719)" stroke="#8362FD" stroke-opacity="0.5" stroke-width="1.62021"/>
<path d="M-12.0864 0.999878C-7.26497 4.61474 3.28201 13.6519 6.89812 20.8816C10.5142 28.1113 13.829 39.5584 15.0343 44.3782C19.2531 41.9683 29.318 37.8714 35.827 40.7633C42.336 43.6552 46.3739 49.8005 47.5793 52.5116L54.8115 48.8968C56.9209 38.9559 68.0103 18.7127 95.4927 17.2667C129.846 20.8816 139.79 45.2819 137.078 52.5116C134.908 58.2954 131.352 61.5488 129.846 62.4525C132.859 63.055 139.067 65.8866 139.79 72.3933C140.29 76.8913 140.243 78.7694 140.066 79.4008C143.545 76.646 151.536 71.8898 157.871 73.2971C166.007 75.1045 176.855 80.5268 180.471 88.6602C183.364 95.167 212.414 130.532 226.577 147.402L377.549 150.113L409.19 139.268C412.806 133.243 422.389 121.375 431.791 122.098C443.543 123.001 454.391 132.039 455.295 133.846C456.199 135.653 470.664 132.942 475.184 146.498C478.8 157.343 475.485 167.283 473.376 170.898C474.581 172.404 477.173 175.778 477.896 177.224C478.619 178.67 479.403 180.839 479.704 181.743C482.717 179.634 490.552 176.14 497.785 179.032C506.825 182.647 515.865 188.973 517.673 193.491C519.481 198.01 524.001 208.854 519.481 210.662C515.865 212.108 511.948 212.469 510.441 212.469C510.14 214.879 509.175 220.06 507.729 221.506C506.282 222.952 504.113 225.724 503.209 226.929C507.729 228.435 517.312 232.712 519.481 237.773C521.651 242.834 523.399 245.907 524.001 246.81C530.33 243.497 545.336 238.858 554.738 246.81C566.491 256.751 570.107 253.136 572.819 276.633C572.819 282.055 571.915 289.285 582.763 287.477C593.611 282.959 593.611 270.307 604.46 267.596C615.308 264.885 624.348 258.559 635.197 272.114C643.875 282.959 643.634 289.285 642.429 291.092L554.738 324.53L340.484 351.641L-88.9287 407.672L-131.418 267.596L-104.297 98.6011L-36.4952 17.2667L-12.0864 0.999878Z" fill="url(#paint6_radial_249_719)" stroke="#7658E4" stroke-opacity="0.24" stroke-width="1.62021"/>
<path d="M38.3543 69.0483C42.268 71.9826 50.8292 79.3182 53.7644 85.1866C56.6997 91.0551 59.3903 100.347 60.3687 104.259C63.7932 102.303 71.963 98.9776 77.2464 101.325C82.5299 103.672 85.8075 108.661 86.786 110.861L92.6565 107.927C94.3687 99.8578 103.37 83.4261 125.678 82.2524C153.563 85.1866 161.635 104.993 159.433 110.861C157.672 115.556 154.786 118.197 153.563 118.93C156.009 119.419 161.048 121.718 161.635 127C162.222 132.281 161.879 133.113 161.635 132.868C164.325 130.667 171.028 126.559 176.311 127.733C182.915 129.2 191.721 133.602 194.656 140.204C197.005 145.485 220.584 174.192 232.081 187.885L354.628 190.086L380.311 181.283C383.246 176.393 391.025 166.758 398.656 167.345C408.196 168.079 417.002 175.414 417.735 176.882C418.469 178.349 430.21 176.148 433.879 187.151C436.815 195.954 434.124 204.023 432.412 206.957C433.39 208.18 435.494 210.919 436.081 212.092C436.668 213.266 437.304 215.027 437.548 215.76C439.994 214.049 446.354 211.212 452.225 213.56C459.563 216.494 466.901 221.629 468.368 225.296C469.836 228.964 473.505 237.767 469.836 239.234C466.901 240.408 463.721 240.701 462.498 240.701C462.253 242.657 461.471 246.863 460.297 248.037C459.122 249.211 457.361 251.46 456.627 252.438C460.297 253.661 468.075 257.133 469.836 261.241C471.597 265.349 473.016 267.843 473.505 268.576C478.642 265.887 490.823 262.121 498.455 268.576C507.994 276.646 510.93 273.711 513.131 292.784C513.131 297.185 512.397 303.054 521.203 301.587C530.009 297.919 530.009 287.649 538.814 285.448C547.62 283.248 554.958 278.113 563.764 289.116C570.809 297.919 570.613 303.054 569.635 304.521L498.455 331.663L324.541 353.669L-24.0197 399.15L-58.5089 285.448L-36.4945 148.273L18.5414 82.2524L38.3543 69.0483Z" stroke="url(#paint7_radial_249_719)" stroke-opacity="0.24" stroke-width="1.31515"/>
<path d="M85.3403 103.073C89.254 105.996 97.8151 113.305 100.75 119.152C103.686 124.999 106.376 134.257 107.355 138.156C110.779 136.207 118.949 132.893 124.232 135.232C129.516 137.571 132.794 142.541 133.772 144.734L139.642 141.81C141.355 133.77 150.356 117.398 172.664 116.229C200.549 119.152 208.621 138.886 206.419 144.734C204.658 149.411 201.772 152.043 200.549 152.773C202.995 153.261 208.034 155.551 208.621 160.813C209.027 164.451 208.988 165.97 208.845 166.481C211.669 164.253 218.155 160.406 223.297 161.544C229.901 163.006 238.707 167.391 241.642 173.969C243.991 179.232 267.57 207.834 279.067 221.477L401.613 223.67L427.297 214.899C430.232 210.027 438.011 200.428 445.642 201.012C455.182 201.743 463.988 209.052 464.721 210.514C465.455 211.976 477.196 209.783 480.865 220.746C483.801 229.517 481.11 237.557 479.398 240.481C480.376 241.699 482.48 244.427 483.067 245.597C483.654 246.766 484.29 248.52 484.534 249.251C486.98 247.546 493.34 244.72 499.211 247.059C506.549 249.982 513.887 255.098 515.354 258.753L515.497 259.107C517.043 262.944 520.377 271.223 516.822 272.64C513.887 273.809 510.707 274.102 509.484 274.102C509.239 276.051 508.457 280.241 507.282 281.411C506.108 282.58 504.347 284.821 503.613 285.796C507.282 287.014 515.061 290.474 516.822 294.567C518.583 298.66 520.002 301.145 520.491 301.876C525.628 299.196 537.809 295.444 545.441 301.876C554.98 309.915 557.916 306.992 560.117 325.995C560.117 330.38 559.383 336.228 568.189 334.766C576.995 331.111 576.995 320.879 585.8 318.686C594.606 316.493 601.944 311.377 610.75 322.341C617.795 331.111 617.599 336.228 616.621 337.689L545.441 364.732L371.527 386.659L22.9662 431.974L-11.5229 318.686L10.4914 182.009L65.5274 116.229L85.3403 103.073Z" fill="url(#paint8_radial_249_719)" stroke="#7658E4" stroke-opacity="0.24" stroke-width="1.62021"/>
<path d="M220.167 256.992V109.554H301.177L384.618 132.236V256.992H301.177H220.167Z" fill="url(#paint9_radial_249_719)"/>
<path d="M301.177 256.992H220.167V109.554H301.177M301.177 256.992V109.554M301.177 256.992H384.618V132.236L301.177 109.554" stroke="#8362FD" stroke-opacity="0.4" stroke-width="1.62021"/>
<path d="M231.508 247.271V119.275H301.744L374.086 138.967V247.271H301.744H231.508Z" fill="url(#paint10_radial_249_719)"/>
<path d="M301.744 247.271H231.508V119.275H301.744M301.744 247.271V119.275M301.744 247.271H374.086V138.967L301.744 119.275" stroke="#8362FD" stroke-opacity="0.4" stroke-width="1.62021"/>
<path d="M244.47 235.93V130.616H301.935L361.125 146.818V235.93H301.935H244.47Z" fill="url(#paint11_radial_249_719)"/>
<path d="M301.935 235.93H244.47V130.616H301.935M301.935 235.93V130.616M301.935 235.93H361.125V146.818L301.935 130.616" stroke="#8362FD" stroke-opacity="0.4" stroke-width="1.62021"/>
<path d="M71.1078 156.539C48.4249 142.93 8.72991 137.907 -8.28225 137.097L-24.4843 141.147C-26.1045 151.949 -29.3449 174.2 -29.3449 176.792C-29.3449 179.384 -35.8258 330.712 -39.0662 406.051L122.954 392.279L327.1 357.445C363.285 343.133 435.492 312.565 434.844 304.788C434.196 297.011 423.233 293.987 417.832 293.447C419.992 291.017 423.341 284.536 419.452 278.055C451.046 273.194 454.286 232.689 433.224 222.158C413.781 222.158 408.921 224.588 387.858 235.93C366.795 247.271 339.252 222.968 343.302 222.158C347.353 221.348 350.593 201.095 350.593 194.614C350.593 188.133 339.252 176.792 327.1 173.552C314.949 170.311 301.177 176.792 293.076 187.323C284.975 197.855 276.064 197.045 271.203 194.614C266.343 192.184 268.773 180.032 260.672 170.311C252.571 160.59 226.648 156.539 203.155 153.299C184.36 150.707 171.561 167.881 167.51 176.792C164.54 176.522 154.872 176.144 139.967 176.792C125.061 177.44 113.233 187.323 109.183 192.184C105.942 185.973 93.7907 170.149 71.1078 156.539Z" fill="url(#paint12_radial_249_719)" stroke="#8362FD" stroke-opacity="0.5" stroke-width="1.62021"/>
<path d="M85.3403 103.073C89.254 105.996 97.8151 113.305 100.75 119.152C103.686 124.999 106.376 134.257 107.355 138.155C110.779 136.206 118.949 132.893 124.232 135.232C129.516 137.571 132.794 142.541 133.772 144.733L139.642 141.81C141.355 133.77 150.356 117.398 172.664 116.229C200.549 119.152 208.621 138.886 206.419 144.733C204.658 149.411 201.772 152.042 200.549 152.773C202.995 153.261 208.034 155.551 208.621 160.813C209.027 164.451 208.988 165.97 208.845 166.48C211.669 164.252 218.155 160.406 223.297 161.544C229.901 163.006 238.707 167.391 241.642 173.969C243.991 179.232 267.57 207.834 279.067 221.477L401.613 223.67L427.297 214.899C430.232 210.027 438.011 200.427 445.642 201.012C455.182 201.743 463.988 209.052 464.721 210.514C465.455 211.976 477.196 209.783 480.865 220.746C483.801 229.517 481.11 237.557 479.398 240.48C480.376 241.699 482.48 244.427 483.067 245.597C483.654 246.766 484.29 248.52 484.534 249.251C486.98 247.546 493.34 244.72 499.211 247.058C506.549 249.982 513.887 255.098 515.354 258.753L515.497 259.107C517.043 262.944 520.377 271.223 516.822 272.64C513.887 273.809 510.707 274.102 509.484 274.102C509.239 276.051 508.457 280.241 507.282 281.41C506.108 282.58 504.347 284.821 503.613 285.796C507.282 287.014 515.061 290.473 516.822 294.566C518.583 298.66 520.002 301.145 520.491 301.875C525.628 299.195 537.809 295.444 545.441 301.875C554.98 309.915 557.916 306.992 560.117 325.995C560.117 330.38 559.383 336.227 568.189 334.766C576.995 331.111 576.995 320.879 585.8 318.686C594.606 316.493 601.944 311.377 610.75 322.34C617.795 331.111 617.599 336.227 616.621 337.689L545.441 364.732L371.527 386.659L22.9662 431.974L-11.5229 318.686L10.4914 182.009L65.5274 116.229L85.3403 103.073Z" fill="url(#paint13_radial_249_719)" stroke="#7658E4" stroke-opacity="0.24" stroke-width="1.62021"/>
<path d="M220.167 256.992V109.553H301.177L384.618 132.236V256.992H301.177H220.167Z" fill="url(#paint14_radial_249_719)"/>
<path d="M301.177 256.992H220.167V109.553H301.177M301.177 256.992V109.553M301.177 256.992H384.618V132.236L301.177 109.553" stroke="#8362FD" stroke-opacity="0.4" stroke-width="1.62021"/>
<path d="M231.508 247.271V119.275H301.743L374.086 138.966V247.271H301.743H231.508Z" fill="url(#paint15_radial_249_719)"/>
<path d="M301.743 247.271H231.508V119.275H301.743M301.743 247.271V119.275M301.743 247.271H374.086V138.966L301.743 119.275" stroke="#8362FD" stroke-opacity="0.4" stroke-width="1.62021"/>
<path d="M244.469 235.929V130.616H301.935L361.124 146.818V235.929H301.935H244.469Z" fill="url(#paint16_radial_249_719)"/>
<path d="M301.935 235.929H244.469V130.616H301.935M301.935 235.929V130.616M301.935 235.929H361.124V146.818L301.935 130.616" stroke="#8362FD" stroke-opacity="0.4" stroke-width="1.62021"/>
<path d="M71.1076 156.539C48.4247 142.93 8.72966 137.907 -8.2825 137.097L-24.4846 141.147C-26.1048 151.949 -29.3452 174.2 -29.3452 176.792C-29.3452 179.384 -35.826 330.712 -39.0664 406.051L122.954 392.279L327.1 357.445C363.285 343.133 435.492 312.565 434.844 304.788C434.196 297.011 423.232 293.987 417.832 293.447C419.992 291.016 423.34 284.536 419.452 278.055C451.046 273.194 454.286 232.689 433.224 222.158C413.781 222.158 408.92 224.588 387.858 235.929C366.795 247.271 339.252 222.968 343.302 222.158C347.353 221.348 350.593 201.095 350.593 194.614C350.593 188.133 339.252 176.792 327.1 173.552C314.949 170.311 301.177 176.792 293.076 187.323C284.975 197.855 276.064 197.045 271.203 194.614C266.342 192.184 268.773 180.032 260.672 170.311C252.571 160.59 226.647 156.539 203.154 153.299C184.36 150.707 171.56 167.881 167.51 176.792C164.539 176.522 154.872 176.144 139.966 176.792C125.06 177.44 113.233 187.323 109.182 192.184C105.942 185.973 93.7905 170.149 71.1076 156.539Z" fill="url(#paint17_radial_249_719)" stroke="#8362FD" stroke-opacity="0.5" stroke-width="1.62021"/>
<path d="M71.1076 156.539C48.4247 142.93 8.72966 137.907 -8.2825 137.097L-24.4846 141.147C-26.1048 151.949 -29.3452 174.2 -29.3452 176.792C-29.3452 179.384 -35.826 330.712 -39.0664 406.051L122.954 392.279L327.1 357.445C363.285 343.133 435.492 312.565 434.844 304.788C434.196 297.011 423.232 293.987 417.832 293.447C419.992 291.016 423.34 284.536 419.452 278.055C451.046 273.194 454.286 232.689 433.224 222.158C413.781 222.158 408.92 224.588 387.858 235.929C366.795 247.271 339.252 222.968 343.302 222.158C347.353 221.348 350.593 201.095 350.593 194.614C350.593 188.133 339.252 176.792 327.1 173.552C314.949 170.311 301.177 176.792 293.076 187.323C284.975 197.855 276.064 197.045 271.203 194.614C266.342 192.184 268.773 180.032 260.672 170.311C252.571 160.59 226.647 156.539 203.154 153.299C184.36 150.707 171.56 167.881 167.51 176.792C164.539 176.522 154.872 176.144 139.966 176.792C125.06 177.44 113.233 187.323 109.182 192.184C105.942 185.973 93.7905 170.149 71.1076 156.539Z" fill="url(#paint18_radial_249_719)" stroke="#8362FD" stroke-opacity="0.5" stroke-width="1.62021"/>
<path d="M108.987 221.484C95.5175 213.449 71.946 210.484 61.8439 210.006L52.2229 212.397C51.2608 218.774 49.3366 231.91 49.3366 233.44C49.3366 234.971 45.4882 324.309 43.564 368.786L139.774 360.656L260.999 340.091C282.486 331.642 325.364 313.596 324.979 309.005C324.594 304.413 318.084 302.628 314.877 302.309C316.159 300.874 318.148 297.048 315.839 293.222C334.6 290.353 336.524 266.44 324.017 260.223C312.471 260.223 309.585 261.657 297.078 268.353C284.57 275.049 268.215 260.701 270.62 260.223C273.025 259.744 274.949 247.788 274.949 243.962C274.949 240.136 268.215 233.44 260.999 231.527C253.783 229.614 245.605 233.44 240.795 239.658C235.984 245.875 230.693 245.397 227.806 243.962C224.92 242.527 226.363 235.353 221.553 229.614C216.742 223.875 201.349 221.484 187.398 219.571C176.238 218.041 168.637 228.18 166.232 233.44C164.468 233.281 158.728 233.058 149.876 233.44C141.025 233.823 134.002 239.658 131.596 242.527C129.672 238.861 122.456 229.519 108.987 221.484Z" stroke="url(#paint19_radial_249_719)" stroke-opacity="0.5" stroke-width="1.62021"/>
<path d="M282.829 247.037C273.597 241.53 257.442 239.498 250.518 239.17L243.924 240.809C243.264 245.179 241.945 254.183 241.945 255.232C241.945 256.281 239.308 317.512 237.989 347.997L303.931 342.424L387.017 328.329C401.744 322.538 431.132 310.169 430.869 307.023C430.605 303.876 426.143 302.652 423.945 302.434C424.824 301.45 426.187 298.828 424.604 296.206C437.463 294.239 438.782 277.849 430.209 273.588C422.296 273.588 420.318 274.571 411.745 279.16C403.173 283.749 391.963 273.916 393.611 273.588C395.26 273.26 396.579 265.065 396.579 262.443C396.579 259.821 391.963 255.232 387.017 253.92C382.072 252.609 376.467 255.232 373.169 259.493C369.872 263.754 366.246 263.426 364.267 262.443C362.289 261.46 363.278 256.543 359.981 252.609C356.684 248.676 346.133 247.037 336.572 245.726C328.923 244.677 323.713 251.626 322.065 255.232C320.856 255.122 316.921 254.969 310.854 255.232C304.788 255.494 299.974 259.493 298.326 261.46C297.007 258.947 292.061 252.544 282.829 247.037Z" stroke="url(#paint20_radial_249_719)" stroke-opacity="0.5" stroke-width="1.11048"/>
<path d="M1106.3 322.099C1131.48 318.191 1146.96 335.359 1151.55 344.432L1554.89 330.675L1548.92 205.063C1532.02 151.482 1495.58 41.0347 1485.03 27.8934C1471.85 11.4668 1430.4 28.5137 1415.74 36.1276C1404 42.2187 1406.27 67.538 1408.86 79.4362C1403.44 76.2266 1389.43 71.7314 1376.82 79.4277C1364.2 87.124 1363.18 108.107 1364.25 117.636C1361.65 114.454 1353.12 110.06 1339.89 117.937C1326.65 125.815 1327.44 136.153 1329.5 140.338C1322.36 137.06 1303.25 131.231 1283.85 134.141C1264.46 137.051 1259.07 155.363 1258.8 164.155C1254.19 159.867 1240.78 151.995 1224.05 154.808C1203.14 158.325 1208.08 169.548 1196.42 178.822C1182.5 174.415 1171.05 178.569 1156.71 184.402C1142.38 190.234 1139.58 221.398 1135.71 228.421C1131.84 235.444 1111.47 232.06 1106.92 236.748C1103.28 240.498 1104.99 248.55 1106.3 252.106C1104.59 252.038 1100.03 252.572 1095.4 255.257C1090.78 257.943 1090.39 265.14 1090.78 268.402C1088.02 266.668 1079.08 264.701 1065.3 270.71C1048.08 278.221 1061.95 302.879 1070.41 302.964C1076.22 311.402 1080.55 305.936 1082.23 308.823C1083.9 311.711 1087.28 323.384 1106.3 322.099Z" fill="url(#paint21_radial_249_719)" stroke="#8362FD" stroke-opacity="0.5" stroke-width="1.62021"/>
<path d="M1105.87 345.739C1118.55 343.77 1126.34 352.416 1128.65 356.984L1331.75 350.057L1328.75 286.804C1320.24 259.823 1301.89 204.207 1296.58 197.589C1289.94 189.317 1269.07 197.902 1261.68 201.736C1255.78 204.803 1256.92 217.552 1258.22 223.544C1255.49 221.928 1248.44 219.664 1242.09 223.54C1235.73 227.415 1235.22 237.981 1235.76 242.78C1234.45 241.177 1230.16 238.965 1223.49 242.931C1216.82 246.898 1217.22 252.104 1218.26 254.211C1214.67 252.561 1205.04 249.625 1195.27 251.091C1185.51 252.556 1182.79 261.777 1182.66 266.205C1180.34 264.045 1173.58 260.081 1165.16 261.498C1154.63 263.269 1157.12 268.92 1151.25 273.59C1144.24 271.371 1138.47 273.463 1131.25 276.4C1124.03 279.337 1122.63 295.03 1120.68 298.566C1118.73 302.103 1108.47 300.398 1106.18 302.759C1104.35 304.648 1105.21 308.702 1105.87 310.493C1105.01 310.459 1102.71 310.727 1100.38 312.08C1098.05 313.432 1097.86 317.056 1098.05 318.699C1096.66 317.826 1092.16 316.835 1085.22 319.861C1076.55 323.643 1083.54 336.06 1087.79 336.103C1090.72 340.352 1092.9 337.599 1093.74 339.053C1094.59 340.508 1096.29 346.386 1105.87 345.739Z" stroke="url(#paint22_radial_249_719)" stroke-opacity="0.5" stroke-width="1.41371"/>
<path d="M1241.96 301.993C1254.64 300.025 1262.44 308.67 1264.75 313.239L1467.85 306.311L1464.85 243.058C1456.34 216.077 1437.99 160.461 1432.68 153.844C1426.04 145.572 1405.17 154.156 1397.78 157.99C1391.87 161.057 1393.01 173.807 1394.32 179.798C1391.59 178.182 1384.54 175.918 1378.18 179.794C1371.83 183.67 1371.32 194.235 1371.86 199.034C1370.54 197.432 1366.25 195.219 1359.59 199.186C1352.92 203.152 1353.32 208.359 1354.36 210.466C1350.76 208.815 1341.14 205.88 1331.37 207.345C1321.6 208.811 1318.89 218.032 1318.76 222.459C1316.43 220.3 1309.68 216.336 1301.26 217.753C1290.73 219.523 1293.21 225.175 1287.34 229.844C1280.33 227.626 1274.57 229.717 1267.35 232.654C1260.13 235.591 1258.72 251.284 1256.77 254.821C1254.82 258.357 1244.56 256.653 1242.27 259.014C1240.44 260.902 1241.3 264.956 1241.96 266.748C1241.1 266.713 1238.8 266.982 1236.48 268.334C1234.15 269.686 1233.95 273.311 1234.15 274.954C1232.76 274.08 1228.26 273.09 1221.32 276.115C1212.64 279.897 1219.63 292.315 1223.89 292.357C1226.82 296.606 1228.99 293.854 1229.84 295.308C1230.69 296.762 1232.39 302.64 1241.96 301.993Z" stroke="url(#paint23_radial_249_719)" stroke-opacity="0.5" stroke-width="1.41371"/>
<ellipse cx="718.38" cy="422.253" rx="864.38" ry="140.958" fill="url(#paint24_radial_249_719)"/>
<ellipse cx="718.38" cy="422.253" rx="791.471" ry="124.756" fill="url(#paint25_radial_249_719)"/>
<path d="M1509.04 422.253C1509.04 430.492 1503.74 438.692 1493.28 446.754C1482.83 454.804 1467.36 462.604 1447.37 470.055C1407.39 484.952 1349.5 498.384 1277.91 509.669C1134.73 532.236 936.91 546.199 718.38 546.199C499.85 546.199 302.027 532.236 158.852 509.669C87.258 498.384 29.3657 484.952 -10.6101 470.055C-30.6026 462.604 -46.066 454.804 -56.5165 446.754C-66.9829 438.692 -72.2806 430.492 -72.2806 422.253C-72.2806 414.014 -66.9829 405.814 -56.5165 397.752C-46.066 389.702 -30.6026 381.902 -10.6101 374.452C29.3657 359.554 87.258 346.123 158.852 334.838C302.027 312.27 499.85 298.307 718.38 298.307C936.91 298.307 1134.73 312.27 1277.91 334.838C1349.5 346.123 1407.39 359.554 1447.37 374.452C1467.36 381.902 1482.83 389.702 1493.28 397.752C1503.74 405.814 1509.04 414.014 1509.04 422.253Z" stroke="#8362FD" stroke-opacity="0.2" stroke-width="1.62021"/>
<ellipse cx="718.38" cy="422.253" rx="720.182" ry="113.414" fill="url(#paint26_radial_249_719)"/>
<path d="M1437.75 422.253C1437.75 429.709 1432.95 437.144 1423.44 444.468C1413.94 451.78 1399.87 458.868 1381.68 465.64C1345.31 479.181 1292.64 491.39 1227.5 501.649C1097.23 522.164 917.224 534.857 718.38 534.857C519.536 534.857 339.535 522.164 209.261 501.649C144.117 491.39 91.445 479.181 55.0766 465.64C36.8878 458.868 22.8249 451.78 13.3241 444.468C3.80723 437.144 -0.991411 429.709 -0.991411 422.253C-0.991411 414.797 3.80723 407.362 13.3241 400.038C22.8249 392.726 36.8878 385.638 55.0766 378.866C91.445 365.325 144.117 353.116 209.261 342.857C339.535 322.342 519.536 309.649 718.38 309.649C917.224 309.649 1097.23 322.342 1227.5 342.857C1292.64 353.116 1345.31 365.325 1381.68 378.866C1399.87 385.638 1413.94 392.726 1423.44 400.038C1432.95 407.362 1437.75 414.797 1437.75 422.253Z" stroke="#8362FD" stroke-opacity="0.2" stroke-width="1.62021"/>
<ellipse cx="718.38" cy="422.253" rx="642.412" ry="100.453" fill="url(#paint27_radial_249_719)"/>
<path d="M1359.98 422.253C1359.98 428.811 1355.73 435.373 1347.25 441.854C1338.78 448.322 1326.25 454.597 1310.03 460.594C1277.59 472.584 1230.61 483.397 1172.51 492.483C1056.31 510.654 895.748 521.896 718.38 521.896C541.011 521.896 380.452 510.654 264.251 492.483C206.145 483.397 159.166 472.584 126.733 460.594C110.512 454.597 97.9764 448.322 89.5115 441.854C81.0298 435.373 76.7782 428.811 76.7782 422.253C76.7782 415.694 81.0298 409.133 89.5115 402.652C97.9764 396.183 110.512 389.909 126.733 383.912C159.166 371.922 206.145 361.109 264.251 352.022C380.452 333.852 541.011 322.61 718.38 322.61C895.748 322.61 1056.31 333.852 1172.51 352.022C1230.61 361.109 1277.59 371.922 1310.03 383.912C1326.25 389.909 1338.78 396.183 1347.25 402.652C1355.73 409.133 1359.98 415.694 1359.98 422.253Z" stroke="#8362FD" stroke-opacity="0.2" stroke-width="1.62021"/>
<ellipse cx="718.38" cy="422.253" rx="559.781" ry="87.4911" fill="url(#paint28_radial_249_719)"/>
<path d="M1277.35 422.253C1277.35 427.917 1273.68 433.604 1266.3 439.242C1258.93 444.867 1248.02 450.327 1233.89 455.549C1205.64 465.989 1164.71 475.405 1114.08 483.318C1012.83 499.143 872.93 508.934 718.38 508.934C563.829 508.934 423.927 499.143 322.68 483.318C272.05 475.405 231.122 465.989 202.87 455.549C188.739 450.327 177.827 444.867 170.463 439.242C163.082 433.604 159.409 427.917 159.409 422.253C159.409 416.59 163.082 410.902 170.463 405.264C177.827 399.64 188.739 394.179 202.87 388.957C231.122 378.518 272.05 369.101 322.68 361.188C423.927 345.363 563.829 335.572 718.38 335.572C872.93 335.572 1012.83 345.363 1114.08 361.188C1164.71 369.101 1205.64 378.518 1233.89 388.957C1248.02 394.179 1258.93 399.64 1266.3 405.264C1273.68 410.902 1277.35 416.59 1277.35 422.253Z" stroke="#8362FD" stroke-opacity="0.2" stroke-width="1.62021"/>
<ellipse cx="718.38" cy="422.253" rx="467.429" ry="72.9093" fill="url(#paint29_radial_249_719)"/>
<path d="M1185 422.253C1185 426.909 1181.97 431.614 1175.82 436.302C1169.69 440.978 1160.59 445.523 1148.8 449.872C1125.22 458.568 1091.05 466.413 1048.78 473.007C964.242 486.193 847.428 494.352 718.38 494.352C589.331 494.352 472.518 486.193 387.982 473.007C345.708 466.413 311.543 458.568 287.964 449.872C276.17 445.523 267.072 440.978 260.938 436.302C254.787 431.614 251.761 426.909 251.761 422.253C251.761 417.597 254.787 412.892 260.938 408.203C267.072 403.528 276.17 398.983 287.964 394.633C311.543 385.938 345.708 378.093 387.982 371.499C472.518 358.313 589.331 350.154 718.38 350.154C847.428 350.154 964.242 358.313 1048.78 371.499C1091.05 378.093 1125.22 385.938 1148.8 394.633C1160.59 398.983 1169.69 403.528 1175.82 408.203C1181.97 412.892 1185 417.597 1185 422.253Z" stroke="#8362FD" stroke-opacity="0.2" stroke-width="1.62021"/>
<ellipse cx="718.38" cy="422.253" rx="375.078" ry="58.3274" fill="url(#paint30_radial_249_719)"/>
<path d="M1092.65 422.253C1092.65 425.901 1090.27 429.623 1085.35 433.363C1080.44 437.09 1073.16 440.719 1063.7 444.196C1044.8 451.147 1017.39 457.422 983.475 462.696C915.652 473.243 821.926 479.77 718.38 479.77C614.833 479.77 521.108 473.243 453.284 462.696C419.366 457.422 391.963 451.147 373.057 444.196C363.6 440.719 356.316 437.09 351.413 433.363C346.491 429.623 344.112 425.901 344.112 422.253C344.112 418.605 346.491 414.883 351.413 411.143C356.316 407.416 363.6 403.787 373.057 400.31C391.963 393.359 419.366 387.084 453.284 381.81C521.108 371.263 614.833 364.736 718.38 364.736C821.926 364.736 915.652 371.263 983.475 381.81C1017.39 387.084 1044.8 393.359 1063.7 400.31C1073.16 403.787 1080.44 407.416 1085.35 411.143C1090.27 414.883 1092.65 418.605 1092.65 422.253Z" stroke="#8362FD" stroke-opacity="0.2" stroke-width="1.62021"/>
<g filter="url(#filter0_f_249_719)">
<mask id="mask0_249_719" style="mask-type:alpha" maskUnits="userSpaceOnUse" x="-143" y="281" width="1729" height="283">
<ellipse cx="721.62" cy="422.253" rx="864.38" ry="140.958" fill="url(#paint31_radial_249_719)"/>
</mask>
<g mask="url(#mask0_249_719)">
<g opacity="0.2">
<path d="M848.806 321.528C831.308 318.287 818.832 294.794 814.782 283.453C861.444 190.778 1294.9 208.654 1505.8 229.177C1509.58 330.709 1514.87 534.908 1505.8 539.444C1496.73 543.981 1482.58 536.475 1476.64 532.155C1474.75 531.615 1468.37 533.614 1458 545.927C1445.04 561.319 1434.51 566.988 1422.36 566.988C1410.21 566.988 1406.16 563.747 1392.39 557.267C1381.04 566.986 1364.03 571.038 1348.64 566.988C1333.25 562.937 1342.97 534.584 1340.54 533.774C1338.11 532.963 1338.92 528.913 1342.97 522.432C1341.35 517.571 1313.81 536.204 1309.75 539.444C1305.7 542.685 1296.79 546.737 1288.69 547.547C1280.59 548.357 1252.24 540.256 1238.47 524.864C1224.69 509.472 1236.04 505.422 1221.45 503.801C1206.87 502.181 1196.34 489.219 1193.1 486.789C1189.86 484.359 1180.14 492.46 1161.51 491.65C1142.87 490.839 1132.34 452.765 1121.81 456.815C1111.28 460.866 1095.89 460.056 1090.22 460.056C1084.55 460.056 1070.77 454.385 1063.48 446.284C1056.19 438.183 1057 426.842 1046.47 429.273C1035.94 431.703 1027.84 432.513 1015.69 426.842C1005.97 422.306 1005.16 406.589 1005.97 399.297C1007.05 398.757 1007.26 398.001 999.485 399.297C989.764 400.917 976.802 387.956 974.372 374.994C971.942 362.032 968.701 363.653 964.651 362.843C960.6 362.032 955.74 363.653 950.069 370.134C944.398 376.615 934.677 383.906 924.146 385.526C913.614 387.146 912.804 376.615 900.653 370.134C887.691 367.704 886.881 354.742 885.261 350.692C883.64 346.641 879.59 346.641 869.869 344.211C860.148 341.78 869.059 332.869 848.806 321.528Z" fill="url(#paint32_radial_249_719)" stroke="#8362FD" stroke-opacity="0.69" stroke-width="1.62021"/>
<path d="M969.836 271.002C1000.3 270.401 1013.49 254.597 1016.28 246.769L1490.4 198.62L1518.95 298.561C1514.39 343.291 1503.13 435.729 1494.55 447.636C1483.82 462.52 1430.68 455.139 1411.43 451.279C1396.03 448.191 1391.51 427.891 1391.17 418.127C1385.76 421.452 1370.7 427.046 1353.81 422.822C1336.93 418.597 1329.81 402.198 1328.37 394.526C1326.23 397.416 1317.53 402.128 1299.87 397.852C1282.21 393.576 1280.22 385.306 1281.43 381.705C1274.04 385.334 1253.4 392.727 1229.97 393.269C1206.53 393.811 1195.07 380.157 1192.27 373.262C1188.11 377.319 1174.7 385.489 1154.4 385.717C1129.03 386.002 1131.61 376.429 1115.4 370.82C1100.42 376.332 1085.89 374.73 1067.53 372.227C1049.17 369.725 1037.1 345.555 1030.6 340.582C1024.1 335.61 1001.31 341.26 994.679 338.227C989.378 335.801 989.096 329.201 989.617 326.205C987.647 326.508 982.17 326.755 976.024 325.313C969.878 323.871 967.388 318.252 966.911 315.623C964.194 317.393 954.321 320.253 936.558 317.53C914.355 314.126 923.563 292.648 933.4 291.344C937.792 283.839 944.376 287.518 945.517 284.995C946.657 282.472 947.293 272.771 969.836 271.002Z" fill="url(#paint33_radial_249_719)" stroke="#8362FD" stroke-opacity="0.5" stroke-width="1.62021"/>
<path d="M1107.92 247.51C1133.1 251.419 1148.58 234.25 1153.17 225.177L1556.51 238.934L1550.54 364.547C1533.64 418.127 1497.2 528.575 1486.65 541.716C1473.47 558.143 1432.02 541.096 1417.36 533.482C1405.62 527.391 1407.89 502.071 1410.48 490.173C1405.06 493.383 1391.05 497.878 1378.44 490.182C1365.82 482.485 1364.8 461.503 1365.87 451.974C1363.27 455.155 1354.74 459.549 1341.5 451.672C1328.27 443.795 1329.06 433.456 1331.12 429.271C1323.98 432.55 1304.87 438.379 1285.47 435.468C1266.08 432.558 1260.69 414.247 1260.42 405.455C1255.81 409.742 1242.4 417.614 1225.67 414.801C1204.76 411.284 1209.7 400.061 1198.04 390.788C1184.12 395.194 1172.67 391.04 1158.33 385.208C1144 379.376 1141.2 348.211 1137.33 341.189C1133.46 334.166 1113.09 337.55 1108.54 332.862C1104.9 329.111 1106.61 321.06 1107.92 317.503C1106.21 317.572 1101.65 317.038 1097.02 314.352C1092.4 311.667 1092.01 304.47 1092.39 301.207C1089.64 302.941 1080.7 304.908 1066.92 298.9C1049.7 291.389 1063.57 266.73 1072.03 266.646C1077.84 258.207 1082.17 263.674 1083.84 260.786C1085.52 257.898 1088.9 246.225 1107.92 247.51Z" fill="url(#paint34_radial_249_719)" stroke="#8362FD" stroke-opacity="0.5" stroke-width="1.62021"/>
</g>
</g>
</g>
<mask id="mask1_249_719" style="mask-type:alpha" maskUnits="userSpaceOnUse" x="-146" y="281" width="1729" height="283">
<ellipse cx="718.38" cy="422.253" rx="864.38" ry="140.958" fill="url(#paint35_radial_249_719)"/>
</mask>
<g mask="url(#mask1_249_719)">
<g opacity="0.2" filter="url(#filter1_f_249_719)">
<path d="M-12.0862 568.072C-7.26472 564.457 3.28226 555.42 6.89836 548.19C10.5145 540.96 13.8292 529.513 15.0346 524.693C19.2534 527.103 29.3182 531.2 35.8272 528.308C42.3362 525.416 46.3742 519.271 47.5796 516.56L54.8118 520.175C56.9212 530.116 68.0106 550.359 95.493 551.805C129.846 548.19 139.79 523.79 137.078 516.56C134.909 510.776 131.353 507.523 129.846 506.619C132.859 506.016 139.067 503.185 139.79 496.678C140.29 492.18 140.243 490.302 140.067 489.671C143.545 492.425 151.536 497.182 157.871 495.774C166.007 493.967 176.855 488.545 180.471 480.411C183.364 473.904 212.414 438.539 226.577 421.67L377.549 418.959L409.19 429.803C412.806 435.828 422.389 447.697 431.791 446.974C443.543 446.07 454.392 437.033 455.296 435.225C456.2 433.418 470.664 436.129 475.184 422.573C478.8 411.729 475.486 401.788 473.376 398.173C474.581 396.667 477.173 393.293 477.896 391.847C478.62 390.401 479.403 388.232 479.704 387.329C482.718 389.437 490.553 392.932 497.785 390.04C506.825 386.425 515.865 380.099 517.673 375.58C519.482 371.062 524.002 360.217 519.482 358.41C515.865 356.964 511.948 356.602 510.441 356.602C510.14 354.192 509.176 349.011 507.729 347.565C506.283 346.119 504.113 343.348 503.209 342.143C507.729 340.637 517.312 336.359 519.482 331.298C521.651 326.237 523.399 323.165 524.002 322.261C530.33 325.575 545.337 330.214 554.739 322.261C566.491 312.32 570.107 315.935 572.819 292.439C572.819 287.016 571.915 279.787 582.763 281.594C593.612 286.113 593.612 298.765 604.46 301.476C615.308 304.187 624.349 310.513 635.197 296.957C643.876 286.113 643.634 279.787 642.429 277.979L554.739 244.542L340.484 217.43L-88.9285 161.4L-131.418 301.476L-104.297 470.47L-36.4949 551.805L-12.0862 568.072Z" fill="url(#paint36_radial_249_719)" stroke="#7658E4" stroke-opacity="0.24" stroke-width="1.62021"/>
<path d="M85.3409 465.998C89.2546 463.075 97.8157 455.766 100.751 449.919C103.686 444.072 106.377 434.814 107.355 430.916C110.78 432.865 118.95 436.178 124.233 433.839C129.516 431.5 132.794 426.53 133.773 424.338L139.643 427.261C141.355 435.301 150.357 451.673 172.665 452.842C200.549 449.919 208.621 430.185 206.42 424.338C204.659 419.66 201.772 417.029 200.549 416.298C202.996 415.811 208.034 413.52 208.621 408.258C209.027 404.62 208.989 403.101 208.846 402.591C211.669 404.819 218.155 408.665 223.298 407.527C229.902 406.065 238.708 401.68 241.643 395.102C243.991 389.839 267.571 361.237 279.067 347.594L401.614 345.401L427.298 354.172C430.233 359.044 438.011 368.644 445.643 368.059C455.182 367.328 463.988 360.019 464.722 358.557C465.456 357.095 477.197 359.288 480.866 348.325C483.801 339.554 481.11 331.514 479.398 328.591C480.377 327.372 482.48 324.644 483.067 323.474C483.654 322.305 484.29 320.551 484.535 319.82C486.981 321.525 493.341 324.351 499.211 322.013C506.549 319.089 513.887 313.973 515.355 310.318L515.498 309.964C517.043 306.127 520.378 297.848 516.823 296.431C513.887 295.262 510.708 294.97 509.485 294.97C509.24 293.021 508.457 288.83 507.283 287.661C506.109 286.491 504.348 284.25 503.614 283.275C507.283 282.057 515.062 278.598 516.823 274.505C518.584 270.412 520.003 267.927 520.492 267.196C525.628 269.876 537.81 273.627 545.441 267.196C554.981 259.156 557.916 262.079 560.118 243.076C560.118 238.691 559.384 232.844 568.19 234.305C576.995 237.96 576.995 248.192 585.801 250.385C594.607 252.578 601.945 257.694 610.751 246.731C617.795 237.96 617.6 232.844 616.621 231.382L545.441 204.339L371.528 182.412L22.9669 137.097L-11.5223 250.385L10.492 387.062L65.528 452.842L85.3409 465.998Z" fill="url(#paint37_radial_249_719)" stroke="#7658E4" stroke-opacity="0.24" stroke-width="1.62021"/>
<path d="M220.167 312.079V459.518H301.177L384.618 436.835V312.079H301.177H220.167Z" fill="url(#paint38_radial_249_719)"/>
<path d="M301.177 312.079H220.167V459.518H301.177M301.177 312.079V459.518M301.177 312.079H384.618V436.835L301.177 459.518" stroke="#8362FD" stroke-opacity="0.4" stroke-width="1.62021"/>
<path d="M231.509 321.8V449.797H301.744L374.087 430.105V321.8H301.744H231.509Z" fill="url(#paint39_radial_249_719)"/>
<path d="M301.744 321.8H231.509V449.797H301.744M301.744 321.8V449.797M301.744 321.8H374.087V430.105L301.744 449.797" stroke="#8362FD" stroke-opacity="0.4" stroke-width="1.62021"/>
<path d="M244.47 333.142V438.455H301.936L361.125 422.253V333.142H301.936H244.47Z" fill="url(#paint40_radial_249_719)"/>
<path d="M301.936 333.142H244.47V438.455H301.936M301.936 333.142V438.455M301.936 333.142H361.125V422.253L301.936 438.455" stroke="#8362FD" stroke-opacity="0.4" stroke-width="1.62021"/>
<path d="M71.1082 412.532C48.4253 426.141 8.73027 431.164 -8.28189 431.974L-24.4839 427.924C-26.1041 417.122 -29.3446 394.871 -29.3446 392.279C-29.3446 389.687 -35.8254 238.36 -39.0658 163.02L122.955 176.792L327.101 211.626C363.285 225.938 435.492 256.506 434.844 264.283C434.196 272.06 423.233 275.084 417.832 275.624C419.992 278.055 423.341 284.535 419.452 291.016C451.046 295.877 454.287 336.382 433.224 346.913C413.782 346.913 408.921 344.483 387.858 333.142C366.796 321.8 339.252 346.103 343.303 346.913C347.353 347.723 350.594 367.976 350.594 374.457C350.594 380.938 339.252 392.279 327.101 395.52C314.949 398.76 301.177 392.279 293.076 381.748C284.975 371.216 276.064 372.027 271.204 374.457C266.343 376.887 268.773 389.039 260.672 398.76C252.571 408.481 226.648 412.532 203.155 415.772C184.361 418.364 171.561 401.19 167.51 392.279C164.54 392.549 154.873 392.927 139.967 392.279C125.061 391.631 113.234 381.748 109.183 376.887C105.943 383.098 93.7911 398.922 71.1082 412.532Z" fill="url(#paint41_radial_249_719)" stroke="#8362FD" stroke-opacity="0.5" stroke-width="1.62021"/>
</g>
</g>
<path d="M926.641 568.526C924.239 562.771 921.956 556.889 919.371 551.202C908.832 528.028 898.108 504.859 887.509 481.749C885.454 477.224 882.504 473.657 878.344 470.812C873.679 467.61 870.387 463 868.128 457.861C864.473 449.541 861.001 441.154 857.467 432.768C854.798 426.402 851.408 420.616 846.384 415.813C845.238 414.671 844.563 412.832 844.204 411.23C842.488 403.779 841.079 396.257 839.303 388.87C838.732 386.407 839.881 385.688 841.648 385.012C846.401 383.187 852.651 385.781 855.409 391.09C857.905 395.911 859.918 401.057 862.112 406.074C865.301 413.292 870.531 418.771 876.957 423.034C880.927 425.7 883.741 424.991 886.955 421.291C891.954 415.551 894.138 408.535 895.264 401.243C897.573 386.47 896.918 371.604 895.032 356.84C894.698 354.059 892.827 351.451 891.329 348.956C887.298 342.384 882.962 335.947 879.054 329.372C876.97 325.902 878.099 322.579 880.724 319.767C882.692 317.658 884.785 317.53 886.885 319.572C891.836 324.005 896.367 328.824 899.52 334.927C901.232 338.346 904.16 341.231 906.719 344.127C912.031 350.224 916.307 356.726 916.639 365.275C919.356 365.375 920.62 364.404 920.717 361.61C921.035 352.172 921.099 352.232 913.217 346.775C910.443 344.878 907.604 342.859 905.246 340.452C904.032 339.126 903.467 336.849 903.283 334.932C903.091 332.767 904.531 331.481 906.818 331.657C908.362 331.732 910.026 331.68 911.341 332.32C917.042 335.117 922.863 337.787 928.209 341.091C931.921 343.393 933.587 347.31 934.04 351.885C934.756 358.934 935.538 366.104 939.983 372.104C944.816 378.65 943.864 385.627 941.81 392.824C941.531 393.764 942.002 394.989 942.343 396.033C943.028 398.182 944.575 400.304 944.58 402.413C944.565 409.732 944.118 417.065 943.671 424.399C943.591 425.766 942.895 427.152 942.32 428.473C938.653 437.334 934.487 446.026 931.38 455.055C928.447 463.708 929.576 472.107 935.789 479.416C937.2 481.108 938.009 483.316 938.939 485.395C944.319 497.568 949.517 509.809 955.017 521.854C956.341 524.727 958.455 527.203 960.506 529.682C969.429 540.75 978.533 551.689 987.515 562.694C988.479 563.904 989.261 565.244 990.165 566.518C968.97 567.188 947.836 567.856 926.641 568.526Z" fill="black"/>
<path d="M1479.84 484.644C1447.75 465.385 1417.22 443.199 1380.17 433.816C1379.07 433.561 1377.87 433.013 1376.87 432.853C1330.2 427.689 1289.95 404.683 1249.11 384.369C1237.41 378.481 1226.57 376.813 1213.68 378.583C1194.41 381.287 1176.45 387.5 1158.32 394.115C1153.06 396.093 1147.68 397.581 1142.29 399.069C1133.97 401.261 1127.72 398.135 1122.82 391.497C1119.58 387.169 1119.85 383.798 1125.1 381.622C1135.42 377.279 1145.73 372.935 1155.94 368.497C1161 366.329 1166.25 364.154 1170.68 361.021C1177.9 355.904 1185.38 352.557 1194.34 351.527C1199.85 350.924 1205.22 349.041 1210.49 347.261C1214.88 345.81 1215.26 342.928 1211.5 340.202C1208.85 338.324 1206.02 336.651 1203.01 335.381C1192.25 330.94 1181.5 326.5 1170.66 322.36C1168.15 321.367 1165.27 321.179 1162.5 321.085C1153 320.85 1143.51 320.812 1133.92 320.876C1131.64 320.863 1129.51 321.932 1127.15 322.219C1116.23 323.718 1105.23 325.714 1094.19 326.525C1087.28 326.983 1081.78 322.839 1078.28 316.742C1074.78 310.644 1076.36 305.443 1083.21 303.603C1093.78 300.832 1104.49 299.143 1115.19 297.06C1133.35 293.509 1151.49 289.76 1169.68 286.999C1174.59 286.221 1180.02 288.389 1185.2 289.381C1188.69 290.139 1192 291.3 1195.5 292.256C1195.96 291.546 1196.52 290.734 1196.99 290.024C1194.93 287.927 1193.15 285.324 1190.72 283.834C1182.82 278.989 1174.63 274.453 1166.36 270.216C1164.04 269.018 1160.96 268.639 1158.29 268.641C1138.29 268.01 1118.31 267.971 1098.31 267.142C1089.69 266.775 1081.23 265.412 1072.85 263.552C1063.88 261.715 1059.88 255.34 1058.94 246.476C1058.38 242.147 1059.58 240.025 1064 239.166C1093.36 234.007 1122.73 231.517 1152.9 234.336C1170.77 236.036 1186.69 241.27 1203.11 246.584C1205.32 247.292 1207.8 247.496 1212.38 248.51C1210.17 244.934 1209.41 243.282 1208.17 241.747C1203.18 235.606 1198.29 229.363 1193.12 223.428C1191.77 221.798 1189.46 220.995 1187.44 219.884C1177.55 214.72 1167.75 209.452 1157.77 204.39C1155.15 203.105 1152.33 201.826 1149.53 201.141C1138.06 198.508 1126.85 194.975 1118.97 185.581C1116.27 182.321 1114.2 177.356 1114.23 173.202C1114.27 163.906 1118.4 160.686 1127.39 163.116C1142.58 167.29 1157.51 172.364 1172.45 177.635C1184.48 181.928 1196.44 186.718 1208.2 191.714C1212.32 193.437 1216.2 196.455 1219.38 199.598C1236.02 215.386 1253.59 229.951 1274.16 240.251C1277.29 241.814 1280.6 242.975 1283.81 244.238C1285.11 244.683 1286.5 244.829 1288.8 245.434C1283.04 234.577 1279.36 223.938 1269.48 216.499C1261.83 210.557 1254.64 203.511 1248.99 195.616C1244.28 188.971 1241.39 180.774 1239.11 172.949C1238.07 168.935 1239.14 163.456 1240.97 159.63C1244.81 151.575 1249.26 151.507 1254.86 158.415C1265.03 170.688 1278.23 179.486 1292.41 185.774C1308.51 192.88 1319.65 204.722 1330.05 217.975C1336.4 226.141 1343.16 234.686 1351.51 240.7C1366.76 251.596 1374.48 267.125 1381.74 283.364C1385.43 291.927 1389.22 300.386 1393.4 308.634C1399.62 321.056 1410.48 328.26 1422.92 332.934C1454.94 345.076 1486.95 357.022 1519.14 368.763C1535.9 374.954 1552.93 380.641 1569.97 386.525C1539.91 419.792 1509.93 452.167 1479.84 484.644Z" fill="black"/>
<path d="M18.3636 610.915C44.7384 579.885 68.4783 546.384 103.401 523.809C104.444 523.163 105.498 522.178 106.468 521.666C152.782 500.087 186.258 462.355 221.277 427.192C231.286 417.048 241.882 411.553 255.78 408.89C276.591 404.963 297.261 405.115 318.258 405.618C324.372 405.824 330.436 405.484 336.501 405.144C345.84 404.506 351.196 399.105 353.941 390.555C355.767 384.968 354.32 381.584 348.145 381.172C336.002 380.286 323.859 379.401 311.789 378.382C305.82 377.909 299.646 377.496 293.991 375.809C284.77 373.048 275.89 372.204 266.297 374.263C260.403 375.562 254.217 375.49 248.164 375.49C243.13 375.525 241.732 372.687 244.663 368.566C246.735 365.71 249.073 362.998 251.739 360.638C261.277 352.316 270.814 343.994 280.546 335.951C282.789 334.053 285.686 332.858 288.512 331.796C298.224 328.244 307.997 324.898 317.904 321.625C320.244 320.819 322.816 321.178 325.351 320.65C337.127 318.393 349.158 316.62 360.824 313.61C368.1 311.678 372.327 305.491 373.811 297.987C375.295 290.482 371.857 285.671 364.155 286.16C352.293 286.985 340.662 288.976 328.91 290.553C308.959 293.216 288.947 295.673 269.24 299.16C263.903 300.069 259.068 304.194 254.073 307.02C250.739 309.018 247.734 311.366 244.461 313.57C243.733 313.001 242.871 312.36 242.142 311.791C243.534 308.911 244.465 305.608 246.452 303.225C252.909 295.479 259.767 287.952 266.819 280.703C268.794 278.66 271.837 277.197 274.589 276.269C294.984 268.653 315.561 261.656 335.895 253.834C344.65 250.454 352.893 246.104 360.882 241.268C369.489 236.25 371.397 228.284 369.277 218.82C368.35 214.161 366.371 212.393 361.52 213.047C329.453 217.955 298.312 225.618 268.195 239.031C250.372 247.006 235.779 257.948 220.701 269.145C218.677 270.643 216.191 271.716 211.815 274.359C212.853 269.902 213.058 267.935 213.808 265.919C216.807 257.853 219.674 249.715 222.941 241.794C223.763 239.644 225.86 238.013 227.556 236.165C235.953 227.396 244.217 218.555 252.747 209.859C255.001 207.621 257.461 205.322 260.104 203.641C271.014 196.931 281.341 189.384 286.192 176.957C287.837 172.657 288.243 166.818 286.759 162.548C283.486 152.978 278.111 151.096 269.686 156.733C255.48 166.327 241.857 176.757 228.294 187.393C217.386 196.009 206.733 205.11 196.348 214.356C192.7 217.568 189.757 222.029 187.566 226.379C175.92 248.445 162.878 269.58 145.259 287.362C142.581 290.062 139.575 292.41 136.703 294.832C135.515 295.745 134.133 296.379 131.976 297.803C134.133 284.605 134.217 272.357 141.811 261.248C147.625 252.46 152.588 242.691 155.658 232.586C158.197 224.097 158.32 214.641 157.947 205.781C157.627 201.278 154.614 196.005 151.396 192.698C144.632 185.732 140.024 187.21 136.649 196.284C130.444 212.477 119.905 226.141 107.471 237.564C93.3532 250.496 85.9949 266.582 79.8872 283.866C76.1864 294.495 72.1951 305.658 65.6908 314.762C53.7599 331.306 51.2078 350.004 49.384 369.271C48.5575 379.383 47.5976 389.423 46.1645 399.379C44.0815 414.349 35.3959 425.559 24.1973 434.709C-4.57465 458.376 -33.4075 481.837 -62.5074 505.153C-77.6207 517.371 -93.1955 529.164 -108.709 541.164C-66.1449 564.989 -23.9574 587.916 18.3636 610.915Z" fill="black"/>
<rect x="-23" y="131" width="1525" height="453" fill="url(#paint42_linear_249_719)"/>
<defs>
<filter id="filter0_f_249_719" x="810.662" y="278.055" width="749.932" height="288.397" filterUnits="userSpaceOnUse" color-interpolation-filters="sRGB">
<feFlood flood-opacity="0" result="BackgroundImageFix"/>
<feBlend mode="normal" in="SourceGraphic" in2="BackgroundImageFix" result="shape"/>
<feGaussianBlur stdDeviation="1.62021" result="effect1_foregroundBlur_249_719"/>
</filter>
<filter id="filter1_f_249_719" x="-135.488" y="132.965" width="782.579" height="439.339" filterUnits="userSpaceOnUse" color-interpolation-filters="sRGB">
<feFlood flood-opacity="0" result="BackgroundImageFix"/>
<feBlend mode="normal" in="SourceGraphic" in2="BackgroundImageFix" result="shape"/>
<feGaussianBlur stdDeviation="1.62021" result="effect1_foregroundBlur_249_719"/>
</filter>
<radialGradient id="paint0_radial_249_719" cx="0" cy="0" r="1" gradientUnits="userSpaceOnUse" gradientTransform="translate(846.376 -91.3521) rotate(68.2861) scale(394.133 505.37)">
<stop stop-color="#3FE600"/>
<stop offset="0.548752" stop-color="white"/>
<stop offset="1" stop-color="#8362FD"/>
</radialGradient>
<radialGradient id="paint1_radial_249_719" cx="0" cy="0" r="1" gradientUnits="userSpaceOnUse" gradientTransform="translate(1451.52 -193.425) rotate(139.185) scale(871.305 1189.85)">
<stop stop-color="#3FE600"/>
<stop offset="0.565632" stop-color="white"/>
<stop offset="1" stop-color="#8362FD"/>
</radialGradient>
<radialGradient id="paint2_radial_249_719" cx="0" cy="0" r="1" gradientUnits="userSpaceOnUse" gradientTransform="translate(918.953 250.5) rotate(148.314) scale(58.1602 113.677)">
<stop stop-color="#8362FD"/>
<stop offset="1" stop-color="#8362FD" stop-opacity="0"/>
</radialGradient>
<radialGradient id="paint3_radial_249_719" cx="0" cy="0" r="1" gradientUnits="userSpaceOnUse" gradientTransform="translate(1217.07 119.263) rotate(148.314) scale(58.1602 113.677)">
<stop stop-color="#8362FD"/>
<stop offset="1" stop-color="#8362FD" stop-opacity="0"/>
</radialGradient>
<radialGradient id="paint4_radial_249_719" cx="0" cy="0" r="1" gradientUnits="userSpaceOnUse" gradientTransform="translate(1100.19 160.404) rotate(-4.07613) scale(27.4274 53.6081)">
<stop stop-color="#8362FD"/>
<stop offset="1" stop-color="#8362FD" stop-opacity="0"/>
</radialGradient>
<radialGradient id="paint5_radial_249_719" cx="0" cy="0" r="1" gradientUnits="userSpaceOnUse" gradientTransform="translate(905.135 109.852) rotate(41.3379) scale(538.899 739.057)">
<stop stop-color="#3FE600"/>
<stop stop-color="white"/>
<stop offset="1" stop-color="#8362FD"/>
</radialGradient>
<radialGradient id="paint6_radial_249_719" cx="0" cy="0" r="1" gradientUnits="userSpaceOnUse" gradientTransform="translate(-295.047 -147.209) rotate(34.3325) scale(999.642 1357.81)">
<stop stop-color="#3FE600"/>
<stop offset="0.65625" stop-color="white"/>
<stop offset="1" stop-color="#8362FD"/>
</radialGradient>
<radialGradient id="paint7_radial_249_719" cx="0" cy="0" r="1" gradientUnits="userSpaceOnUse" gradientTransform="translate(400.009 214.658) rotate(128.011) scale(234.159 445.928)">
<stop stop-color="#7658E4"/>
<stop offset="1" stop-color="#7658E4" stop-opacity="0"/>
</radialGradient>
<radialGradient id="paint8_radial_249_719" cx="0" cy="0" r="1" gradientUnits="userSpaceOnUse" gradientTransform="translate(-144.343 -16.7937) rotate(34.2354) scale(810.488 1099.42)">
<stop stop-color="#3FE600"/>
<stop offset="0.65625" stop-color="white"/>
<stop offset="1" stop-color="#8362FD"/>
</radialGradient>
<radialGradient id="paint9_radial_249_719" cx="0" cy="0" r="1" gradientUnits="userSpaceOnUse" gradientTransform="translate(95.4108 13.1513) rotate(49.6742) scale(319.843 343.906)">
<stop stop-color="#3FE600"/>
<stop offset="0.65625" stop-color="white"/>
<stop offset="1" stop-color="#8362FD"/>
</radialGradient>
<radialGradient id="paint10_radial_249_719" cx="0" cy="0" r="1" gradientUnits="userSpaceOnUse" gradientTransform="translate(123.345 35.585) rotate(49.7112) scale(277.514 298.328)">
<stop stop-color="#3FE600"/>
<stop offset="0.65625" stop-color="white"/>
<stop offset="1" stop-color="#8362FD"/>
</radialGradient>
<radialGradient id="paint11_radial_249_719" cx="0" cy="0" r="1" gradientUnits="userSpaceOnUse" gradientTransform="translate(155.973 61.7575) rotate(49.8697) scale(227.801 244.658)">
<stop stop-color="#3FE600"/>
<stop offset="0.65625" stop-color="white"/>
<stop offset="1" stop-color="#8362FD"/>
</radialGradient>
<radialGradient id="paint12_radial_249_719" cx="0" cy="0" r="1" gradientUnits="userSpaceOnUse" gradientTransform="translate(-504.875 -198.286) rotate(32.1177) scale(1007.18 1351.33)">
<stop stop-color="#3FE600"/>
<stop offset="0.65625" stop-color="white"/>
<stop offset="1" stop-color="#8362FD"/>
</radialGradient>
<radialGradient id="paint13_radial_249_719" cx="0" cy="0" r="1" gradientUnits="userSpaceOnUse" gradientTransform="translate(-144.343 -16.7938) rotate(34.2354) scale(810.488 1099.42)">
<stop stop-color="#3FE600"/>
<stop offset="0.65625" stop-color="white"/>
<stop offset="1" stop-color="#8362FD"/>
</radialGradient>
<radialGradient id="paint14_radial_249_719" cx="0" cy="0" r="1" gradientUnits="userSpaceOnUse" gradientTransform="translate(95.4108 13.151) rotate(49.6742) scale(319.843 343.906)">
<stop stop-color="#3FE600"/>
<stop offset="0.65625" stop-color="white"/>
<stop offset="1" stop-color="#8362FD"/>
</radialGradient>
<radialGradient id="paint15_radial_249_719" cx="0" cy="0" r="1" gradientUnits="userSpaceOnUse" gradientTransform="translate(123.345 35.5847) rotate(49.7112) scale(277.514 298.328)">
<stop stop-color="#3FE600"/>
<stop offset="0.65625" stop-color="white"/>
<stop offset="1" stop-color="#8362FD"/>
</radialGradient>
<radialGradient id="paint16_radial_249_719" cx="0" cy="0" r="1" gradientUnits="userSpaceOnUse" gradientTransform="translate(155.973 61.757) rotate(49.8697) scale(227.801 244.658)">
<stop stop-color="#3FE600"/>
<stop offset="0.65625" stop-color="white"/>
<stop offset="1" stop-color="#8362FD"/>
</radialGradient>
<radialGradient id="paint17_radial_249_719" cx="0" cy="0" r="1" gradientUnits="userSpaceOnUse" gradientTransform="translate(-504.876 -198.286) rotate(32.1177) scale(1007.18 1351.33)">
<stop stop-color="#3FE600"/>
<stop offset="0.65625" stop-color="white"/>
<stop offset="1" stop-color="#8362FD"/>
</radialGradient>
<radialGradient id="paint18_radial_249_719" cx="0" cy="0" r="1" gradientUnits="userSpaceOnUse" gradientTransform="translate(-504.876 -198.286) rotate(32.1177) scale(1007.18 1351.33)">
<stop stop-color="#3FE600"/>
<stop offset="0.65625" stop-color="white"/>
<stop offset="1" stop-color="#8362FD"/>
</radialGradient>
<radialGradient id="paint19_radial_249_719" cx="0" cy="0" r="1" gradientUnits="userSpaceOnUse" gradientTransform="translate(162.649 235.929) rotate(64.8407) scale(59.0709 107.292)">
<stop stop-color="#8362FD"/>
<stop offset="1" stop-color="#8362FD" stop-opacity="0"/>
</radialGradient>
<radialGradient id="paint20_radial_249_719" cx="0" cy="0" r="1" gradientUnits="userSpaceOnUse" gradientTransform="translate(319.609 256.937) rotate(64.8407) scale(40.4868 73.5372)">
<stop stop-color="#8362FD"/>
<stop offset="1" stop-color="#8362FD" stop-opacity="0"/>
</radialGradient>
<radialGradient id="paint21_radial_249_719" cx="0" cy="0" r="1" gradientUnits="userSpaceOnUse" gradientTransform="translate(1432.08 55.2763) rotate(141.701) scale(422.195 535.212)">
<stop stop-color="#3FE600"/>
<stop stop-color="white"/>
<stop offset="1" stop-color="#8362FD"/>
</radialGradient>
<radialGradient id="paint22_radial_249_719" cx="0" cy="0" r="1" gradientUnits="userSpaceOnUse" gradientTransform="translate(1204.1 267.204) rotate(90) scale(63.6172 96.9829)">
<stop stop-color="#8362FD"/>
<stop offset="1" stop-color="#8362FD" stop-opacity="0"/>
</radialGradient>
<radialGradient id="paint23_radial_249_719" cx="0" cy="0" r="1" gradientUnits="userSpaceOnUse" gradientTransform="translate(1340.2 223.459) rotate(90) scale(63.6172 96.9829)">
<stop stop-color="#8362FD"/>
<stop offset="1" stop-color="#8362FD" stop-opacity="0"/>
</radialGradient>
<radialGradient id="paint24_radial_249_719" cx="0" cy="0" r="1" gradientUnits="userSpaceOnUse" gradientTransform="translate(63.9707 312.112) rotate(20.992) scale(700.929 651.243)">
<stop stop-color="#3FE600"/>
<stop offset="0.0001" stop-color="white"/>
<stop offset="1" stop-color="#8362FD"/>
</radialGradient>
<radialGradient id="paint25_radial_249_719" cx="0" cy="0" r="1" gradientUnits="userSpaceOnUse" gradientTransform="translate(119.169 324.772) rotate(20.349) scale(639.095 578.833)">
<stop stop-color="#3FE600"/>
<stop offset="0.0001" stop-color="white"/>
<stop offset="1" stop-color="#8362FD"/>
</radialGradient>
<radialGradient id="paint26_radial_249_719" cx="0" cy="0" r="1" gradientUnits="userSpaceOnUse" gradientTransform="translate(173.141 333.634) rotate(20.3318) scale(581.466 526.271)">
<stop stop-color="#3FE600"/>
<stop offset="0.0001" stop-color="white"/>
<stop offset="1" stop-color="#8362FD"/>
</radialGradient>
<radialGradient id="paint27_radial_249_719" cx="0" cy="0" r="1" gradientUnits="userSpaceOnUse" gradientTransform="translate(232.019 343.762) rotate(20.1998) scale(518.235 466.522)">
<stop stop-color="#3FE600"/>
<stop offset="0.0001" stop-color="white"/>
<stop offset="1" stop-color="#8362FD"/>
</radialGradient>
<radialGradient id="paint28_radial_249_719" cx="0" cy="0" r="1" gradientUnits="userSpaceOnUse" gradientTransform="translate(294.578 353.89) rotate(20.1912) scale(451.551 406.348)">
<stop stop-color="#3FE600"/>
<stop offset="0.0001" stop-color="white"/>
<stop offset="1" stop-color="#8362FD"/>
</radialGradient>
<radialGradient id="paint29_radial_249_719" cx="0" cy="0" r="1" gradientUnits="userSpaceOnUse" gradientTransform="translate(364.496 365.283) rotate(20.1536) scale(376.965 338.705)">
<stop stop-color="#3FE600"/>
<stop offset="0.0001" stop-color="white"/>
<stop offset="1" stop-color="#8362FD"/>
</radialGradient>
<radialGradient id="paint30_radial_249_719" cx="0" cy="0" r="1" gradientUnits="userSpaceOnUse" gradientTransform="translate(434.414 376.677) rotate(20.0976) scale(302.378 271.061)">
<stop stop-color="#3FE600"/>
<stop offset="0.0001" stop-color="white"/>
<stop offset="1" stop-color="#8362FD"/>
</radialGradient>
<radialGradient id="paint31_radial_249_719" cx="0" cy="0" r="1" gradientUnits="userSpaceOnUse" gradientTransform="translate(67.211 312.112) rotate(20.992) scale(700.929 651.243)">
<stop stop-color="#3FE600"/>
<stop offset="0.0001" stop-color="white"/>
<stop offset="1" stop-color="#8362FD"/>
</radialGradient>
<radialGradient id="paint32_radial_249_719" cx="0" cy="0" r="1" gradientUnits="userSpaceOnUse" gradientTransform="translate(1453.14 763.035) rotate(-139.185) scale(871.305 1189.85)">
<stop stop-color="#3FE600"/>
<stop offset="0.565632" stop-color="white"/>
<stop offset="1" stop-color="#8362FD"/>
</radialGradient>
<radialGradient id="paint33_radial_249_719" cx="0" cy="0" r="1" gradientUnits="userSpaceOnUse" gradientTransform="translate(906.755 459.757) rotate(-41.3379) scale(538.899 739.057)">
<stop stop-color="#3FE600"/>
<stop stop-color="white"/>
<stop offset="1" stop-color="#8362FD"/>
</radialGradient>
<radialGradient id="paint34_radial_249_719" cx="0" cy="0" r="1" gradientUnits="userSpaceOnUse" gradientTransform="translate(1433.7 514.333) rotate(-141.701) scale(422.195 535.212)">
<stop stop-color="#3FE600"/>
<stop stop-color="white"/>
<stop offset="1" stop-color="#8362FD"/>
</radialGradient>
<radialGradient id="paint35_radial_249_719" cx="0" cy="0" r="1" gradientUnits="userSpaceOnUse" gradientTransform="translate(63.9712 312.112) rotate(20.992) scale(700.929 651.243)">
<stop stop-color="#3FE600"/>
<stop offset="0.0001" stop-color="white"/>
<stop offset="1" stop-color="#8362FD"/>
</radialGradient>
<radialGradient id="paint36_radial_249_719" cx="0" cy="0" r="1" gradientUnits="userSpaceOnUse" gradientTransform="translate(-295.047 716.281) rotate(-34.3325) scale(999.642 1357.81)">
<stop stop-color="#3FE600"/>
<stop offset="0.65625" stop-color="white"/>
<stop offset="1" stop-color="#8362FD"/>
</radialGradient>
<radialGradient id="paint37_radial_249_719" cx="0" cy="0" r="1" gradientUnits="userSpaceOnUse" gradientTransform="translate(-144.342 585.865) rotate(-34.2354) scale(810.488 1099.42)">
<stop stop-color="#3FE600"/>
<stop offset="0.65625" stop-color="white"/>
<stop offset="1" stop-color="#8362FD"/>
</radialGradient>
<radialGradient id="paint38_radial_249_719" cx="0" cy="0" r="1" gradientUnits="userSpaceOnUse" gradientTransform="translate(95.4112 555.92) rotate(-49.6742) scale(319.843 343.906)">
<stop stop-color="#3FE600"/>
<stop offset="0.65625" stop-color="white"/>
<stop offset="1" stop-color="#8362FD"/>
</radialGradient>
<radialGradient id="paint39_radial_249_719" cx="0" cy="0" r="1" gradientUnits="userSpaceOnUse" gradientTransform="translate(123.346 533.486) rotate(-49.7112) scale(277.514 298.328)">
<stop stop-color="#3FE600"/>
<stop offset="0.65625" stop-color="white"/>
<stop offset="1" stop-color="#8362FD"/>
</radialGradient>
<radialGradient id="paint40_radial_249_719" cx="0" cy="0" r="1" gradientUnits="userSpaceOnUse" gradientTransform="translate(155.973 507.314) rotate(-49.8697) scale(227.801 244.658)">
<stop stop-color="#3FE600"/>
<stop offset="0.65625" stop-color="white"/>
<stop offset="1" stop-color="#8362FD"/>
</radialGradient>
<radialGradient id="paint41_radial_249_719" cx="0" cy="0" r="1" gradientUnits="userSpaceOnUse" gradientTransform="translate(-504.875 767.357) rotate(-32.1177) scale(1007.18 1351.33)">
<stop stop-color="#3FE600"/>
<stop offset="0.65625" stop-color="white"/>
<stop offset="1" stop-color="#8362FD"/>
</radialGradient>
<linearGradient id="paint42_linear_249_719" x1="739.5" y1="131" x2="739.5" y2="584" gradientUnits="userSpaceOnUse">
<stop stop-opacity="0"/>
<stop offset="0.869792"/>
</linearGradient>
</defs>
</svg>
