<svg width="375" height="458" viewBox="0 0 375 458" fill="none" xmlns="http://www.w3.org/2000/svg">
<path d="M18.3636 457.915C44.7383 426.885 68.4783 393.384 103.401 370.809C104.444 370.163 105.498 369.178 106.468 368.666C152.782 347.087 186.258 309.355 221.277 274.192C231.286 264.048 241.882 258.553 255.78 255.89C276.591 251.963 297.26 252.115 318.258 252.618C324.372 252.824 330.436 252.484 336.501 252.144C345.84 251.506 351.196 246.105 353.941 237.555C355.767 231.968 354.32 228.584 348.145 228.172C336.002 227.286 323.859 226.401 311.789 225.382C305.82 224.909 299.646 224.496 293.991 222.809C284.77 220.048 275.89 219.204 266.297 221.263C260.403 222.562 254.217 222.49 248.164 222.49C243.13 222.525 241.732 219.687 244.663 215.566C246.735 212.71 249.073 209.998 251.739 207.638C261.277 199.316 270.814 190.994 280.546 182.951C282.788 181.053 285.686 179.858 288.511 178.796C298.224 175.244 307.997 171.898 317.904 168.625C320.244 167.819 322.816 168.178 325.351 167.65C337.127 165.393 349.158 163.62 360.824 160.61C368.1 158.678 372.326 152.491 373.811 144.987C375.295 137.482 371.857 132.671 364.155 133.16C352.293 133.985 340.662 135.976 328.91 137.553C308.959 140.216 288.947 142.673 269.24 146.16C263.903 147.069 259.068 151.194 254.073 154.02C250.739 156.018 247.734 158.366 244.461 160.57C243.732 160.001 242.871 159.36 242.142 158.791C243.534 155.911 244.465 152.608 246.452 150.225C252.909 142.479 259.767 134.952 266.819 127.703C268.794 125.66 271.837 124.197 274.589 123.269C294.984 115.653 315.561 108.656 335.895 100.834C344.649 97.4538 352.893 93.1036 360.882 88.2685C369.489 83.25 371.397 75.2836 369.277 65.8204C368.35 61.1614 366.371 59.3933 361.52 60.0465C329.453 64.9554 298.312 72.6176 268.195 86.0311C250.372 94.0058 235.779 104.948 220.701 116.145C218.677 117.643 216.191 118.716 211.815 121.359C212.853 116.902 213.058 114.935 213.808 112.919C216.807 104.853 219.674 96.7148 222.941 88.7942C223.763 86.6441 225.86 85.0134 227.556 83.165C235.953 74.3963 244.217 65.555 252.747 56.8589C255.001 54.6209 257.461 52.3218 260.104 50.6414C271.014 43.931 281.341 36.3843 286.192 23.9573C287.837 19.6571 288.243 13.8179 286.759 9.54845C283.486 -0.0216492 278.111 -1.90412 269.686 3.73301C255.48 13.3268 241.857 23.757 228.294 34.3933C217.386 43.0093 206.733 52.1103 196.348 61.3564C192.7 64.5683 189.757 69.029 187.566 73.3788C175.92 95.4452 162.878 116.58 145.259 134.362C142.581 137.062 139.575 139.41 136.703 141.832C135.515 142.745 134.133 143.379 131.975 144.803C134.133 131.605 134.217 119.357 141.811 108.248C147.625 99.4602 152.588 89.6912 155.658 79.5861C158.197 71.0965 158.32 61.6408 157.947 52.7809C157.627 48.2784 154.614 43.0046 151.396 39.6976C144.632 32.7322 140.024 34.2103 136.649 43.2842C130.444 59.4768 119.905 73.1414 107.471 84.5644C93.3531 97.496 85.9948 113.582 79.8871 130.866C76.1864 141.495 72.1951 152.658 65.6907 161.762C53.7599 178.306 51.2077 197.004 49.3839 216.271C48.5575 226.383 47.5975 236.423 46.1644 246.379C44.0814 261.349 35.3958 272.559 24.1972 281.709C-4.57471 305.376 -33.4075 328.837 -62.5074 352.153C-77.6208 364.371 -93.1955 376.164 -108.709 388.164C-66.1449 411.989 -23.9575 434.916 18.3636 457.915Z" fill="black"/>
</svg>
