<svg width="382" height="332" viewBox="0 0 382 332" fill="none" xmlns="http://www.w3.org/2000/svg">
<path d="M421.842 331.644C389.748 312.385 359.221 290.199 322.171 280.816C321.073 280.561 319.865 280.013 318.87 279.853C272.195 274.689 231.946 251.683 191.109 231.369C179.41 225.481 168.567 223.813 155.682 225.583C136.407 228.287 118.454 234.5 100.319 241.115C95.0559 243.093 89.6752 244.581 84.2946 246.069C75.9748 248.261 69.7226 245.135 64.8172 238.497C61.5836 234.169 61.8481 230.798 67.1032 228.622C77.4159 224.279 87.7286 219.935 97.9387 215.497C102.996 213.329 108.251 211.154 112.678 208.021C119.896 202.904 127.379 199.557 136.338 198.527C141.852 197.924 147.217 196.041 152.487 194.261C156.881 192.81 157.263 189.928 153.499 187.202C150.855 185.324 148.021 183.651 145.005 182.381C134.252 177.94 123.499 173.5 112.659 169.36C110.148 168.367 107.274 168.179 104.501 168.085C94.9994 167.85 85.5052 167.812 75.9162 167.876C73.6414 167.863 71.5075 168.932 69.1454 169.219C58.2278 170.718 47.2305 172.714 36.1873 173.525C29.2833 173.983 23.7827 169.839 20.2826 163.742C16.7826 157.644 18.3603 152.443 25.2105 150.603C35.7821 147.832 46.4946 146.143 57.1918 144.06C75.347 140.509 93.4945 136.76 111.68 133.999C116.594 133.221 122.018 135.389 127.199 136.381C130.689 137.139 133.997 138.3 137.495 139.256C137.962 138.546 138.524 137.734 138.991 137.024C136.931 134.927 135.149 132.324 132.718 130.834C124.817 125.989 116.631 121.453 108.358 117.216C106.037 116.018 102.957 115.639 100.288 115.641C80.289 115.01 60.3133 114.971 40.3069 114.142C31.6899 113.775 23.2319 112.412 14.8535 110.552C5.88275 108.715 1.87746 102.34 0.939704 93.476C0.375925 89.1466 1.57895 87.0249 5.99528 86.1665C35.3605 81.0068 64.7306 78.5166 94.9003 81.3356C112.765 83.036 128.691 88.2701 145.114 93.5844C147.317 94.2924 149.797 94.4957 154.385 95.5095C152.169 91.9345 151.413 90.282 150.167 88.7469C145.182 82.6065 140.292 76.3635 135.117 70.4279C133.768 68.7978 131.463 67.9948 129.442 66.8843C119.551 61.7196 109.754 56.4524 99.7684 51.3902C97.1475 50.1046 94.3291 48.8264 91.5338 48.1407C80.06 45.5075 68.8479 41.9746 60.9678 32.5813C58.2702 29.321 56.1985 24.3563 56.2348 20.2021C56.269 10.9063 60.3958 7.68571 69.3896 10.1156C84.5819 14.2897 99.5126 19.3635 114.451 24.6348C126.484 28.9278 138.437 33.7182 150.2 38.7136C154.321 40.437 158.196 43.4553 161.383 46.5982C178.016 62.3856 195.59 76.951 216.162 87.2507C219.288 88.8139 222.596 89.9747 225.81 91.238C227.112 91.6833 228.502 91.8287 230.8 92.4344C225.039 81.577 221.362 70.9378 211.481 63.4985C203.834 57.5572 196.639 50.5112 190.992 42.6159C186.284 35.9706 183.395 27.7737 181.113 19.9494C180.067 15.9348 181.14 10.4561 182.969 6.62993C186.809 -1.42486 191.256 -1.49343 196.864 5.41459C207.031 17.6881 220.228 26.4857 234.415 32.774C250.512 39.8803 261.651 51.7217 272.055 64.975C278.404 73.1406 285.163 81.6861 293.505 87.7002C308.761 98.5955 316.484 114.125 323.74 130.364C327.435 138.927 331.225 147.386 335.401 155.634C341.619 168.056 352.48 175.26 364.923 179.934C396.938 192.076 428.946 204.022 461.143 215.763C477.897 221.954 494.928 227.641 511.967 233.525C481.914 266.792 451.925 299.167 421.842 331.644Z" fill="black"/>
</svg>
