<svg width="152" height="251" viewBox="0 0 152 251" fill="none" xmlns="http://www.w3.org/2000/svg">
<path d="M87.641 250.526C85.2387 244.771 82.9558 238.889 80.3707 233.202C69.8317 210.028 59.1079 186.859 48.5092 163.749C46.4542 159.224 43.5044 155.657 39.3439 152.812C34.6787 149.61 31.3875 145 29.1281 139.861C25.4729 131.541 22.0006 123.154 18.4668 114.768C15.7985 108.402 12.4085 102.616 7.38427 97.8132C6.23799 96.6709 5.56309 94.8315 5.20409 93.2302C3.48834 85.7794 2.07871 78.2568 0.303323 70.8699C-0.267945 68.4069 0.881173 67.6883 2.6484 67.0122C7.4014 65.1873 13.651 67.7809 16.4092 73.0899C18.9052 77.911 20.9182 83.0575 23.1121 88.0742C26.3007 95.2924 31.5313 100.771 37.9569 105.034C41.9267 107.7 44.7414 106.991 47.955 103.291C52.9542 97.5511 55.1378 90.5353 56.2641 83.2427C58.5726 68.4697 57.9176 53.6043 56.0323 38.8399C55.6978 36.0593 53.8267 33.4513 52.3293 30.9556C48.2977 24.3844 43.9619 17.9467 40.0535 11.3715C37.9702 7.90194 39.0987 4.57892 41.7235 1.76683C43.6921 -0.342243 45.7851 -0.470431 47.8849 1.57206C52.8358 6.00544 57.3671 10.8242 60.5204 16.9271C62.2321 20.3464 65.1603 23.231 67.7189 26.1274C73.0307 32.224 77.3068 38.7256 77.6387 47.2746C80.3556 47.3748 81.6201 46.4044 81.7168 43.6102C82.0353 34.1723 82.0988 34.2323 74.2169 28.7751C71.4432 26.878 68.6039 24.8589 66.2459 22.4524C65.0321 21.1262 64.4667 18.8492 64.2828 16.9322C64.091 14.7674 65.5306 13.4814 67.8181 13.6571C69.3624 13.7324 71.026 13.6798 72.3414 14.3205C78.0423 17.1175 83.8625 19.7867 89.2094 23.0911C92.921 25.3927 94.5867 29.3097 95.0397 33.8853C95.7559 40.9335 96.5377 48.1037 100.983 54.1037C105.816 60.6497 104.864 67.6266 102.81 74.8245C102.531 75.7637 103.002 76.9893 103.343 78.0329C104.028 80.1822 105.575 82.3042 105.58 84.4129C105.565 91.7324 105.118 99.0655 104.671 106.399C104.591 107.766 103.895 109.152 103.32 110.473C99.6528 119.334 95.4869 128.026 92.3802 137.055C89.4466 145.708 90.5756 154.107 96.7892 161.416C98.1995 163.108 99.0094 165.316 99.9386 167.395C105.319 179.568 110.517 191.809 116.017 203.854C117.341 206.727 119.455 209.203 121.506 211.682C130.429 222.75 139.533 233.689 148.515 244.694C149.479 245.904 150.261 247.244 151.165 248.518C129.97 249.188 108.836 249.856 87.641 250.526Z" fill="black"/>
</svg>
