<svg width="24" height="25" viewBox="0 0 24 25" fill="none" xmlns="http://www.w3.org/2000/svg">
<path d="M1.3125 1.4646V22.8396H22.6875V1.4646H1.3125ZM19.0702 6.52897L17.9236 7.62819C17.8752 7.66517 17.8377 7.71464 17.8152 7.77129C17.7928 7.82794 17.7862 7.88963 17.7961 7.94976V16.0254C17.7755 16.1477 17.8247 16.2719 17.9236 16.3469L19.043 17.4462V17.6876H13.4123V17.4462L14.572 16.3202C14.6859 16.2063 14.6859 16.1726 14.6859 15.9987V9.47132L11.4614 17.6608H11.0255L7.27125 9.47132V14.9604C7.23984 15.191 7.31672 15.4235 7.47891 15.5904L8.98734 17.4199V17.6613H4.71047V17.4199L6.21891 15.5904C6.38016 15.423 6.45234 15.1891 6.41344 14.9604V8.61304C6.43125 8.43679 6.36422 8.26241 6.2325 8.14382L4.89188 6.52851V6.2871H9.05484L12.2728 13.3441L15.1017 6.2871H19.0702V6.52897Z" fill="black"/>
</svg>
