<svg width="24" height="25" viewBox="0 0 24 25" fill="none" xmlns="http://www.w3.org/2000/svg">
<path d="M16.3748 3.40194C17.5342 3.40541 18.6451 3.86749 19.4648 4.68727C20.2846 5.50705 20.7467 6.61792 20.7502 7.77726V16.5269C20.7467 17.6863 20.2846 18.7972 19.4648 19.6169C18.6451 20.4367 17.5342 20.8988 16.3748 20.9023H7.62516C6.46582 20.8988 5.35495 20.4367 4.53517 19.6169C3.71539 18.7972 3.25331 17.6863 3.24984 16.5269V7.77726C3.25331 6.61792 3.71539 5.50705 4.53517 4.68727C5.35495 3.86749 6.46582 3.40541 7.62516 3.40194H16.3748ZM16.3748 1.6521H7.62516C4.25625 1.6521 1.5 4.40835 1.5 7.77726V16.5269C1.5 19.8958 4.25625 22.6521 7.62516 22.6521H16.3748C19.7437 22.6521 22.5 19.8958 22.5 16.5269V7.77726C22.5 4.40835 19.7437 1.6521 16.3748 1.6521Z" fill="black"/>
<path d="M17.6873 7.77734C17.4278 7.77734 17.174 7.70037 16.9582 7.55615C16.7423 7.41193 16.5741 7.20694 16.4748 6.96712C16.3754 6.72729 16.3494 6.46339 16.4001 6.20879C16.4507 5.95419 16.5757 5.72032 16.7593 5.53677C16.9428 5.35321 17.1767 5.22821 17.4313 5.17756C17.6859 5.12692 17.9498 5.15291 18.1896 5.25225C18.4294 5.35159 18.6344 5.51982 18.7786 5.73566C18.9229 5.9515 18.9998 6.20526 18.9998 6.46484C19.0002 6.63731 18.9665 6.80815 18.9007 6.96755C18.8349 7.12696 18.7382 7.2718 18.6163 7.39375C18.4943 7.5157 18.3495 7.61236 18.1901 7.67819C18.0306 7.74402 17.8598 7.77771 17.6873 7.77734ZM12 8.65203C12.6923 8.65203 13.369 8.85731 13.9446 9.24191C14.5202 9.62652 14.9688 10.1732 15.2337 10.8127C15.4986 11.4523 15.568 12.1561 15.4329 12.835C15.2978 13.514 14.9645 14.1377 14.475 14.6272C13.9855 15.1167 13.3618 15.45 12.6828 15.5851C12.0039 15.7201 11.3001 15.6508 10.6606 15.3859C10.021 15.121 9.47433 14.6724 9.08973 14.0968C8.70513 13.5212 8.49985 12.8445 8.49985 12.1522C8.50084 11.2242 8.86992 10.3345 9.52611 9.6783C10.1823 9.02211 11.072 8.65302 12 8.65203ZM12 6.90219C10.9617 6.90219 9.94662 7.21009 9.08326 7.78697C8.2199 8.36385 7.54699 9.18379 7.14963 10.1431C6.75227 11.1024 6.64831 12.158 6.85088 13.1764C7.05345 14.1948 7.55347 15.1303 8.28769 15.8645C9.02192 16.5987 9.95738 17.0987 10.9758 17.3013C11.9942 17.5039 13.0498 17.3999 14.0091 17.0026C14.9684 16.6052 15.7883 15.9323 16.3652 15.0689C16.9421 14.2056 17.25 13.1905 17.25 12.1522C17.25 10.7598 16.6969 9.42444 15.7123 8.43988C14.7277 7.45531 13.3924 6.90219 12 6.90219Z" fill="black"/>
</svg>
