<svg width="24" height="25" viewBox="0 0 24 25" fill="none" xmlns="http://www.w3.org/2000/svg">
<g clip-path="url(#clip0_266_2708)">
<path d="M21.75 3.27022C21.7441 2.6535 21.4953 2.06397 21.0576 1.62945C20.6199 1.19492 20.0286 0.950426 19.4119 0.948975L4.57687 0.9021C3.96076 0.902222 3.36983 1.14664 2.93365 1.58177C2.49746 2.0169 2.25161 2.60724 2.25 3.22335V18.5271C2.25 19.8068 3.29437 20.7771 4.57687 20.7771H17.25L16.6406 18.7146L21.75 23.4021V3.27022ZM15.218 15.6119C15.218 15.6119 14.8092 15.1249 14.468 14.7063C15.9558 14.2873 16.5234 13.3708 16.5234 13.3708C16.1148 13.6419 15.6769 13.866 15.218 14.0388C14.6881 14.2588 14.1364 14.4221 13.5722 14.5259C12.6 14.7044 11.603 14.7006 10.6322 14.5146C10.0611 14.4085 9.50221 14.2452 8.96391 14.0271C8.67914 13.918 8.40223 13.7894 8.13516 13.6423C8.10094 13.6198 8.06719 13.6085 8.03297 13.5855C8.01 13.5743 7.99875 13.563 7.98609 13.563C7.78172 13.4496 7.66828 13.3704 7.66828 13.3704C7.66828 13.3704 8.21297 14.2652 9.65484 14.6951C9.31406 15.1254 8.89406 15.6237 8.89406 15.6237C6.38578 15.5444 5.43234 13.9141 5.43234 13.9141C5.43234 10.3019 7.06687 7.36944 7.06687 7.36944C8.70141 6.15772 10.245 6.19194 10.245 6.19194L10.3584 6.32788C8.31516 6.90538 7.38469 7.79976 7.38469 7.79976C7.38469 7.79976 7.63406 7.66382 8.05406 7.48241C9.26859 6.95038 10.2338 6.81444 10.6322 6.76944C10.6958 6.75623 10.7604 6.74854 10.8253 6.74647C11.5859 6.64778 12.3556 6.64023 13.118 6.72397C14.315 6.86148 15.4748 7.22663 16.5347 7.79976C16.5347 7.79976 15.638 6.94897 13.7081 6.37241L13.867 6.19147C13.867 6.19147 15.4219 6.15726 17.0456 7.37085C17.0456 7.37085 18.6802 10.3033 18.6802 13.9155C18.6802 13.9024 17.7262 15.5327 15.218 15.6119Z" fill="black"/>
<path d="M9.93986 10.3708C9.29298 10.3708 8.78204 10.9258 8.78204 11.6163C8.78204 12.3068 9.30423 12.8618 9.93986 12.8618C10.5867 12.8618 11.0977 12.3073 11.0977 11.6163C11.1094 10.9244 10.5867 10.3708 9.93986 10.3708ZM14.0827 10.3708C13.4358 10.3708 12.9249 10.9258 12.9249 11.6163C12.9249 12.3068 13.447 12.8618 14.0827 12.8618C14.73 12.8618 15.2405 12.3073 15.2405 11.6163C15.2405 10.9254 14.7188 10.3708 14.0827 10.3708Z" fill="black"/>
</g>
<defs>
<clipPath id="clip0_266_2708">
<rect width="24" height="24" fill="white" transform="translate(0 0.1521)"/>
</clipPath>
</defs>
</svg>
