<svg width="401" height="655" viewBox="0 0 401 655" fill="none" xmlns="http://www.w3.org/2000/svg">
<rect x="-0.878049" y="-0.878049" width="34.9831" height="459.244" transform="matrix(0 -1 -1 0 459.244 653.161)" stroke="url(#paint0_linear_284_895)" stroke-opacity="0.11" stroke-width="1.7561"/>
<rect x="-0.878049" y="-0.878049" width="34.1845" height="459.244" transform="matrix(0 -1 -1 0 459.244 616.422)" stroke="url(#paint1_linear_284_895)" stroke-opacity="0.11" stroke-width="1.7561"/>
<rect x="-0.878049" y="-0.878049" width="34.9831" height="459.244" transform="matrix(0 -1 -1 0 459.244 580.481)" stroke="url(#paint2_linear_284_895)" stroke-opacity="0.11" stroke-width="1.7561"/>
<rect x="-0.878049" y="-0.878049" width="34.1845" height="459.244" transform="matrix(0 -1 -1 0 459.244 543.742)" stroke="url(#paint3_linear_284_895)" stroke-opacity="0.11" stroke-width="1.7561"/>
<rect x="-0.878049" y="-0.878049" width="34.9831" height="459.244" transform="matrix(0 -1 -1 0 459.244 507.802)" stroke="url(#paint4_linear_284_895)" stroke-opacity="0.11" stroke-width="1.7561"/>
<rect x="-0.878049" y="-0.878049" width="34.1845" height="459.244" transform="matrix(0 -1 -1 0 459.244 471.062)" stroke="url(#paint5_linear_284_895)" stroke-opacity="0.11" stroke-width="1.7561"/>
<rect x="-0.878049" y="-0.878049" width="34.9831" height="459.244" transform="matrix(0 -1 -1 0 459.244 435.121)" stroke="url(#paint6_linear_284_895)" stroke-opacity="0.11" stroke-width="1.7561"/>
<rect x="-0.878049" y="-0.878049" width="34.1845" height="459.244" transform="matrix(0 -1 -1 0 459.244 398.383)" stroke="url(#paint7_linear_284_895)" stroke-opacity="0.11" stroke-width="1.7561"/>
<rect x="-0.878049" y="-0.878049" width="34.9831" height="459.244" transform="matrix(0 -1 -1 0 459.244 362.442)" stroke="url(#paint8_linear_284_895)" stroke-opacity="0.11" stroke-width="1.7561"/>
<rect x="-0.878049" y="-0.878049" width="34.9831" height="459.244" transform="matrix(0 -1 -1 0 459.244 325.703)" stroke="url(#paint9_linear_284_895)" stroke-opacity="0.11" stroke-width="1.7561"/>
<rect x="-0.878049" y="-0.878049" width="34.1845" height="459.244" transform="matrix(0 -1 -1 0 459.244 288.963)" stroke="url(#paint10_linear_284_895)" stroke-opacity="0.11" stroke-width="1.7561"/>
<rect x="-0.878049" y="-0.878049" width="34.9831" height="459.244" transform="matrix(0 -1 -1 0 459.244 253.022)" stroke="url(#paint11_linear_284_895)" stroke-opacity="0.11" stroke-width="1.7561"/>
<rect x="-0.878049" y="-0.878049" width="34.1845" height="459.244" transform="matrix(0 -1 -1 0 459.244 216.284)" stroke="url(#paint12_linear_284_895)" stroke-opacity="0.11" stroke-width="1.7561"/>
<rect x="-0.878049" y="-0.878049" width="34.9831" height="459.244" transform="matrix(0 -1 -1 0 459.244 180.343)" stroke="url(#paint13_linear_284_895)" stroke-opacity="0.11" stroke-width="1.7561"/>
<rect x="-0.878049" y="-0.878049" width="34.1845" height="459.244" transform="matrix(0 -1 -1 0 459.244 143.603)" stroke="url(#paint14_linear_284_895)" stroke-opacity="0.11" stroke-width="1.7561"/>
<rect x="-0.878049" y="-0.878049" width="34.9831" height="459.244" transform="matrix(0 -1 -1 0 459.244 107.663)" stroke="url(#paint15_linear_284_895)" stroke-opacity="0.11" stroke-width="1.7561"/>
<rect x="-0.878049" y="-0.878049" width="34.1845" height="459.244" transform="matrix(0 -1 -1 0 459.244 70.9236)" stroke="url(#paint16_linear_284_895)" stroke-opacity="0.11" stroke-width="1.7561"/>
<rect x="-0.878049" y="-0.878049" width="34.9831" height="459.244" transform="matrix(0 -1 -1 0 459.244 34.9832)" stroke="url(#paint17_linear_284_895)" stroke-opacity="0.11" stroke-width="1.7561"/>
<defs>
<linearGradient id="paint0_linear_284_895" x1="18.3696" y1="0" x2="18.3696" y2="461" gradientUnits="userSpaceOnUse">
<stop stop-color="white"/>
<stop offset="1" stop-color="#8362FD" stop-opacity="0"/>
</linearGradient>
<linearGradient id="paint1_linear_284_895" x1="17.9703" y1="0" x2="17.9703" y2="461" gradientUnits="userSpaceOnUse">
<stop stop-color="white"/>
<stop offset="1" stop-color="#8362FD" stop-opacity="0"/>
</linearGradient>
<linearGradient id="paint2_linear_284_895" x1="18.3696" y1="0" x2="18.3696" y2="461" gradientUnits="userSpaceOnUse">
<stop stop-color="white"/>
<stop offset="1" stop-color="#8362FD" stop-opacity="0"/>
</linearGradient>
<linearGradient id="paint3_linear_284_895" x1="17.9703" y1="0" x2="17.9703" y2="461" gradientUnits="userSpaceOnUse">
<stop stop-color="white"/>
<stop offset="1" stop-color="#8362FD" stop-opacity="0"/>
</linearGradient>
<linearGradient id="paint4_linear_284_895" x1="18.3696" y1="0" x2="18.3696" y2="461" gradientUnits="userSpaceOnUse">
<stop stop-color="white"/>
<stop offset="1" stop-color="#8362FD" stop-opacity="0"/>
</linearGradient>
<linearGradient id="paint5_linear_284_895" x1="17.9703" y1="0" x2="17.9703" y2="461" gradientUnits="userSpaceOnUse">
<stop stop-color="white"/>
<stop offset="1" stop-color="#8362FD" stop-opacity="0"/>
</linearGradient>
<linearGradient id="paint6_linear_284_895" x1="18.3696" y1="0" x2="18.3696" y2="461" gradientUnits="userSpaceOnUse">
<stop stop-color="white"/>
<stop offset="1" stop-color="#8362FD" stop-opacity="0"/>
</linearGradient>
<linearGradient id="paint7_linear_284_895" x1="17.9703" y1="0" x2="17.9703" y2="461" gradientUnits="userSpaceOnUse">
<stop stop-color="white"/>
<stop offset="1" stop-color="#8362FD" stop-opacity="0"/>
</linearGradient>
<linearGradient id="paint8_linear_284_895" x1="18.3696" y1="0" x2="18.3696" y2="461" gradientUnits="userSpaceOnUse">
<stop stop-color="white"/>
<stop offset="1" stop-color="#8362FD" stop-opacity="0"/>
</linearGradient>
<linearGradient id="paint9_linear_284_895" x1="18.3696" y1="0" x2="18.3696" y2="461" gradientUnits="userSpaceOnUse">
<stop stop-color="white"/>
<stop offset="1" stop-color="#8362FD" stop-opacity="0"/>
</linearGradient>
<linearGradient id="paint10_linear_284_895" x1="17.9703" y1="0" x2="17.9703" y2="461" gradientUnits="userSpaceOnUse">
<stop stop-color="white"/>
<stop offset="1" stop-color="#8362FD" stop-opacity="0"/>
</linearGradient>
<linearGradient id="paint11_linear_284_895" x1="18.3696" y1="0" x2="18.3696" y2="461" gradientUnits="userSpaceOnUse">
<stop stop-color="white"/>
<stop offset="1" stop-color="#8362FD" stop-opacity="0"/>
</linearGradient>
<linearGradient id="paint12_linear_284_895" x1="17.9703" y1="0" x2="17.9703" y2="461" gradientUnits="userSpaceOnUse">
<stop stop-color="white"/>
<stop offset="1" stop-color="#8362FD" stop-opacity="0"/>
</linearGradient>
<linearGradient id="paint13_linear_284_895" x1="18.3696" y1="0" x2="18.3696" y2="461" gradientUnits="userSpaceOnUse">
<stop stop-color="white"/>
<stop offset="1" stop-color="#8362FD" stop-opacity="0"/>
</linearGradient>
<linearGradient id="paint14_linear_284_895" x1="17.9703" y1="0" x2="17.9703" y2="461" gradientUnits="userSpaceOnUse">
<stop stop-color="white"/>
<stop offset="1" stop-color="#8362FD" stop-opacity="0"/>
</linearGradient>
<linearGradient id="paint15_linear_284_895" x1="18.3696" y1="0" x2="18.3696" y2="461" gradientUnits="userSpaceOnUse">
<stop stop-color="white"/>
<stop offset="1" stop-color="#8362FD" stop-opacity="0"/>
</linearGradient>
<linearGradient id="paint16_linear_284_895" x1="17.9703" y1="0" x2="17.9703" y2="461" gradientUnits="userSpaceOnUse">
<stop stop-color="white"/>
<stop offset="1" stop-color="#8362FD" stop-opacity="0"/>
</linearGradient>
<linearGradient id="paint17_linear_284_895" x1="18.3696" y1="0" x2="18.3696" y2="461" gradientUnits="userSpaceOnUse">
<stop stop-color="white"/>
<stop offset="1" stop-color="#8362FD" stop-opacity="0"/>
</linearGradient>
</defs>
</svg>
