<svg width="425" height="460" viewBox="0 0 425 460" fill="none" xmlns="http://www.w3.org/2000/svg">
<path d="M35.0243 248.019C17.5261 251.259 5.05051 274.752 1 286.094C47.6619 378.769 481.121 360.892 692.018 340.37C695.798 238.838 701.091 34.6391 692.018 30.1025C682.945 25.5659 668.795 33.0715 662.854 37.3913C660.964 37.9314 654.591 35.9332 644.222 23.6196C631.26 8.22764 620.729 2.55899 608.577 2.55899C596.426 2.55899 592.375 5.7994 578.603 12.2802C567.262 2.56056 550.25 -1.49152 534.858 2.55899C519.466 6.60951 529.187 34.9631 526.757 35.7732C524.326 36.5833 525.137 40.6338 529.187 47.1147C527.567 51.9753 500.023 33.3429 495.973 30.1025C491.922 26.8621 483.011 22.81 474.91 21.9999C466.809 21.1898 438.456 29.2908 424.684 44.6828C410.912 60.0747 422.254 64.1252 407.672 65.7454C393.09 67.3657 382.558 80.3275 379.318 82.7579C376.078 85.1882 366.356 77.0871 347.724 77.8972C329.092 78.7073 318.56 116.782 308.029 112.731C297.498 108.681 282.106 109.491 276.435 109.491C270.764 109.491 256.993 115.162 249.702 123.263C242.411 131.364 243.221 142.705 232.689 140.274C222.158 137.844 214.057 137.034 201.906 142.705C192.184 147.241 191.374 162.958 192.184 170.25C193.264 170.79 193.48 171.546 185.703 170.25C175.982 168.629 163.021 181.591 160.59 194.553C158.16 207.514 154.92 205.894 150.869 206.704C146.819 207.514 141.958 205.894 136.287 199.413C130.616 192.931 120.895 185.641 110.364 184.021C99.8326 182.401 99.0225 192.932 86.8709 199.413C73.9093 201.843 73.0992 214.805 71.479 218.855C69.8587 222.906 65.8082 222.906 56.087 225.336C46.3658 227.766 55.2769 236.677 35.0243 248.019Z" fill="url(#paint0_radial_320_5137)" stroke="#8362FD" stroke-opacity="0.69" stroke-width="1.62021"/>
<path d="M286.047 156.056C276.612 156.487 268.342 167.939 265.387 173.611C283.168 225.765 512.348 247.909 624.716 252.462C634.099 199.32 651.755 92.2732 647.316 89.2261C642.876 86.1789 634.891 89.0978 631.453 90.9381C630.42 91.0847 627.215 89.5695 622.661 82.3365C616.968 73.2952 611.844 69.5463 605.456 68.6618C599.067 67.7774 596.702 69.1874 588.99 71.5947C583.735 65.6555 575.087 62.2855 566.7 63.2962C558.313 64.3069 561.358 79.9317 560.022 80.181C558.685 80.4303 558.816 82.6203 560.473 86.3248C559.267 88.7641 546.144 76.9566 544.251 74.9569C542.358 72.9573 537.968 70.1768 533.768 69.161C529.568 68.1452 514.072 70.3435 505.711 77.439C497.349 84.5346 503.017 87.4911 495.233 87.2822C487.449 87.0732 480.968 93.1261 479.088 94.1689C477.207 95.2117 472.686 90.242 462.832 89.3121C452.978 88.3821 444.668 107.647 439.426 104.75C434.185 101.852 426.034 101.158 423.053 100.745C420.071 100.332 412.418 102.314 407.995 106.045C403.572 109.776 403.172 115.802 397.812 113.757C392.453 111.712 388.253 110.696 381.452 112.795C376.01 114.474 374.44 122.684 374.335 126.579C374.863 126.942 374.922 127.355 370.927 126.107C365.935 124.547 358.176 130.423 355.955 137.066C353.733 143.708 352.147 142.62 349.959 142.751C347.77 142.882 345.333 141.676 342.824 137.854C340.315 134.031 335.735 129.488 330.317 127.869C324.898 126.25 323.705 131.732 316.845 134.257C309.854 134.592 308.484 141.352 307.337 143.365C306.19 145.379 304.06 145.084 298.773 145.655C293.485 146.226 297.521 151.563 286.047 156.056Z" stroke="url(#paint1_radial_320_5137)" stroke-opacity="0.69" stroke-width="1.07386"/>
<path d="M343.67 141.685C347.4 139.25 353.721 141.353 356.415 142.709C363.985 167.567 282.388 239.204 240.643 271.915C222.406 254.166 186.148 218.069 187.007 215.679C187.866 213.289 191.726 212.206 193.549 211.962C193.984 211.734 194.793 210.271 194.542 206.248C194.229 201.219 195.157 198.372 197.357 196.273C199.558 194.174 200.852 194.061 204.467 192.857C204.841 189.136 207.221 185.463 210.709 183.538C214.197 181.614 217.338 188.432 217.918 188.159C218.498 187.886 219.052 188.76 219.439 190.635C220.572 191.236 222.34 183.101 222.513 181.813C222.687 180.526 223.6 178.253 224.927 176.706C226.255 175.16 232.79 171.731 237.946 172.141C243.101 172.552 241.747 175.246 244.668 173.02C247.589 170.795 251.737 171.325 252.744 171.206C253.751 171.087 254.111 167.939 257.626 164.867C261.141 161.795 269.63 166.877 270.837 164.324C272.044 161.771 274.972 159.259 275.999 158.279C277.026 157.299 280.501 155.948 283.222 156.157C285.943 156.366 287.757 158.561 289.244 156.302C290.731 154.042 292.058 152.496 295.239 151.424C297.784 150.567 300.648 153.276 301.762 154.738C301.66 155.022 301.751 155.197 302.936 153.618C304.416 151.645 309.005 151.755 311.685 153.685C314.366 155.614 314.673 154.761 315.547 154.208C316.42 153.655 317.021 152.522 316.927 150.368C316.834 148.213 317.334 145.213 318.962 143.1C320.589 140.987 322.556 142.756 325.877 141.831C328.645 140.033 331.033 142.242 332.026 142.696C333.02 143.151 333.753 142.451 335.934 141.212C338.115 139.973 338.042 143.128 343.67 141.685Z" stroke="url(#paint2_radial_320_5137)" stroke-opacity="0.69" stroke-width="0.506414"/>
<path d="M156.054 298.544C186.516 299.145 199.708 314.95 202.497 322.777L676.616 370.926L705.166 270.985C700.608 226.255 689.347 133.818 680.766 121.91C670.039 107.027 616.894 114.408 597.645 118.268C582.247 121.355 577.727 141.655 577.392 151.419C571.974 148.094 556.916 142.5 540.031 146.724C523.147 150.949 516.031 167.349 514.584 175.021C512.445 172.13 503.75 167.418 486.089 171.694C468.428 175.97 466.435 184.241 467.646 187.842C460.257 184.213 439.621 176.819 416.183 176.277C392.746 175.735 381.29 189.389 378.492 196.284C374.326 192.228 360.919 184.058 340.622 183.83C315.252 183.545 317.829 193.118 301.621 198.727C286.633 193.215 272.112 194.816 253.75 197.319C235.387 199.822 223.321 223.992 216.821 228.964C210.322 233.936 187.524 228.287 180.898 231.319C175.596 233.745 175.314 240.345 175.835 243.342C173.865 243.038 168.389 242.791 162.243 244.233C156.097 245.675 153.606 251.294 153.129 253.923C150.413 252.153 140.539 249.293 122.776 252.016C100.573 255.421 109.781 276.899 119.618 278.202C124.01 285.708 130.595 282.029 131.735 284.552C132.876 287.075 133.511 296.775 156.054 298.544Z" fill="url(#paint3_radial_320_5137)" stroke="#8362FD" stroke-opacity="0.5" stroke-width="1.62021"/>
<path d="M294.141 322.037C319.322 318.128 334.8 335.296 339.391 344.369L742.724 330.612L736.757 205C719.857 151.419 683.419 40.9718 672.873 27.8306C659.689 11.404 618.238 28.4509 603.574 36.0647C591.842 42.1558 594.104 67.4751 596.702 79.3733C591.276 76.1637 577.271 71.6685 564.654 79.3648C552.038 87.0611 551.022 108.044 552.091 117.573C549.485 114.391 540.962 109.998 527.723 117.875C514.484 125.752 515.281 136.091 517.335 140.275C510.203 136.997 491.089 131.168 471.691 134.078C452.294 136.988 446.907 155.3 446.639 164.092C442.026 159.804 428.618 151.932 411.891 154.746C390.982 158.262 395.914 169.485 384.26 178.759C370.336 174.352 358.888 178.506 344.552 184.339C330.216 190.171 327.422 221.335 323.55 228.358C319.678 235.381 299.303 231.997 294.756 236.685C291.118 240.435 292.828 248.487 294.138 252.044C292.431 251.975 287.863 252.509 283.243 255.194C278.622 257.88 278.231 265.077 278.613 268.34C275.862 266.605 266.917 264.638 253.138 270.647C235.914 278.158 249.791 302.817 258.249 302.901C264.062 311.339 268.384 305.873 270.063 308.761C271.741 311.648 275.117 323.322 294.141 322.037Z" fill="url(#paint4_radial_320_5137)" stroke="#8362FD" stroke-opacity="0.5" stroke-width="1.62021"/>
<path d="M429.803 301.93C442.483 299.962 450.277 308.607 452.589 313.176L655.689 306.248L652.685 242.995C644.175 216.014 625.826 160.398 620.515 153.781C613.877 145.509 593.004 154.093 585.619 157.927C579.712 160.994 580.851 173.744 582.159 179.735C579.427 178.119 572.374 175.855 566.021 179.731C559.668 183.607 559.157 194.172 559.695 198.971C558.383 197.369 554.091 195.156 547.424 199.123C540.758 203.089 541.159 208.296 542.193 210.403C538.602 208.752 528.977 205.817 519.209 207.282C509.442 208.748 506.729 217.969 506.594 222.396C504.271 220.237 497.519 216.273 489.096 217.69C478.568 219.46 481.051 225.112 475.183 229.781C468.171 227.563 462.406 229.654 455.187 232.591C447.968 235.528 446.562 251.221 444.612 254.758C442.662 258.294 432.402 256.59 430.112 258.951C428.28 260.839 429.141 264.893 429.801 266.685C428.942 266.65 426.641 266.919 424.315 268.271C421.988 269.623 421.791 273.248 421.983 274.891C420.598 274.017 416.094 273.027 409.155 276.052C400.482 279.835 407.47 292.252 411.729 292.294C414.656 296.543 416.833 293.791 417.678 295.245C418.523 296.699 420.223 302.577 429.803 301.93Z" stroke="url(#paint5_radial_320_5137)" stroke-opacity="0.5" stroke-width="1.41371"/>
<defs>
<radialGradient id="paint0_radial_320_5137" cx="0" cy="0" r="1" gradientUnits="userSpaceOnUse" gradientTransform="translate(639.361 -193.488) rotate(139.185) scale(871.305 1189.85)">
<stop stop-color="#3FE600"/>
<stop offset="0.565632" stop-color="white"/>
<stop offset="1" stop-color="#8362FD"/>
</radialGradient>
<radialGradient id="paint1_radial_320_5137" cx="0" cy="0" r="1" gradientUnits="userSpaceOnUse" gradientTransform="translate(404.909 119.2) rotate(148.314) scale(58.1602 113.677)">
<stop stop-color="#8362FD"/>
<stop offset="1" stop-color="#8362FD" stop-opacity="0"/>
</radialGradient>
<radialGradient id="paint2_radial_320_5137" cx="0" cy="0" r="1" gradientUnits="userSpaceOnUse" gradientTransform="translate(288.028 160.341) rotate(-4.07613) scale(27.4274 53.6081)">
<stop stop-color="#8362FD"/>
<stop offset="1" stop-color="#8362FD" stop-opacity="0"/>
</radialGradient>
<radialGradient id="paint3_radial_320_5137" cx="0" cy="0" r="1" gradientUnits="userSpaceOnUse" gradientTransform="translate(92.9731 109.789) rotate(41.3379) scale(538.899 739.057)">
<stop stop-color="#3FE600"/>
<stop stop-color="white"/>
<stop offset="1" stop-color="#8362FD"/>
</radialGradient>
<radialGradient id="paint4_radial_320_5137" cx="0" cy="0" r="1" gradientUnits="userSpaceOnUse" gradientTransform="translate(619.918 55.2134) rotate(141.701) scale(422.195 535.212)">
<stop stop-color="#3FE600"/>
<stop stop-color="white"/>
<stop offset="1" stop-color="#8362FD"/>
</radialGradient>
<radialGradient id="paint5_radial_320_5137" cx="0" cy="0" r="1" gradientUnits="userSpaceOnUse" gradientTransform="translate(528.039 223.396) rotate(90) scale(63.6172 96.9829)">
<stop stop-color="#8362FD"/>
<stop offset="1" stop-color="#8362FD" stop-opacity="0"/>
</radialGradient>
</defs>
</svg>
