<svg width="448" height="443" viewBox="0 0 448 443" fill="none" xmlns="http://www.w3.org/2000/svg">
<path d="M413.774 238.426C430.593 241.541 442.584 264.122 446.478 275.023C401.628 364.099 -14.9988 346.917 -217.706 327.191C-221.339 229.602 -226.427 33.3328 -217.706 28.9723C-208.985 24.6119 -195.385 31.826 -189.675 35.9781C-187.858 36.4972 -181.732 34.5766 -171.766 22.7412C-159.307 7.94696 -149.185 2.49845 -137.505 2.49845C-125.826 2.49845 -121.933 5.61303 -108.696 11.8422C-97.7946 2.49996 -81.4431 -1.39477 -66.6489 2.49845C-51.8546 6.39167 -61.1984 33.6442 -58.8624 34.4229C-56.5265 35.2015 -57.3051 39.0947 -61.1984 45.3239C-59.6411 49.9957 -33.1672 32.0869 -29.274 28.9723C-25.3807 25.8578 -16.8156 21.963 -9.02921 21.1844C-1.24277 20.4058 26.0098 28.1922 39.2467 42.9864C52.4837 57.7807 41.5826 61.6739 55.5982 63.2312C69.6138 64.7885 79.7362 77.247 82.8508 79.5829C85.9654 81.9189 95.3091 74.1324 113.218 74.9111C131.127 75.6897 141.249 112.286 151.371 108.392C161.494 104.499 176.288 105.278 181.739 105.278C187.189 105.278 200.426 110.728 207.434 118.515C214.442 126.301 213.663 137.202 223.785 134.866C233.908 132.53 241.694 131.751 253.374 137.202C262.718 141.562 263.496 156.669 262.718 163.677C261.679 164.196 261.472 164.923 268.947 163.677C278.29 162.12 290.749 174.578 293.085 187.036C295.421 199.495 298.535 197.937 302.428 198.716C306.322 199.495 310.993 197.937 316.444 191.708C321.894 185.478 331.238 178.471 341.361 176.913C351.483 175.356 352.262 185.479 363.941 191.708C376.4 194.044 377.178 206.502 378.736 210.395C380.293 214.288 384.186 214.288 393.53 216.624C402.873 218.96 394.308 227.525 413.774 238.426Z" fill="url(#paint0_radial_320_5128)" stroke="#8362FD" stroke-opacity="0.69" stroke-width="1.62021"/>
<path d="M172.499 150.035C181.568 150.449 189.517 161.456 192.358 166.908C175.267 217.037 -45.0138 238.321 -153.018 242.697C-162.037 191.618 -179.007 88.7291 -174.74 85.8003C-170.473 82.8715 -162.798 85.677 -159.493 87.4459C-158.5 87.5867 -155.42 86.1304 -151.042 79.1783C-145.57 70.488 -140.646 66.8847 -134.505 66.0346C-128.365 65.1845 -126.092 66.5398 -118.679 68.8536C-113.628 63.1451 -105.316 59.9059 -97.2545 60.8773C-89.1933 61.8488 -92.1204 76.8668 -90.8357 77.1065C-89.5509 77.3461 -89.6767 79.451 -91.2697 83.0116C-90.1107 85.3562 -77.4973 74.0073 -75.6774 72.0853C-73.8575 70.1633 -69.6383 67.4908 -65.6016 66.5144C-61.5648 65.538 -46.6704 67.651 -38.6338 74.471C-30.5973 81.291 -36.0446 84.1327 -28.5629 83.9319C-21.0811 83.7311 -14.8521 89.5489 -13.0446 90.5512C-11.237 91.5535 -6.89197 86.7768 2.5798 85.883C12.0516 84.9891 20.0387 103.506 25.0767 100.721C30.1147 97.9359 37.949 97.2688 40.8145 96.8721C43.6799 96.4754 51.0359 98.3795 55.2872 101.966C59.5385 105.552 59.9231 111.344 65.0745 109.378C70.2259 107.413 74.2627 106.436 80.8 108.454C86.0298 110.068 87.5395 117.959 87.6406 121.703C87.1326 122.051 87.0764 122.449 90.9154 121.249C95.7142 119.75 103.171 125.398 105.307 131.782C107.442 138.166 108.966 137.12 111.07 137.247C113.173 137.373 115.516 136.214 117.928 132.539C120.339 128.865 124.741 124.499 129.949 122.942C135.157 121.386 136.304 126.655 142.898 129.082C149.618 129.405 150.934 135.902 152.037 137.837C153.139 139.772 155.186 139.489 160.268 140.038C165.35 140.587 161.471 145.716 172.499 150.035Z" stroke="url(#paint1_radial_320_5128)" stroke-opacity="0.69" stroke-width="1.07386"/>
<path d="M117.114 136.222C113.529 133.881 107.454 135.902 104.864 137.206C97.5885 161.098 176.017 229.954 216.14 261.395C233.669 244.334 268.52 209.639 267.694 207.342C266.868 205.046 263.158 204.004 261.406 203.77C260.987 203.55 260.21 202.144 260.451 198.277C260.752 193.444 259.86 190.707 257.745 188.69C255.63 186.672 254.386 186.564 250.912 185.407C250.552 181.83 248.264 178.3 244.912 176.45C241.559 174.6 238.54 181.153 237.983 180.891C237.425 180.629 236.893 181.469 236.521 183.27C235.432 183.848 233.733 176.029 233.566 174.792C233.399 173.555 232.521 171.369 231.246 169.883C229.97 168.397 223.688 165.101 218.733 165.495C213.778 165.89 215.079 168.479 212.272 166.34C209.464 164.201 205.477 164.711 204.509 164.596C203.541 164.482 203.195 161.456 199.817 158.504C196.439 155.551 188.279 160.436 187.119 157.982C185.958 155.527 183.144 153.113 182.157 152.171C181.17 151.23 177.83 149.931 175.215 150.132C172.6 150.333 170.856 152.443 169.427 150.271C167.997 148.099 166.722 146.613 163.664 145.583C161.218 144.759 158.465 147.363 157.395 148.768C157.493 149.041 157.405 149.209 156.267 147.692C154.844 145.795 150.433 145.901 147.857 147.756C145.28 149.61 144.985 148.79 144.145 148.259C143.306 147.727 142.729 146.638 142.818 144.567C142.908 142.497 142.427 139.612 140.863 137.582C139.299 135.551 137.408 137.251 134.216 136.362C131.556 134.634 129.261 136.757 128.306 137.194C127.351 137.631 126.646 136.958 124.55 135.767C122.453 134.577 122.524 137.609 117.114 136.222Z" stroke="url(#paint2_radial_320_5128)" stroke-opacity="0.69" stroke-width="0.506414"/>
<path d="M297.444 286.99C268.165 287.567 255.486 302.758 252.806 310.281L-202.902 356.561L-230.344 260.501C-225.963 217.508 -215.139 128.66 -206.891 117.215C-196.581 102.909 -145.499 110.004 -126.998 113.714C-112.197 116.682 -107.853 136.193 -107.531 145.578C-102.323 142.382 -87.8502 137.005 -71.6214 141.066C-55.3927 145.126 -48.5535 160.889 -47.1626 168.263C-45.106 165.485 -36.749 160.956 -19.7737 165.066C-2.79841 169.175 -0.882835 177.125 -2.04697 180.586C5.05462 177.098 24.8896 169.992 47.4169 169.471C69.9443 168.95 80.9552 182.073 83.6448 188.7C87.6493 184.802 100.535 176.949 120.044 176.73C144.429 176.456 141.952 185.657 157.531 191.048C171.936 185.75 185.894 187.29 203.543 189.695C221.192 192.101 232.79 215.332 239.037 220.111C245.285 224.891 267.197 219.461 273.566 222.375C278.662 224.707 278.933 231.051 278.432 233.931C280.325 233.639 285.589 233.401 291.497 234.788C297.404 236.174 299.798 241.574 300.256 244.101C302.867 242.4 312.357 239.651 329.43 242.269C350.772 245.541 341.92 266.185 332.466 267.437C328.244 274.652 321.916 271.115 320.819 273.541C319.723 275.966 319.112 285.289 297.444 286.99Z" fill="url(#paint3_radial_320_5128)" stroke="#8362FD" stroke-opacity="0.5" stroke-width="1.62021"/>
<path d="M164.72 309.57C140.517 305.813 125.64 322.315 121.227 331.035L-266.443 317.812L-260.708 197.078C-244.464 145.578 -209.442 39.4196 -199.304 26.7886C-186.633 10.9999 -146.791 27.3848 -132.697 34.703C-121.421 40.5576 -123.595 64.8936 -126.092 76.3298C-120.877 73.2448 -107.415 68.9242 -95.2886 76.3217C-83.1622 83.7191 -82.1858 103.887 -83.2134 113.046C-80.708 109.988 -72.516 105.765 -59.7913 113.336C-47.0667 120.907 -47.833 130.844 -49.8068 134.867C-42.9515 131.716 -24.5799 126.113 -5.93569 128.91C12.7085 131.708 17.8857 149.308 18.1437 157.759C22.5777 153.637 35.465 146.071 51.5425 148.775C71.6393 152.155 66.8986 162.943 78.1004 171.856C91.4834 167.62 102.487 171.613 116.266 177.219C130.046 182.825 132.731 212.779 136.453 219.529C140.175 226.279 159.758 223.026 164.129 227.532C167.625 231.137 165.982 238.876 164.723 242.295C166.363 242.229 170.754 242.742 175.195 245.323C179.636 247.904 180.012 254.822 179.645 257.958C182.289 256.291 190.887 254.4 204.131 260.176C220.686 267.395 207.347 291.096 199.218 291.177C193.631 299.288 189.476 294.033 187.863 296.809C186.25 299.585 183.005 310.805 164.72 309.57Z" fill="url(#paint4_radial_320_5128)" stroke="#8362FD" stroke-opacity="0.5" stroke-width="1.62021"/>
<path d="M34.3263 290.244C22.1389 288.352 14.6475 296.662 12.4252 301.053L-182.789 294.395L-179.901 233.598C-171.721 207.665 -154.085 154.208 -148.981 147.848C-142.6 139.897 -122.537 148.148 -115.44 151.833C-109.762 154.781 -110.857 167.036 -112.114 172.795C-109.488 171.241 -102.709 169.065 -96.6026 172.791C-90.4963 176.516 -90.0046 186.671 -90.5221 191.283C-89.2605 189.743 -85.1353 187.617 -78.7278 191.429C-72.3202 195.242 -72.7061 200.246 -73.7 202.271C-70.2479 200.685 -60.9968 197.863 -51.6084 199.272C-42.2199 200.68 -39.6129 209.543 -39.483 213.799C-37.2502 211.723 -30.7607 207.913 -22.6648 209.275C-12.545 210.977 -14.9321 216.409 -9.29142 220.897C-2.55231 218.765 2.98864 220.775 9.9273 223.598C16.8659 226.421 18.2182 241.504 20.0923 244.904C21.9665 248.303 31.8278 246.665 34.0287 248.934C35.7894 250.749 34.9618 254.646 34.3279 256.367C35.1539 256.334 37.3648 256.593 39.6011 257.892C41.8375 259.192 42.0269 262.675 41.8421 264.255C43.1733 263.415 47.5029 262.463 54.172 265.371C62.5084 269.007 55.7917 280.942 51.6983 280.982C48.8846 285.067 46.7926 282.421 45.9803 283.819C45.1679 285.216 43.534 290.866 34.3263 290.244Z" stroke="url(#paint5_radial_320_5128)" stroke-opacity="0.5" stroke-width="1.41371"/>
<defs>
<radialGradient id="paint0_radial_320_5128" cx="0" cy="0" r="1" gradientUnits="userSpaceOnUse" gradientTransform="translate(-167.094 -185.935) rotate(40.8151) scale(837.47 1143.64)">
<stop stop-color="#3FE600"/>
<stop offset="0.565632" stop-color="white"/>
<stop offset="1" stop-color="#8362FD"/>
</radialGradient>
<radialGradient id="paint1_radial_320_5128" cx="0" cy="0" r="1" gradientUnits="userSpaceOnUse" gradientTransform="translate(58.2534 114.61) rotate(31.6862) scale(55.9016 109.262)">
<stop stop-color="#8362FD"/>
<stop offset="1" stop-color="#8362FD" stop-opacity="0"/>
</radialGradient>
<radialGradient id="paint2_radial_320_5128" cx="0" cy="0" r="1" gradientUnits="userSpaceOnUse" gradientTransform="translate(170.595 154.153) rotate(-175.924) scale(26.3623 51.5264)">
<stop stop-color="#8362FD"/>
<stop offset="1" stop-color="#8362FD" stop-opacity="0"/>
</radialGradient>
<radialGradient id="paint3_radial_320_5128" cx="0" cy="0" r="1" gradientUnits="userSpaceOnUse" gradientTransform="translate(358.076 105.564) rotate(138.662) scale(517.972 710.357)">
<stop stop-color="#3FE600"/>
<stop stop-color="white"/>
<stop offset="1" stop-color="#8362FD"/>
</radialGradient>
<radialGradient id="paint4_radial_320_5128" cx="0" cy="0" r="1" gradientUnits="userSpaceOnUse" gradientTransform="translate(-148.406 53.1081) rotate(38.2992) scale(405.8 514.428)">
<stop stop-color="#3FE600"/>
<stop stop-color="white"/>
<stop offset="1" stop-color="#8362FD"/>
</radialGradient>
<radialGradient id="paint5_radial_320_5128" cx="0" cy="0" r="1" gradientUnits="userSpaceOnUse" gradientTransform="translate(-60.0947 214.759) rotate(90) scale(61.1467 93.2167)">
<stop stop-color="#8362FD"/>
<stop offset="1" stop-color="#8362FD" stop-opacity="0"/>
</radialGradient>
</defs>
</svg>
