<svg width="1440" height="655" viewBox="0 0 1440 655" fill="none" xmlns="http://www.w3.org/2000/svg">
<rect x="-51.122" y="654.039" width="34.9831" height="1523.24" transform="rotate(-90 -51.122 654.039)" stroke="url(#paint0_linear_266_827)" stroke-opacity="0.11" stroke-width="1.7561"/>
<rect x="-51.122" y="617.3" width="34.1845" height="1523.24" transform="rotate(-90 -51.122 617.3)" stroke="url(#paint1_linear_266_827)" stroke-opacity="0.11" stroke-width="1.7561"/>
<rect x="-51.122" y="581.359" width="34.9831" height="1523.24" transform="rotate(-90 -51.122 581.359)" stroke="url(#paint2_linear_266_827)" stroke-opacity="0.11" stroke-width="1.7561"/>
<rect x="-51.122" y="544.62" width="34.1845" height="1523.24" transform="rotate(-90 -51.122 544.62)" stroke="url(#paint3_linear_266_827)" stroke-opacity="0.11" stroke-width="1.7561"/>
<rect x="-51.122" y="508.68" width="34.9831" height="1523.24" transform="rotate(-90 -51.122 508.68)" stroke="url(#paint4_linear_266_827)" stroke-opacity="0.11" stroke-width="1.7561"/>
<rect x="-51.122" y="471.94" width="34.1845" height="1523.24" transform="rotate(-90 -51.122 471.94)" stroke="url(#paint5_linear_266_827)" stroke-opacity="0.11" stroke-width="1.7561"/>
<rect x="-51.122" y="435.999" width="34.9831" height="1523.24" transform="rotate(-90 -51.122 435.999)" stroke="url(#paint6_linear_266_827)" stroke-opacity="0.11" stroke-width="1.7561"/>
<rect x="-51.122" y="399.261" width="34.1845" height="1523.24" transform="rotate(-90 -51.122 399.261)" stroke="url(#paint7_linear_266_827)" stroke-opacity="0.11" stroke-width="1.7561"/>
<rect x="-51.122" y="363.32" width="34.9831" height="1523.24" transform="rotate(-90 -51.122 363.32)" stroke="url(#paint8_linear_266_827)" stroke-opacity="0.11" stroke-width="1.7561"/>
<rect x="-51.122" y="326.581" width="34.9831" height="1523.24" transform="rotate(-90 -51.122 326.581)" stroke="url(#paint9_linear_266_827)" stroke-opacity="0.11" stroke-width="1.7561"/>
<rect x="-51.122" y="289.841" width="34.1845" height="1523.24" transform="rotate(-90 -51.122 289.841)" stroke="url(#paint10_linear_266_827)" stroke-opacity="0.11" stroke-width="1.7561"/>
<rect x="-51.122" y="253.9" width="34.9831" height="1523.24" transform="rotate(-90 -51.122 253.9)" stroke="url(#paint11_linear_266_827)" stroke-opacity="0.11" stroke-width="1.7561"/>
<rect x="-51.122" y="217.162" width="34.1845" height="1523.24" transform="rotate(-90 -51.122 217.162)" stroke="url(#paint12_linear_266_827)" stroke-opacity="0.11" stroke-width="1.7561"/>
<rect x="-51.122" y="181.221" width="34.9831" height="1523.24" transform="rotate(-90 -51.122 181.221)" stroke="url(#paint13_linear_266_827)" stroke-opacity="0.11" stroke-width="1.7561"/>
<rect x="-51.122" y="144.481" width="34.1845" height="1523.24" transform="rotate(-90 -51.122 144.481)" stroke="url(#paint14_linear_266_827)" stroke-opacity="0.11" stroke-width="1.7561"/>
<rect x="-51.122" y="108.541" width="34.9831" height="1523.24" transform="rotate(-90 -51.122 108.541)" stroke="url(#paint15_linear_266_827)" stroke-opacity="0.11" stroke-width="1.7561"/>
<rect x="-51.122" y="71.8016" width="34.1845" height="1523.24" transform="rotate(-90 -51.122 71.8016)" stroke="url(#paint16_linear_266_827)" stroke-opacity="0.11" stroke-width="1.7561"/>
<rect x="-51.122" y="35.8612" width="34.9831" height="1523.24" transform="rotate(-90 -51.122 35.8612)" stroke="url(#paint17_linear_266_827)" stroke-opacity="0.11" stroke-width="1.7561"/>
<defs>
<linearGradient id="paint0_linear_266_827" x1="-33.6304" y1="654.917" x2="-33.6304" y2="2179.92" gradientUnits="userSpaceOnUse">
<stop stop-color="#8362FD"/>
<stop offset="1" stop-color="#8362FD" stop-opacity="0"/>
</linearGradient>
<linearGradient id="paint1_linear_266_827" x1="-34.0297" y1="618.178" x2="-34.0297" y2="2143.18" gradientUnits="userSpaceOnUse">
<stop stop-color="#8362FD"/>
<stop offset="1" stop-color="#8362FD" stop-opacity="0"/>
</linearGradient>
<linearGradient id="paint2_linear_266_827" x1="-33.6304" y1="582.237" x2="-33.6304" y2="2107.24" gradientUnits="userSpaceOnUse">
<stop stop-color="#8362FD"/>
<stop offset="1" stop-color="#8362FD" stop-opacity="0"/>
</linearGradient>
<linearGradient id="paint3_linear_266_827" x1="-34.0297" y1="545.498" x2="-34.0297" y2="2070.5" gradientUnits="userSpaceOnUse">
<stop stop-color="#8362FD"/>
<stop offset="1" stop-color="#8362FD" stop-opacity="0"/>
</linearGradient>
<linearGradient id="paint4_linear_266_827" x1="-33.6304" y1="509.558" x2="-33.6304" y2="2034.56" gradientUnits="userSpaceOnUse">
<stop stop-color="#8362FD"/>
<stop offset="1" stop-color="#8362FD" stop-opacity="0"/>
</linearGradient>
<linearGradient id="paint5_linear_266_827" x1="-34.0297" y1="472.818" x2="-34.0297" y2="1997.82" gradientUnits="userSpaceOnUse">
<stop stop-color="#8362FD"/>
<stop offset="1" stop-color="#8362FD" stop-opacity="0"/>
</linearGradient>
<linearGradient id="paint6_linear_266_827" x1="-33.6304" y1="436.877" x2="-33.6304" y2="1961.88" gradientUnits="userSpaceOnUse">
<stop stop-color="#8362FD"/>
<stop offset="1" stop-color="#8362FD" stop-opacity="0"/>
</linearGradient>
<linearGradient id="paint7_linear_266_827" x1="-34.0297" y1="400.139" x2="-34.0297" y2="1925.14" gradientUnits="userSpaceOnUse">
<stop stop-color="#8362FD"/>
<stop offset="1" stop-color="#8362FD" stop-opacity="0"/>
</linearGradient>
<linearGradient id="paint8_linear_266_827" x1="-33.6304" y1="364.198" x2="-33.6304" y2="1889.2" gradientUnits="userSpaceOnUse">
<stop stop-color="#8362FD"/>
<stop offset="1" stop-color="#8362FD" stop-opacity="0"/>
</linearGradient>
<linearGradient id="paint9_linear_266_827" x1="-33.6304" y1="327.459" x2="-33.6304" y2="1852.46" gradientUnits="userSpaceOnUse">
<stop stop-color="#8362FD"/>
<stop offset="1" stop-color="#8362FD" stop-opacity="0"/>
</linearGradient>
<linearGradient id="paint10_linear_266_827" x1="-34.0297" y1="290.719" x2="-34.0297" y2="1815.72" gradientUnits="userSpaceOnUse">
<stop stop-color="#8362FD"/>
<stop offset="1" stop-color="#8362FD" stop-opacity="0"/>
</linearGradient>
<linearGradient id="paint11_linear_266_827" x1="-33.6304" y1="254.778" x2="-33.6304" y2="1779.78" gradientUnits="userSpaceOnUse">
<stop stop-color="#8362FD"/>
<stop offset="1" stop-color="#8362FD" stop-opacity="0"/>
</linearGradient>
<linearGradient id="paint12_linear_266_827" x1="-34.0297" y1="218.04" x2="-34.0297" y2="1743.04" gradientUnits="userSpaceOnUse">
<stop stop-color="#8362FD"/>
<stop offset="1" stop-color="#8362FD" stop-opacity="0"/>
</linearGradient>
<linearGradient id="paint13_linear_266_827" x1="-33.6304" y1="182.099" x2="-33.6304" y2="1707.1" gradientUnits="userSpaceOnUse">
<stop stop-color="#8362FD"/>
<stop offset="1" stop-color="#8362FD" stop-opacity="0"/>
</linearGradient>
<linearGradient id="paint14_linear_266_827" x1="-34.0297" y1="145.359" x2="-34.0297" y2="1670.36" gradientUnits="userSpaceOnUse">
<stop stop-color="#8362FD"/>
<stop offset="1" stop-color="#8362FD" stop-opacity="0"/>
</linearGradient>
<linearGradient id="paint15_linear_266_827" x1="-33.6304" y1="109.419" x2="-33.6304" y2="1634.42" gradientUnits="userSpaceOnUse">
<stop stop-color="#8362FD"/>
<stop offset="1" stop-color="#8362FD" stop-opacity="0"/>
</linearGradient>
<linearGradient id="paint16_linear_266_827" x1="-34.0297" y1="72.6797" x2="-34.0297" y2="1597.68" gradientUnits="userSpaceOnUse">
<stop stop-color="#8362FD"/>
<stop offset="1" stop-color="#8362FD" stop-opacity="0"/>
</linearGradient>
<linearGradient id="paint17_linear_266_827" x1="-33.6304" y1="36.7393" x2="-33.6304" y2="1561.74" gradientUnits="userSpaceOnUse">
<stop stop-color="#8362FD"/>
<stop offset="1" stop-color="#8362FD" stop-opacity="0"/>
</linearGradient>
</defs>
</svg>
