<svg width="16" height="16" viewBox="0 0 16 17" fill="none" xmlns="http://www.w3.org/2000/svg">
<path d="M7.99998 1.48535C11.68 1.48535 14.6666 4.47202 14.6666 8.15202C14.6666 11.832 11.68 14.8187 7.99998 14.8187C4.31998 14.8187 1.33331 11.832 1.33331 8.15202C1.33331 4.47202 4.31998 1.48535 7.99998 1.48535ZM7.99998 2.81868C5.05331 2.81868 2.66665 5.20535 2.66665 8.15202C2.66665 11.0987 5.05331 13.4854 7.99998 13.4854C10.9466 13.4854 13.3333 11.0987 13.3333 8.15202C13.3333 5.20535 10.9466 2.81868 7.99998 2.81868ZM7.99998 4.81868C9.21331 4.81868 10.2753 5.46735 10.8586 6.43735L9.71598 7.12335C9.53615 6.82351 9.28087 6.57605 8.97558 6.40565C8.67029 6.23524 8.32566 6.14785 7.97606 6.15217C7.62646 6.1565 7.28409 6.25239 6.98311 6.4303C6.68213 6.6082 6.43305 6.8619 6.26069 7.1661C6.08834 7.47029 5.99874 7.81436 6.00083 8.16398C6.00293 8.5136 6.09663 8.85657 6.27261 9.15868C6.44859 9.46079 6.70069 9.71149 7.00378 9.88579C7.30687 10.0601 7.65035 10.1519 7.99998 10.152C8.3454 10.1522 8.68499 10.0629 8.98561 9.89283C9.28624 9.72271 9.53765 9.47758 9.71531 9.18135L10.8586 9.86668C10.484 10.4924 9.91441 10.978 9.23726 11.2489C8.56012 11.5198 7.81279 11.5611 7.10991 11.3665C6.40703 11.1719 5.78741 10.752 5.34607 10.1714C4.90474 9.59074 4.66606 8.88135 4.66665 8.15202C4.66665 6.31202 6.15998 4.81868 7.99998 4.81868Z" fill="black" fill-opacity="0.65"/>
</svg>
