<svg width="390" height="400" viewBox="0 0 390 400" fill="none" xmlns="http://www.w3.org/2000/svg">
<path d="M375.289 209.268V139.122L376.012 139.243V121.881L371.673 123.936L374.566 118.874V113.812L415.063 92.1172H569.095V104.411H514.135V145.631H546.677V217.946H414.339L375.289 209.268Z" fill="url(#paint0_radial_266_2876)"/>
<path d="M414.339 217.946L375.289 209.268V139.122L376.012 139.243M414.339 217.946V145.631M414.339 217.946H546.677V145.631H514.135M414.339 145.631L410 144.908M414.339 145.631H429.526M412.893 104.411L415.063 99.3487V92.1172M412.893 104.411L410 105.781M412.893 104.411H417.955M415.063 92.1172L374.566 113.812V118.874L371.673 123.936L376.012 121.881M415.063 92.1172H569.095V104.411H514.135M376.012 121.881V139.243M376.012 121.881L378.905 120.511M376.012 139.243L378.905 139.725M378.905 139.725V120.511M378.905 139.725L382.36 140.301M378.905 120.511L382.36 118.874M382.36 118.874V140.301M382.36 118.874L386.859 116.743M382.36 140.301L386.859 141.051M386.859 141.051V116.743M386.859 141.051L392.645 142.015M386.859 116.743L392.645 114.002M392.645 114.002V142.015M392.645 114.002L401.323 109.892M392.645 142.015L401.323 143.461M401.323 143.461V109.892M401.323 143.461L410 144.908M401.323 109.892L410 105.781M410 144.908V105.781M417.955 144.908V104.411M417.955 104.411H429.526M429.526 104.411V145.631M429.526 104.411H443.266M429.526 145.631H443.266M443.266 145.631V104.411M443.266 145.631H457.729M443.266 104.411H457.729M457.729 104.411V145.631M457.729 104.411H471.469M457.729 145.631H471.469M471.469 145.631V104.411M471.469 145.631H485.209M471.469 104.411H485.209M485.209 104.411V145.631M485.209 104.411H499.672M485.209 145.631H499.672M499.672 104.411V145.631M499.672 104.411H514.135M499.672 145.631H514.135M514.135 104.411V145.631" stroke="#8362FD" stroke-opacity="0.36" stroke-width="1.44631"/>
<path d="M308.036 221.563C292.415 224.455 281.279 245.427 277.663 255.551C319.317 338.28 706.253 322.322 894.515 304.002C897.89 213.367 902.614 31.0848 894.515 27.0351C886.416 22.9854 873.784 29.6854 868.481 33.5417C866.794 34.0238 861.105 32.24 851.849 21.248C840.278 7.50806 830.877 2.44782 820.03 2.44782C809.182 2.44782 805.567 5.34044 793.273 11.1257C783.149 2.44922 767.963 -1.16796 754.223 2.44782C740.483 6.0636 749.161 31.374 746.991 32.0972C744.822 32.8204 745.545 36.4361 749.161 42.2214C747.714 46.5603 723.127 29.9277 719.511 27.0351C715.895 24.1425 707.941 20.5253 700.709 19.8022C693.478 19.079 668.167 26.3106 655.874 40.0505C643.58 53.7905 653.704 57.4062 640.687 58.8526C627.67 60.2989 618.269 71.8696 615.377 74.0391C612.484 76.2085 603.806 68.977 587.174 69.7001C570.541 70.4233 561.14 104.411 551.739 100.796C542.338 97.1797 528.598 97.9029 523.536 97.9029C518.474 97.9029 506.18 102.965 499.672 110.197C493.163 117.428 493.887 127.552 484.486 125.382C475.085 123.213 467.853 122.49 457.006 127.552C448.328 131.601 447.605 145.632 448.328 152.14C449.292 152.623 449.485 153.297 442.543 152.14C433.865 150.694 422.294 162.265 420.125 173.835C417.955 185.406 415.063 183.959 411.447 184.682C407.831 185.406 403.492 183.959 398.43 178.174C393.368 172.388 384.69 165.88 375.289 164.434C365.888 162.987 365.165 172.388 354.318 178.174C342.747 180.343 342.024 191.913 340.578 195.529C339.131 199.145 335.516 199.145 326.838 201.315C318.16 203.484 326.115 211.439 308.036 221.563Z" fill="url(#paint1_radial_266_2876)" stroke="#8362FD" stroke-opacity="0.69" stroke-width="1.44631"/>
<path d="M265.996 256.621C257.573 257.006 250.191 267.229 247.552 272.292C263.425 318.849 468.008 338.616 568.316 342.68C576.691 295.242 592.453 199.685 588.49 196.965C584.527 194.244 577.398 196.85 574.329 198.493C573.407 198.624 570.546 197.271 566.481 190.814C561.399 182.744 556.825 179.397 551.122 178.607C545.419 177.818 543.308 179.077 536.423 181.226C531.733 175.924 524.013 172.915 516.526 173.818C509.039 174.72 511.758 188.668 510.564 188.89C509.371 189.113 509.488 191.068 510.968 194.375C509.891 196.552 498.177 186.012 496.486 184.227C494.796 182.442 490.878 179.96 487.129 179.053C483.379 178.146 469.546 180.109 462.083 186.443C454.619 192.777 459.678 195.416 452.729 195.229C445.781 195.043 439.996 200.446 438.317 201.377C436.638 202.308 432.603 197.872 423.806 197.041C415.009 196.211 407.591 213.409 402.912 210.822C398.233 208.235 390.957 207.616 388.296 207.247C385.635 206.879 378.803 208.647 374.855 211.978C370.906 215.309 370.549 220.688 365.765 218.862C360.981 217.037 357.231 216.13 351.16 218.004C346.303 219.503 344.901 226.831 344.807 230.308C345.279 230.632 345.331 231.001 341.765 229.887C337.309 228.495 330.383 233.74 328.4 239.67C326.416 245.599 325.001 244.628 323.047 244.745C321.094 244.862 318.918 243.785 316.678 240.373C314.439 236.961 310.35 232.905 305.513 231.46C300.676 230.015 299.612 234.908 293.487 237.162C287.247 237.461 286.024 243.496 285 245.293C283.976 247.09 282.075 246.827 277.355 247.337C272.635 247.847 276.237 252.611 265.996 256.621Z" stroke="url(#paint2_radial_266_2876)" stroke-opacity="0.69" stroke-width="0.958602"/>
<path d="M416.076 266.666C443.268 267.202 455.044 281.31 457.533 288.297L880.766 331.279L906.252 242.064C902.183 202.135 892.131 119.619 884.471 108.99C874.895 95.7032 827.454 102.292 810.271 105.738C796.525 108.494 792.491 126.615 792.192 135.331C787.355 132.363 773.913 127.369 758.841 131.14C743.769 134.911 737.417 149.551 736.125 156.4C734.215 153.819 726.453 149.613 710.688 153.43C694.922 157.247 693.143 164.63 694.224 167.844C687.629 164.605 669.207 158.005 648.285 157.521C627.363 157.037 617.137 169.226 614.639 175.381C610.92 171.76 598.952 164.467 580.834 164.263C558.186 164.009 560.488 172.554 546.019 177.561C532.64 172.641 519.677 174.07 503.285 176.304C486.894 178.539 476.122 200.114 470.32 204.553C464.518 208.992 444.168 203.949 438.252 206.656C433.52 208.821 433.268 214.713 433.733 217.388C431.975 217.117 427.086 216.896 421.6 218.183C416.113 219.471 413.89 224.487 413.464 226.834C411.039 225.253 402.226 222.7 386.369 225.131C366.549 228.17 374.769 247.343 383.55 248.507C387.471 255.207 393.348 251.922 394.366 254.175C395.385 256.427 395.952 265.086 416.076 266.666Z" fill="url(#paint3_radial_266_2876)" stroke="#8362FD" stroke-opacity="0.5" stroke-width="1.44631"/>
<path d="M-459.013 1C-454.709 4.22688 -445.294 12.2941 -442.066 18.7478C-438.838 25.2016 -435.879 35.4201 -434.803 39.7226C-431.037 37.5713 -422.052 33.9142 -416.242 36.4957C-410.431 39.0772 -406.827 44.5629 -405.751 46.9831L-399.295 43.7562C-397.412 34.8823 -387.513 16.8117 -362.98 15.521C-332.314 18.7478 -323.437 40.5293 -325.858 46.9831C-327.795 52.1461 -330.969 55.0503 -332.314 55.857C-329.624 56.3948 -324.082 58.9225 -323.437 64.7309C-322.991 68.7461 -323.033 70.4226 -323.19 70.9862C-320.085 68.5271 -312.952 64.2814 -307.297 65.5376C-300.034 67.1511 -290.35 71.9914 -287.122 79.2519C-284.54 85.0603 -258.608 116.63 -245.965 131.689L-111.196 134.109L-82.9512 124.428C-79.7232 119.05 -71.169 108.455 -62.7762 109.101C-52.2853 109.907 -42.6013 117.974 -41.7943 119.588C-40.9873 121.201 -28.0753 118.781 -24.0403 130.882C-20.8123 140.563 -23.7713 149.437 -25.6543 152.663C-24.5783 154.008 -22.2649 157.02 -21.6193 158.31C-20.9737 159.601 -20.2743 161.537 -20.0053 162.344C-17.3153 160.462 -10.3214 157.342 -3.86536 159.924C4.20465 163.151 12.2747 168.798 13.8886 172.831C15.5026 176.865 19.5376 186.546 15.5026 188.159C12.2747 189.45 8.77765 189.773 7.43262 189.773C7.16364 191.924 6.30286 196.549 5.01166 197.84C3.72046 199.131 1.78363 201.604 0.976624 202.68C5.01166 204.025 13.5659 207.843 15.5026 212.361C17.4395 216.878 18.9996 219.621 19.5376 220.428C25.1866 217.47 38.5828 213.329 46.9756 220.428C57.4666 229.302 60.6946 226.075 63.1155 247.05C63.1155 251.89 62.3085 258.344 71.9926 256.73C81.6765 252.697 81.6765 241.403 91.3605 238.983C101.044 236.562 109.115 230.915 118.798 243.016C126.546 252.697 126.33 258.344 125.254 259.957L46.9756 289.806L-144.283 314.008L-527.608 364.024L-565.536 238.983L-541.327 88.1258L-480.802 15.521L-459.013 1Z" fill="url(#paint4_radial_266_2876)" stroke="#8362FD" stroke-opacity="0.24" stroke-width="1.44631"/>
<path d="M-413.986 61.7451C-410.492 64.3644 -402.85 70.9127 -400.23 76.1513C-397.609 81.3899 -395.208 89.6844 -394.334 93.1768C-391.277 91.4306 -383.984 88.4621 -379.268 90.5575C-374.551 92.653 -371.626 97.1058 -370.752 99.0703L-365.512 96.451C-363.983 89.2479 -355.948 74.5797 -336.034 73.532C-311.142 76.1513 -303.937 93.8317 -305.902 99.0703C-307.474 103.261 -310.051 105.619 -311.142 106.273C-308.959 106.71 -304.461 108.762 -303.937 113.476C-303.413 118.191 -303.718 118.933 -303.937 118.715C-301.535 116.751 -295.552 113.084 -290.836 114.131C-284.94 115.441 -277.08 119.37 -274.459 125.263C-272.363 129.978 -251.314 155.604 -241.052 167.827L-131.658 169.792L-108.731 161.934C-106.111 157.568 -99.1671 148.968 -92.3545 149.492C-83.8388 150.147 -75.9782 156.695 -75.3231 158.005C-74.6681 159.314 -64.1872 157.35 -60.9119 167.172C-58.2917 175.03 -60.6936 182.233 -62.222 184.853C-61.3486 185.944 -59.4708 188.389 -58.9468 189.436C-58.4227 190.484 -57.855 192.056 -57.6367 192.711C-55.4532 191.183 -49.776 188.651 -44.5356 190.746C-37.9851 193.365 -31.4345 197.949 -30.1244 201.223C-28.8143 204.497 -25.5391 212.355 -28.8143 213.665C-31.4345 214.713 -34.2731 214.975 -35.3649 214.975C-35.5832 216.721 -36.2819 220.475 -37.33 221.523C-38.3781 222.571 -39.9502 224.579 -40.6053 225.452C-37.33 226.543 -30.3865 229.643 -28.8143 233.31C-27.2422 236.977 -25.9758 239.203 -25.5391 239.858C-20.9537 237.457 -10.0798 234.096 -3.26725 239.858C5.24845 247.061 7.86866 244.442 9.83382 261.467C9.83382 265.396 9.17877 270.635 17.0394 269.325C24.9 266.051 24.9 256.884 32.7607 254.919C40.6213 252.955 47.1719 248.371 55.0325 258.193C61.321 266.051 61.1463 270.635 60.2729 271.945L-3.26725 296.173L-158.515 315.818L-469.665 356.417L-500.453 254.919L-480.801 132.466L-431.672 73.532L-413.986 61.7451Z" stroke="url(#paint5_radial_266_2876)" stroke-opacity="0.24" stroke-width="1.17399"/>
<path d="M-372.043 92.1177C-368.549 94.7275 -360.907 101.252 -358.286 106.472C-355.666 111.691 -353.264 119.955 -352.391 123.435C-349.334 121.695 -342.041 118.738 -337.325 120.825C-332.608 122.913 -329.682 127.35 -328.809 129.307L-323.569 126.697C-322.04 119.52 -314.005 104.906 -294.091 103.862C-269.199 106.472 -261.994 124.088 -263.959 129.307C-265.531 133.483 -268.107 135.832 -269.199 136.484C-267.016 136.919 -262.518 138.963 -261.994 143.661C-261.631 146.908 -261.666 148.264 -261.793 148.72C-259.273 146.731 -253.483 143.297 -248.893 144.313C-242.997 145.618 -235.136 149.533 -232.516 155.405C-230.42 160.103 -209.371 185.635 -199.109 197.814L-89.7146 199.771L-66.7877 191.942C-64.1675 187.592 -57.2239 179.024 -50.4114 179.546C-41.8957 180.198 -34.0351 186.723 -33.38 188.027C-32.7249 189.332 -22.2441 187.375 -18.9688 197.162C-16.3486 204.991 -18.7505 212.168 -20.2789 214.778C-19.4055 215.865 -17.5277 218.301 -17.0037 219.345C-16.4796 220.389 -15.9119 221.955 -15.6936 222.607C-13.51 221.085 -7.83292 218.562 -2.5925 220.65C3.95804 223.26 10.5086 227.827 11.8187 231.089C13.1288 234.351 16.4041 242.181 13.1288 243.485C10.5086 244.529 7.67001 244.79 6.57825 244.79C6.35989 246.53 5.66119 250.271 4.6131 251.315C3.565 252.359 1.99289 254.36 1.33783 255.229C4.6131 256.317 11.5567 259.405 13.1288 263.059C14.7009 266.713 15.9673 268.931 16.4041 269.583C20.9894 267.191 31.8633 263.842 38.6759 269.583C47.1916 276.76 49.8118 274.15 51.7769 291.114C51.7769 295.029 51.1219 300.248 58.9825 298.943C66.8431 295.681 66.8431 286.547 74.7038 284.59C82.5645 282.632 89.115 278.065 96.9756 287.852C103.264 295.681 103.089 300.248 102.216 301.553L38.6759 325.694L-116.572 345.267L-427.722 385.719L-458.51 284.59L-438.858 162.582L-389.729 103.862L-372.043 92.1177Z" fill="url(#paint6_radial_266_2876)" stroke="#8362FD" stroke-opacity="0.24" stroke-width="1.44631"/>
<path d="M-372.043 92.1172C-368.549 94.727 -360.907 101.251 -358.286 106.471C-355.666 111.691 -353.264 119.955 -352.391 123.435C-349.334 121.695 -342.041 118.737 -337.325 120.825C-332.608 122.913 -329.682 127.349 -328.809 129.307L-323.569 126.697C-322.04 119.52 -314.005 104.905 -294.091 103.861C-269.199 106.471 -261.994 124.087 -263.959 129.307C-265.531 133.482 -268.107 135.831 -269.199 136.484C-267.016 136.919 -262.518 138.963 -261.994 143.661C-261.631 146.908 -261.666 148.264 -261.793 148.72C-259.273 146.731 -253.483 143.297 -248.893 144.313C-242.997 145.618 -235.136 149.533 -232.516 155.405C-230.42 160.102 -209.371 185.635 -199.109 197.814L-89.7146 199.771L-66.7877 191.942C-64.1675 187.592 -57.2239 179.023 -50.4114 179.545C-41.8957 180.198 -34.0351 186.722 -33.38 188.027C-32.7249 189.332 -22.2441 187.374 -18.9688 197.161C-16.3486 204.991 -18.7505 212.167 -20.2789 214.777C-19.4055 215.865 -17.5277 218.3 -17.0037 219.344C-16.4796 220.388 -15.9119 221.954 -15.6936 222.607C-13.51 221.084 -7.83292 218.561 -2.5925 220.649C3.95804 223.259 10.5086 227.826 11.8187 231.088C13.1288 234.351 16.4041 242.18 13.1288 243.485C10.5086 244.529 7.67001 244.79 6.57825 244.79C6.35989 246.53 5.66119 250.27 4.6131 251.314C3.565 252.358 1.99289 254.359 1.33783 255.229C4.6131 256.316 11.5567 259.405 13.1288 263.058C14.7009 266.712 15.9673 268.93 16.4041 269.583C20.9894 267.19 31.8633 263.841 38.6759 269.583C47.1916 276.76 49.8118 274.15 51.7769 291.114C51.7769 295.028 51.1219 300.248 58.9825 298.943C66.8431 295.681 66.8431 286.546 74.7038 284.589C82.5645 282.632 89.115 278.065 96.9756 287.851C103.264 295.681 103.089 300.248 102.216 301.553L38.6759 325.693L-116.572 345.267L-427.722 385.718L-458.51 284.589L-438.858 162.581L-389.729 103.861L-372.043 92.1172Z" fill="url(#paint7_radial_266_2876)" stroke="#8362FD" stroke-opacity="0.24" stroke-width="1.44631"/>
<ellipse cx="193.054" cy="377.041" rx="771.607" ry="125.829" fill="url(#paint8_radial_266_2876)"/>
<ellipse cx="193.054" cy="377.041" rx="706.523" ry="111.366" fill="url(#paint9_radial_266_2876)"/>
<path d="M898.854 377.041C898.854 384.396 894.124 391.715 884.781 398.912C875.453 406.098 861.649 413.061 843.802 419.712C808.117 433.01 756.438 445 692.528 455.074C564.72 475.22 388.129 487.683 193.054 487.683C-2.0217 487.683 -178.613 475.22 -306.421 455.074C-370.331 445 -422.01 433.01 -457.695 419.712C-475.542 413.061 -489.345 406.098 -498.674 398.912C-508.017 391.715 -512.746 384.396 -512.746 377.041C-512.746 369.686 -508.017 362.366 -498.674 355.169C-489.345 347.983 -475.542 341.021 -457.695 334.37C-422.01 321.071 -370.331 309.081 -306.421 299.007C-178.613 278.862 -2.0217 266.398 193.054 266.398C388.129 266.398 564.72 278.862 692.528 299.007C756.438 309.081 808.117 321.071 843.802 334.37C861.649 341.021 875.453 347.983 884.781 355.169C894.124 362.366 898.854 369.686 898.854 377.041Z" stroke="#8362FD" stroke-opacity="0.2" stroke-width="1.44631"/>
<ellipse cx="193.054" cy="377.041" rx="642.885" ry="101.242" fill="url(#paint10_radial_266_2876)"/>
<path d="M835.216 377.041C835.216 383.696 830.932 390.333 822.437 396.871C813.956 403.398 801.402 409.725 785.166 415.771C752.701 427.858 705.682 438.757 647.53 447.915C531.238 466.229 370.556 477.559 193.054 477.559C15.5514 477.559 -145.131 466.229 -261.422 447.915C-319.574 438.757 -366.593 427.858 -399.058 415.771C-415.295 409.725 -427.848 403.398 -436.33 396.871C-444.825 390.333 -449.109 383.696 -449.109 377.041C-449.109 370.385 -444.825 363.748 -436.33 357.21C-427.848 350.683 -415.295 344.356 -399.058 338.31C-366.593 326.223 -319.574 315.324 -261.422 306.166C-145.131 287.853 15.5514 276.522 193.054 276.522C370.556 276.522 531.238 287.853 647.53 306.166C705.682 315.324 752.701 326.223 785.166 338.31C801.402 344.356 813.956 350.683 822.437 357.21C830.932 363.748 835.216 370.385 835.216 377.041Z" stroke="#8362FD" stroke-opacity="0.2" stroke-width="1.44631"/>
<ellipse cx="193.054" cy="377.041" rx="573.462" ry="89.6713" fill="url(#paint11_radial_266_2876)"/>
<path d="M765.793 377.041C765.793 382.895 761.998 388.752 754.426 394.538C746.87 400.312 735.68 405.913 721.2 411.267C692.247 421.97 650.311 431.623 598.441 439.733C494.712 455.953 351.385 465.989 193.054 465.989C34.7218 465.989 -108.605 455.953 -212.334 439.733C-264.204 431.623 -306.14 421.97 -335.093 411.267C-349.573 405.913 -360.763 400.312 -368.319 394.538C-375.89 388.752 -379.686 382.895 -379.686 377.041C-379.686 371.186 -375.89 365.329 -368.319 359.543C-360.763 353.769 -349.573 348.168 -335.093 342.815C-306.14 332.111 -264.204 322.459 -212.334 314.348C-108.605 298.128 34.7218 288.093 193.054 288.093C351.385 288.093 494.712 298.128 598.441 314.348C650.311 322.459 692.247 332.111 721.2 342.815C735.68 348.168 746.87 353.769 754.426 359.543C761.998 365.329 765.793 371.186 765.793 377.041Z" stroke="#8362FD" stroke-opacity="0.2" stroke-width="1.44631"/>
<ellipse cx="193.053" cy="377.041" rx="499.701" ry="78.1008" fill="url(#paint12_radial_266_2876)"/>
<path d="M692.031 377.041C692.031 382.096 688.752 387.173 682.163 392.206C675.589 397.227 665.849 402.101 653.234 406.763C628.015 416.082 591.48 424.488 546.284 431.552C455.903 445.678 331.017 454.418 193.053 454.418C55.0904 454.418 -69.7956 445.678 -160.177 431.552C-205.373 424.488 -241.908 416.082 -267.127 406.763C-279.742 402.101 -289.482 397.227 -296.056 392.206C-302.645 387.173 -305.924 382.096 -305.924 377.041C-305.924 371.985 -302.645 366.908 -296.056 361.875C-289.482 356.854 -279.742 351.98 -267.127 347.319C-241.908 337.999 -205.373 329.593 -160.177 322.53C-69.7956 308.403 55.0904 299.663 193.053 299.663C331.017 299.663 455.903 308.403 546.284 322.53C591.48 329.593 628.015 337.999 653.234 347.319C665.849 351.98 675.589 356.854 682.163 361.875C688.752 366.908 692.031 371.985 692.031 377.041Z" stroke="#8362FD" stroke-opacity="0.2" stroke-width="1.44631"/>
<ellipse cx="193.054" cy="377.041" rx="417.261" ry="65.084" fill="url(#paint13_radial_266_2876)"/>
<path d="M609.591 377.041C609.591 381.197 606.89 385.397 601.399 389.582C595.923 393.756 587.802 397.813 577.274 401.696C556.226 409.458 525.727 416.461 487.99 422.347C412.528 434.118 308.252 441.401 193.054 441.401C77.8557 441.401 -26.4205 434.118 -101.883 422.347C-139.62 416.461 -170.118 409.458 -191.167 401.696C-201.695 397.813 -209.816 393.756 -215.292 389.582C-220.782 385.397 -223.484 381.197 -223.484 377.041C-223.484 372.884 -220.782 368.684 -215.292 364.499C-209.816 360.325 -201.695 356.268 -191.167 352.385C-170.118 344.623 -139.62 337.62 -101.883 331.734C-26.4205 319.963 77.8557 312.68 193.054 312.68C308.252 312.68 412.528 319.963 487.99 331.734C525.727 337.62 556.226 344.623 577.274 352.385C587.802 356.268 595.923 360.325 601.399 364.499C606.89 368.684 609.591 372.884 609.591 377.041Z" stroke="#8362FD" stroke-opacity="0.2" stroke-width="1.44631"/>
<ellipse cx="193.054" cy="377.041" rx="334.821" ry="52.0672" fill="url(#paint14_radial_266_2876)"/>
<path d="M527.152 377.041C527.152 380.297 525.028 383.62 520.635 386.958C516.257 390.285 509.756 393.525 501.313 396.629C484.437 402.834 459.974 408.435 429.697 413.143C369.153 422.558 285.487 428.385 193.054 428.385C100.621 428.385 16.9544 422.558 -43.5894 413.143C-73.867 408.435 -98.3291 402.834 -115.206 396.629C-123.648 393.525 -130.15 390.285 -134.527 386.958C-138.921 383.62 -141.044 380.297 -141.044 377.041C-141.044 373.784 -138.921 370.462 -134.527 367.123C-130.15 363.796 -123.648 360.556 -115.206 357.452C-98.3291 351.247 -73.867 345.646 -43.5894 340.938C16.9544 331.523 100.621 325.697 193.054 325.697C285.487 325.697 369.153 331.523 429.697 340.938C459.974 345.646 484.437 351.247 501.313 357.452C509.756 360.556 516.257 363.796 520.635 367.123C525.028 370.462 527.152 373.784 527.152 377.041Z" stroke="#8362FD" stroke-opacity="0.2" stroke-width="1.44631"/>
<g filter="url(#filter0_f_266_2876)">
<mask id="mask0_266_2876" style="mask-type:alpha" maskUnits="userSpaceOnUse" x="-576" y="251" width="1544" height="252">
<ellipse cx="195.946" cy="377.041" rx="771.607" ry="125.829" fill="url(#paint15_radial_266_2876)"/>
</mask>
<g mask="url(#mask0_266_2876)">
<g opacity="0.2">
<path d="M309.482 287.126C293.861 284.234 282.725 263.262 279.109 253.138C320.763 170.409 707.699 186.367 895.961 204.687C899.336 295.322 904.06 477.604 895.961 481.654C887.862 485.704 875.23 479.004 869.927 475.147C868.24 474.665 862.551 476.449 853.295 487.441C841.724 501.181 832.323 506.241 821.476 506.241C810.628 506.241 807.013 503.349 794.719 497.563C784.595 506.24 769.409 509.857 755.669 506.241C741.929 502.625 750.607 477.315 748.437 476.592C746.268 475.869 746.991 472.253 750.607 466.468C749.16 462.129 724.573 478.761 720.957 481.654C717.341 484.547 709.387 488.164 702.155 488.887C694.924 489.61 669.613 482.379 657.319 468.639C645.026 454.899 655.15 451.283 642.133 449.837C629.116 448.39 619.715 436.82 616.823 434.65C613.93 432.481 605.252 439.712 588.62 438.989C571.987 438.266 562.586 404.278 553.185 407.894C543.784 411.509 530.044 410.786 524.982 410.786C519.92 410.786 507.626 405.724 501.118 398.493C494.609 391.261 495.333 381.137 485.932 383.307C476.531 385.476 469.299 386.199 458.452 381.137C449.774 377.088 449.051 363.058 449.774 356.549C450.738 356.067 450.931 355.392 443.989 356.549C435.311 357.995 423.74 346.424 421.571 334.854C419.401 323.284 416.509 324.73 412.893 324.007C409.277 323.284 404.938 324.73 399.876 330.516C394.814 336.301 386.136 342.809 376.735 344.256C367.334 345.702 366.611 336.301 355.764 330.516C344.193 328.346 343.47 316.776 342.024 313.16C340.577 309.544 336.962 309.544 328.284 307.375C319.606 305.205 327.561 297.25 309.482 287.126Z" fill="url(#paint16_radial_266_2876)" stroke="#8362FD" stroke-opacity="0.69" stroke-width="1.44631"/>
<path d="M417.522 242.023C444.714 241.487 456.49 227.379 458.98 220.392L882.212 177.41L907.698 266.624C903.629 306.554 893.577 389.07 885.917 399.699C876.342 412.986 828.9 406.397 811.717 402.951C797.971 400.195 793.937 382.074 793.638 373.358C788.801 376.326 775.359 381.32 760.287 377.549C745.215 373.778 738.863 359.138 737.571 352.289C735.661 354.87 727.9 359.076 712.134 355.259C696.368 351.442 694.589 344.059 695.67 340.845C689.075 344.084 670.653 350.684 649.732 351.168C628.81 351.652 618.583 339.463 616.085 333.308C612.366 336.929 600.399 344.222 582.28 344.426C559.633 344.68 561.934 336.135 547.465 331.128C534.086 336.048 521.123 334.619 504.731 332.384C488.34 330.15 477.568 308.574 471.766 304.136C465.964 299.697 445.614 304.74 439.699 302.033C434.966 299.868 434.714 293.976 435.18 291.301C433.421 291.572 428.532 291.793 423.046 290.505C417.559 289.218 415.336 284.202 414.91 281.855C412.485 283.436 403.672 285.988 387.815 283.557C367.995 280.519 376.215 261.346 384.996 260.182C388.917 253.482 394.794 256.766 395.813 254.514C396.831 252.262 397.398 243.603 417.522 242.023Z" fill="url(#paint17_radial_266_2876)" stroke="#8362FD" stroke-opacity="0.5" stroke-width="1.44631"/>
</g>
</g>
</g>
<mask id="mask1_266_2876" style="mask-type:alpha" maskUnits="userSpaceOnUse" x="-579" y="251" width="1544" height="252">
<ellipse cx="193.054" cy="377.041" rx="771.607" ry="125.829" fill="url(#paint18_radial_266_2876)"/>
</mask>
<g mask="url(#mask1_266_2876)">
<g opacity="0.2" filter="url(#filter1_f_266_2876)">
<path d="M-459.012 507.208C-454.708 503.981 -445.293 495.914 -442.065 489.461C-438.837 483.007 -435.878 472.788 -434.802 468.486C-431.036 470.637 -422.052 474.294 -416.241 471.713C-410.431 469.131 -406.826 463.645 -405.75 461.225L-399.294 464.452C-397.411 473.326 -387.512 491.397 -362.979 492.687C-332.313 489.461 -323.436 467.679 -325.857 461.225C-327.794 456.062 -330.968 453.158 -332.313 452.351C-329.623 451.814 -324.082 449.286 -323.436 443.477C-322.99 439.462 -323.032 437.786 -323.19 437.222C-320.085 439.681 -312.952 443.927 -307.297 442.671C-300.034 441.057 -290.35 436.217 -287.122 428.956C-284.539 423.148 -258.608 391.578 -245.965 376.52L-111.196 374.1L-82.9509 383.78C-79.7229 389.158 -71.1687 399.753 -62.7759 399.108C-52.2849 398.301 -42.6009 390.234 -41.7939 388.62C-40.9869 387.007 -28.075 389.427 -24.0399 377.326C-20.812 367.646 -23.7709 358.772 -25.6539 355.545C-24.5779 354.2 -22.2645 351.189 -21.619 349.898C-20.9733 348.607 -20.2739 346.671 -20.0049 345.864C-17.3149 347.747 -10.321 350.866 -3.86499 348.284C4.20502 345.058 12.275 339.411 13.889 335.377C15.503 331.343 19.538 321.663 15.503 320.049C12.275 318.758 8.77802 318.436 7.43298 318.436C7.164 316.285 6.30322 311.659 5.01202 310.369C3.72083 309.078 1.784 306.604 0.97699 305.528C5.01202 304.184 13.5662 300.365 15.503 295.848C17.4398 291.33 19 288.587 19.538 287.78C25.187 290.738 38.5832 294.88 46.976 287.78C57.4669 278.907 60.6949 282.133 63.1159 261.159C63.1159 256.318 62.3089 249.865 71.9929 251.478C81.6769 255.512 81.6769 266.806 91.3609 269.226C101.045 271.646 109.115 277.293 118.799 265.192C126.546 255.512 126.331 249.865 125.255 248.251L46.976 218.402L-144.283 194.201L-527.607 144.184L-565.536 269.226L-541.326 420.083L-480.801 492.687L-459.012 507.208Z" fill="url(#paint19_radial_266_2876)" stroke="#8362FD" stroke-opacity="0.24" stroke-width="1.44631"/>
<path d="M-372.042 416.091C-368.548 413.481 -360.906 406.957 -358.286 401.737C-355.666 396.518 -353.264 388.253 -352.39 384.774C-349.333 386.513 -342.041 389.471 -337.324 387.383C-332.608 385.296 -329.682 380.859 -328.808 378.902L-323.568 381.511C-322.04 388.688 -314.004 403.303 -294.091 404.347C-269.199 401.737 -261.993 384.121 -263.958 378.902C-265.53 374.726 -268.107 372.377 -269.199 371.725C-267.015 371.29 -262.517 369.245 -261.993 364.548C-261.631 361.3 -261.665 359.944 -261.793 359.489C-259.272 361.478 -253.482 364.911 -248.892 363.895C-242.996 362.59 -235.136 358.676 -232.516 352.804C-230.419 348.106 -209.37 322.574 -199.108 310.395L-89.714 308.437L-66.7871 316.267C-64.1669 320.616 -57.2233 329.185 -50.4108 328.663C-41.8951 328.011 -34.0345 321.486 -33.3794 320.181C-32.7243 318.876 -22.2435 320.834 -18.9682 311.047C-16.348 303.218 -18.7499 296.041 -20.2783 293.431C-19.4049 292.344 -17.5271 289.908 -17.0031 288.864C-16.479 287.82 -15.9113 286.254 -15.693 285.602C-13.5094 287.124 -7.83231 289.647 -2.59189 287.559C3.95865 284.949 10.5092 280.382 11.8193 277.12C13.1294 273.858 16.4047 266.028 13.1294 264.723C10.5092 263.679 7.67062 263.418 6.57886 263.418C6.3605 261.679 5.6618 257.938 4.61371 256.894C3.56561 255.85 1.9935 253.849 1.33844 252.979C4.61371 251.892 11.5573 248.804 13.1294 245.15C14.7015 241.496 15.968 239.278 16.4047 238.625C20.9901 241.018 31.8639 244.367 38.6765 238.625C47.1922 231.449 49.8124 234.058 51.7776 217.095C51.7776 213.18 51.1225 207.96 58.9832 209.265C66.8438 212.528 66.8438 221.662 74.7044 223.619C82.5651 225.577 89.1156 230.144 96.9763 220.357C103.265 212.528 103.09 207.96 102.217 206.656L38.6765 182.515L-116.571 162.942L-427.722 122.49L-458.509 223.619L-438.857 345.627L-389.728 404.347L-372.042 416.091Z" fill="url(#paint20_radial_266_2876)" stroke="#8362FD" stroke-opacity="0.24" stroke-width="1.44631"/>
</g>
</g>
<defs>
<filter id="filter0_f_266_2876" x="275.431" y="248.319" width="669.443" height="257.443" filterUnits="userSpaceOnUse" color-interpolation-filters="sRGB">
<feFlood flood-opacity="0" result="BackgroundImageFix"/>
<feBlend mode="normal" in="SourceGraphic" in2="BackgroundImageFix" result="shape"/>
<feGaussianBlur stdDeviation="1.44631" result="effect1_foregroundBlur_266_2876"/>
</filter>
<filter id="filter1_f_266_2876" x="-569.169" y="118.801" width="698.585" height="392.185" filterUnits="userSpaceOnUse" color-interpolation-filters="sRGB">
<feFlood flood-opacity="0" result="BackgroundImageFix"/>
<feBlend mode="normal" in="SourceGraphic" in2="BackgroundImageFix" result="shape"/>
<feGaussianBlur stdDeviation="1.44631" result="effect1_foregroundBlur_266_2876"/>
</filter>
<radialGradient id="paint0_radial_266_2876" cx="0" cy="0" r="1" gradientUnits="userSpaceOnUse" gradientTransform="translate(307.312 -81.4402) rotate(68.2861) scale(351.831 451.13)">
<stop stop-color="#3FE600"/>
<stop offset="0.548752" stop-color="white"/>
<stop offset="1" stop-color="#8362FD"/>
</radialGradient>
<radialGradient id="paint1_radial_266_2876" cx="0" cy="0" r="1" gradientUnits="userSpaceOnUse" gradientTransform="translate(847.51 -172.558) rotate(139.185) scale(777.789 1062.15)">
<stop stop-color="#3FE600"/>
<stop offset="0.565632" stop-color="white"/>
<stop offset="1" stop-color="#8362FD"/>
</radialGradient>
<radialGradient id="paint2_radial_266_2876" cx="0" cy="0" r="1" gradientUnits="userSpaceOnUse" gradientTransform="translate(372.1 223.721) rotate(148.314) scale(51.9179 101.476)">
<stop stop-color="#8362FD"/>
<stop offset="1" stop-color="#8362FD" stop-opacity="0"/>
</radialGradient>
<radialGradient id="paint3_radial_266_2876" cx="0" cy="0" r="1" gradientUnits="userSpaceOnUse" gradientTransform="translate(359.765 98.1691) rotate(41.3379) scale(481.06 659.735)">
<stop stop-color="#3FE600"/>
<stop stop-color="white"/>
<stop offset="1" stop-color="#8362FD"/>
</radialGradient>
<radialGradient id="paint4_radial_266_2876" cx="0" cy="0" r="1" gradientUnits="userSpaceOnUse" gradientTransform="translate(-711.603 -131.302) rotate(34.3325) scale(892.351 1212.08)">
<stop stop-color="#3FE600"/>
<stop offset="0.65625" stop-color="white"/>
<stop offset="1" stop-color="#8362FD"/>
</radialGradient>
<radialGradient id="paint5_radial_266_2876" cx="0" cy="0" r="1" gradientUnits="userSpaceOnUse" gradientTransform="translate(-91.1467 191.727) rotate(128.011) scale(209.027 398.067)">
<stop stop-color="#7658E4"/>
<stop offset="1" stop-color="#7658E4" stop-opacity="0"/>
</radialGradient>
<radialGradient id="paint6_radial_266_2876" cx="0" cy="0" r="1" gradientUnits="userSpaceOnUse" gradientTransform="translate(-577.074 -14.8836) rotate(34.2354) scale(723.499 981.422)">
<stop stop-color="#3FE600"/>
<stop offset="0.65625" stop-color="white"/>
<stop offset="1" stop-color="#8362FD"/>
</radialGradient>
<radialGradient id="paint7_radial_266_2876" cx="0" cy="0" r="1" gradientUnits="userSpaceOnUse" gradientTransform="translate(-577.074 -14.8841) rotate(34.2354) scale(723.499 981.422)">
<stop stop-color="#3FE600"/>
<stop offset="0.65625" stop-color="white"/>
<stop offset="1" stop-color="#8362FD"/>
</radialGradient>
<radialGradient id="paint8_radial_266_2876" cx="0" cy="0" r="1" gradientUnits="userSpaceOnUse" gradientTransform="translate(-391.119 278.721) rotate(20.992) scale(625.7 581.346)">
<stop stop-color="#3FE600"/>
<stop offset="0.0001" stop-color="white"/>
<stop offset="1" stop-color="#8362FD"/>
</radialGradient>
<radialGradient id="paint9_radial_266_2876" cx="0" cy="0" r="1" gradientUnits="userSpaceOnUse" gradientTransform="translate(-341.845 290.022) rotate(20.349) scale(570.502 516.708)">
<stop stop-color="#3FE600"/>
<stop offset="0.0001" stop-color="white"/>
<stop offset="1" stop-color="#8362FD"/>
</radialGradient>
<radialGradient id="paint10_radial_266_2876" cx="0" cy="0" r="1" gradientUnits="userSpaceOnUse" gradientTransform="translate(-293.665 297.933) rotate(20.3318) scale(519.058 469.787)">
<stop stop-color="#3FE600"/>
<stop offset="0.0001" stop-color="white"/>
<stop offset="1" stop-color="#8362FD"/>
</radialGradient>
<radialGradient id="paint11_radial_266_2876" cx="0" cy="0" r="1" gradientUnits="userSpaceOnUse" gradientTransform="translate(-241.106 306.974) rotate(20.1998) scale(462.613 416.451)">
<stop stop-color="#3FE600"/>
<stop offset="0.0001" stop-color="white"/>
<stop offset="1" stop-color="#8362FD"/>
</radialGradient>
<radialGradient id="paint12_radial_266_2876" cx="0" cy="0" r="1" gradientUnits="userSpaceOnUse" gradientTransform="translate(-185.262 316.014) rotate(20.1912) scale(403.087 362.735)">
<stop stop-color="#3FE600"/>
<stop offset="0.0001" stop-color="white"/>
<stop offset="1" stop-color="#8362FD"/>
</radialGradient>
<radialGradient id="paint13_radial_266_2876" cx="0" cy="0" r="1" gradientUnits="userSpaceOnUse" gradientTransform="translate(-122.848 326.185) rotate(20.1536) scale(336.505 302.352)">
<stop stop-color="#3FE600"/>
<stop offset="0.0001" stop-color="white"/>
<stop offset="1" stop-color="#8362FD"/>
</radialGradient>
<radialGradient id="paint14_radial_266_2876" cx="0" cy="0" r="1" gradientUnits="userSpaceOnUse" gradientTransform="translate(-60.4343 336.357) rotate(20.0976) scale(269.924 241.969)">
<stop stop-color="#3FE600"/>
<stop offset="0.0001" stop-color="white"/>
<stop offset="1" stop-color="#8362FD"/>
</radialGradient>
<radialGradient id="paint15_radial_266_2876" cx="0" cy="0" r="1" gradientUnits="userSpaceOnUse" gradientTransform="translate(-388.226 278.721) rotate(20.992) scale(625.7 581.346)">
<stop stop-color="#3FE600"/>
<stop offset="0.0001" stop-color="white"/>
<stop offset="1" stop-color="#8362FD"/>
</radialGradient>
<radialGradient id="paint16_radial_266_2876" cx="0" cy="0" r="1" gradientUnits="userSpaceOnUse" gradientTransform="translate(848.956 681.247) rotate(-139.185) scale(777.789 1062.15)">
<stop stop-color="#3FE600"/>
<stop offset="0.565632" stop-color="white"/>
<stop offset="1" stop-color="#8362FD"/>
</radialGradient>
<radialGradient id="paint17_radial_266_2876" cx="0" cy="0" r="1" gradientUnits="userSpaceOnUse" gradientTransform="translate(361.211 410.52) rotate(-41.3379) scale(481.06 659.735)">
<stop stop-color="#3FE600"/>
<stop stop-color="white"/>
<stop offset="1" stop-color="#8362FD"/>
</radialGradient>
<radialGradient id="paint18_radial_266_2876" cx="0" cy="0" r="1" gradientUnits="userSpaceOnUse" gradientTransform="translate(-391.118 278.721) rotate(20.992) scale(625.7 581.346)">
<stop stop-color="#3FE600"/>
<stop offset="0.0001" stop-color="white"/>
<stop offset="1" stop-color="#8362FD"/>
</radialGradient>
<radialGradient id="paint19_radial_266_2876" cx="0" cy="0" r="1" gradientUnits="userSpaceOnUse" gradientTransform="translate(-711.603 639.51) rotate(-34.3325) scale(892.351 1212.08)">
<stop stop-color="#3FE600"/>
<stop offset="0.65625" stop-color="white"/>
<stop offset="1" stop-color="#8362FD"/>
</radialGradient>
<radialGradient id="paint20_radial_266_2876" cx="0" cy="0" r="1" gradientUnits="userSpaceOnUse" gradientTransform="translate(-577.074 523.092) rotate(-34.2354) scale(723.499 981.422)">
<stop stop-color="#3FE600"/>
<stop offset="0.65625" stop-color="white"/>
<stop offset="1" stop-color="#8362FD"/>
</radialGradient>
</defs>
</svg>
