<svg width="526" height="523" viewBox="0 0 526 523" fill="none" xmlns="http://www.w3.org/2000/svg">
<path d="M149.024 248.019C131.526 251.259 119.051 274.752 115 286.094C161.662 378.769 595.121 360.892 806.018 340.37C809.798 238.837 815.091 34.6389 806.018 30.1023C796.945 25.5657 782.795 33.0713 776.854 37.3912C774.964 37.9312 768.591 35.933 758.222 23.6194C745.26 8.22747 734.729 2.55882 722.577 2.55882C710.426 2.55882 706.375 5.79924 692.603 12.2801C681.262 2.5604 664.25 -1.49169 648.858 2.55882C633.466 6.60934 643.187 34.9629 640.757 35.773C638.326 36.5831 639.137 40.6337 643.187 47.1145C641.567 51.9751 614.023 33.3427 609.973 30.1023C605.922 26.8619 597.011 22.8098 588.91 21.9997C580.809 21.1896 552.456 29.2906 538.684 44.6826C524.912 60.0746 536.254 64.1251 521.672 65.7453C507.09 67.3655 496.558 80.3274 493.318 82.7577C490.078 85.188 480.356 77.087 461.724 77.8971C443.092 78.7072 432.56 116.782 422.029 112.731C411.498 108.681 396.106 109.491 390.435 109.491C384.764 109.491 370.993 115.161 363.702 123.263C356.411 131.364 357.221 142.704 346.689 140.274C336.158 137.844 328.057 137.034 315.906 142.704C306.184 147.241 305.374 162.958 306.184 170.249C307.264 170.789 307.48 171.546 299.703 170.249C289.982 168.629 277.021 181.591 274.59 194.552C272.16 207.514 268.92 205.894 264.869 206.704C260.819 207.514 255.958 205.894 250.287 199.413C244.616 192.931 234.895 185.641 224.364 184.021C213.833 182.4 213.022 192.932 200.871 199.413C187.909 201.843 187.099 214.805 185.479 218.855C183.859 222.906 179.808 222.906 170.087 225.336C160.366 227.766 169.277 236.677 149.024 248.019Z" fill="url(#paint0_radial_266_856)" stroke="#8362FD" stroke-opacity="0.69" stroke-width="1.62021"/>
<path d="M400.047 156.055C390.612 156.487 382.342 167.938 379.387 173.611C397.168 225.765 626.348 247.909 738.716 252.462C748.099 199.319 765.755 92.273 761.316 89.2259C756.876 86.1788 748.891 89.0976 745.453 90.938C744.42 91.0845 741.215 89.5694 736.661 82.3363C730.968 73.295 725.844 69.5461 719.456 68.6617C713.067 67.7772 710.702 69.1872 702.99 71.5945C697.735 65.6554 689.087 62.2853 680.7 63.296C672.313 64.3067 675.358 79.9315 674.022 80.1808C672.685 80.4301 672.816 82.6201 674.473 86.3246C673.267 88.7639 660.144 76.9564 658.251 74.9568C656.358 72.9571 651.968 70.1767 647.768 69.1608C643.568 68.145 628.072 70.3433 619.711 77.4389C611.349 84.5344 617.017 87.4909 609.233 87.282C601.449 87.0731 594.968 93.126 593.088 94.1687C591.207 95.2115 586.686 90.2419 576.832 89.3119C566.978 88.382 558.668 107.647 553.426 104.749C548.185 101.852 540.034 101.158 537.053 100.745C534.071 100.332 526.418 102.313 521.995 106.045C517.572 109.776 517.172 115.802 511.812 113.756C506.453 111.711 502.253 110.696 495.452 112.794C490.01 114.474 488.44 122.684 488.335 126.579C488.863 126.942 488.922 127.355 484.927 126.107C479.935 124.547 472.176 130.423 469.955 137.065C467.733 143.708 466.147 142.619 463.959 142.751C461.77 142.882 459.333 141.676 456.824 137.853C454.315 134.031 449.735 129.488 444.317 127.869C438.898 126.25 437.705 131.731 430.845 134.257C423.854 134.592 422.484 141.352 421.337 143.365C420.19 145.378 418.06 145.084 412.773 145.655C407.485 146.226 411.521 151.563 400.047 156.055Z" stroke="url(#paint1_radial_266_856)" stroke-opacity="0.69" stroke-width="1.07386"/>
<path d="M457.67 141.685C461.4 139.249 467.721 141.353 470.415 142.708C477.985 167.567 396.388 239.204 354.643 271.915C336.406 254.165 300.148 218.068 301.007 215.679C301.866 213.289 305.726 212.205 307.549 211.962C307.984 211.733 308.793 210.27 308.542 206.247C308.229 201.219 309.157 198.372 311.357 196.273C313.558 194.174 314.852 194.061 318.467 192.857C318.841 189.136 321.221 185.463 324.709 183.538C328.197 181.613 331.338 188.432 331.918 188.159C332.498 187.886 333.052 188.76 333.439 190.634C334.572 191.235 336.34 183.1 336.513 181.813C336.687 180.526 337.6 178.253 338.927 176.706C340.255 175.16 346.79 171.73 351.946 172.141C357.101 172.552 355.747 175.245 358.668 173.02C361.589 170.795 365.737 171.325 366.744 171.206C367.751 171.087 368.111 167.939 371.626 164.867C375.141 161.795 383.63 166.877 384.837 164.324C386.044 161.77 388.972 159.258 389.999 158.279C391.026 157.299 394.501 155.948 397.222 156.157C399.943 156.366 401.757 158.561 403.244 156.301C404.731 154.042 406.058 152.496 409.239 151.424C411.784 150.567 414.648 153.276 415.762 154.738C415.66 155.022 415.751 155.196 416.936 153.618C418.416 151.645 423.005 151.755 425.685 153.685C428.366 155.614 428.673 154.761 429.547 154.208C430.42 153.655 431.021 152.522 430.927 150.367C430.834 148.213 431.334 145.212 432.962 143.1C434.589 140.987 436.556 142.756 439.877 141.831C442.645 140.033 445.033 142.242 446.026 142.696C447.02 143.151 447.753 142.451 449.934 141.212C452.115 139.973 452.042 143.128 457.67 141.685Z" stroke="url(#paint2_radial_266_856)" stroke-opacity="0.69" stroke-width="0.506414"/>
<path d="M270.054 298.544C300.516 299.145 313.708 314.95 316.497 322.777L790.616 370.926L819.166 270.985C814.608 226.255 803.347 133.817 794.766 121.91C784.039 107.027 730.894 114.408 711.645 118.267C696.247 121.355 691.727 141.655 691.392 151.419C685.974 148.094 670.916 142.5 654.031 146.724C637.147 150.949 630.031 167.349 628.584 175.021C626.445 172.13 617.75 167.418 600.089 171.694C582.428 175.97 580.435 184.241 581.646 187.841C574.257 184.213 553.621 176.819 530.183 176.277C506.746 175.735 495.29 189.389 492.492 196.284C488.326 192.227 474.919 184.058 454.622 183.83C429.252 183.545 431.829 193.117 415.621 198.726C400.633 193.214 386.112 194.816 367.75 197.319C349.387 199.822 337.321 223.991 330.821 228.964C324.322 233.936 301.524 228.287 294.898 231.319C289.596 233.745 289.314 240.345 289.835 243.342C287.865 243.038 282.389 242.791 276.243 244.233C270.097 245.675 267.606 251.294 267.129 253.923C264.413 252.153 254.539 249.293 236.776 252.016C214.573 255.42 223.781 276.898 233.618 278.202C238.01 285.707 244.595 282.028 245.735 284.552C246.876 287.075 247.511 296.775 270.054 298.544Z" fill="url(#paint3_radial_266_856)" stroke="#8362FD" stroke-opacity="0.5" stroke-width="1.62021"/>
<path d="M408.141 322.036C433.322 318.128 448.8 335.296 453.391 344.369L856.724 330.612L850.757 205C833.857 151.419 797.419 40.9717 786.873 27.8304C773.689 11.4038 732.238 28.4507 717.574 36.0646C705.842 42.1556 708.104 67.4749 710.702 79.3732C705.276 76.1636 691.271 71.6684 678.654 79.3647C666.038 87.061 665.022 108.044 666.091 117.573C663.485 114.391 654.962 109.997 641.723 117.874C628.484 125.751 629.281 136.09 631.335 140.275C624.203 136.997 605.089 131.168 585.691 134.078C566.294 136.988 560.907 155.3 560.639 164.092C556.026 159.804 542.618 151.932 525.891 154.745C504.982 158.262 509.914 169.485 498.26 178.759C484.336 174.352 472.888 178.506 458.552 184.338C444.216 190.171 441.422 221.335 437.55 228.358C433.678 235.381 413.303 231.996 408.756 236.685C405.118 240.435 406.828 248.487 408.138 252.043C406.431 251.975 401.863 252.509 397.243 255.194C392.622 257.879 392.231 265.077 392.613 268.339C389.862 266.605 380.917 264.638 367.138 270.647C349.914 278.157 363.791 302.816 372.249 302.901C378.062 311.339 382.384 305.873 384.063 308.76C385.741 311.648 389.117 323.321 408.141 322.036Z" fill="url(#paint4_radial_266_856)" stroke="#8362FD" stroke-opacity="0.5" stroke-width="1.62021"/>
<path d="M543.803 301.93C556.483 299.962 564.277 308.607 566.589 313.176L769.689 306.248L766.685 242.995C758.175 216.014 739.826 160.398 734.515 153.78C727.877 145.509 707.004 154.093 699.619 157.927C693.712 160.994 694.851 173.744 696.159 179.735C693.427 178.119 686.374 175.855 680.021 179.731C673.668 183.606 673.157 194.172 673.695 198.971C672.383 197.369 668.091 195.156 661.424 199.123C654.758 203.089 655.159 208.295 656.193 210.403C652.602 208.752 642.977 205.817 633.209 207.282C623.442 208.748 620.729 217.969 620.594 222.396C618.271 220.237 611.519 216.273 603.096 217.689C592.568 219.46 595.051 225.112 589.183 229.781C582.171 227.562 576.406 229.654 569.187 232.591C561.968 235.528 560.562 251.221 558.612 254.757C556.662 258.294 546.402 256.59 544.112 258.95C542.28 260.839 543.141 264.893 543.801 266.684C542.942 266.65 540.641 266.919 538.315 268.271C535.988 269.623 535.791 273.247 535.983 274.89C534.598 274.017 530.094 273.027 523.155 276.052C514.482 279.834 521.47 292.252 525.729 292.294C528.656 296.543 530.833 293.79 531.678 295.245C532.523 296.699 534.223 302.577 543.803 301.93Z" stroke="url(#paint5_radial_266_856)" stroke-opacity="0.5" stroke-width="1.41371"/>
<rect y="0.999832" width="1004" height="522" fill="url(#paint6_linear_266_856)"/>
<defs>
<radialGradient id="paint0_radial_266_856" cx="0" cy="0" r="1" gradientUnits="userSpaceOnUse" gradientTransform="translate(753.361 -193.488) rotate(139.185) scale(871.305 1189.85)">
<stop stop-color="#3FE600"/>
<stop offset="0.565632" stop-color="white"/>
<stop offset="1" stop-color="#8362FD"/>
</radialGradient>
<radialGradient id="paint1_radial_266_856" cx="0" cy="0" r="1" gradientUnits="userSpaceOnUse" gradientTransform="translate(518.909 119.2) rotate(148.314) scale(58.1602 113.677)">
<stop stop-color="#8362FD"/>
<stop offset="1" stop-color="#8362FD" stop-opacity="0"/>
</radialGradient>
<radialGradient id="paint2_radial_266_856" cx="0" cy="0" r="1" gradientUnits="userSpaceOnUse" gradientTransform="translate(402.028 160.34) rotate(-4.07613) scale(27.4274 53.6081)">
<stop stop-color="#8362FD"/>
<stop offset="1" stop-color="#8362FD" stop-opacity="0"/>
</radialGradient>
<radialGradient id="paint3_radial_266_856" cx="0" cy="0" r="1" gradientUnits="userSpaceOnUse" gradientTransform="translate(206.973 109.789) rotate(41.3379) scale(538.899 739.057)">
<stop stop-color="#3FE600"/>
<stop stop-color="white"/>
<stop offset="1" stop-color="#8362FD"/>
</radialGradient>
<radialGradient id="paint4_radial_266_856" cx="0" cy="0" r="1" gradientUnits="userSpaceOnUse" gradientTransform="translate(733.918 55.2132) rotate(141.701) scale(422.195 535.212)">
<stop stop-color="#3FE600"/>
<stop stop-color="white"/>
<stop offset="1" stop-color="#8362FD"/>
</radialGradient>
<radialGradient id="paint5_radial_266_856" cx="0" cy="0" r="1" gradientUnits="userSpaceOnUse" gradientTransform="translate(642.039 223.395) rotate(90) scale(63.6172 96.9829)">
<stop stop-color="#8362FD"/>
<stop offset="1" stop-color="#8362FD" stop-opacity="0"/>
</radialGradient>
<linearGradient id="paint6_linear_266_856" x1="502" y1="0.999832" x2="502" y2="523" gradientUnits="userSpaceOnUse">
<stop stop-opacity="0"/>
<stop offset="0.572917"/>
</linearGradient>
</defs>
</svg>
