<svg width="571" height="503" viewBox="0 0 571 503" fill="none" xmlns="http://www.w3.org/2000/svg">
<path d="M426.774 238.426C443.593 241.541 455.584 264.121 459.477 275.022C414.627 364.099 -1.99905 346.917 -204.706 327.191C-208.34 229.601 -213.427 33.3326 -204.706 28.9722C-195.985 24.6118 -182.385 31.8259 -176.675 35.978C-174.858 36.4971 -168.733 34.5764 -158.766 22.741C-146.308 7.9468 -136.185 2.49828 -124.506 2.49828C-112.826 2.49828 -108.933 5.61286 -95.6959 11.842C-84.7949 2.49979 -68.4434 -1.39494 -53.6491 2.49828C-38.8549 6.3915 -48.1986 33.644 -45.8627 34.4227C-43.5267 35.2013 -44.3054 39.0946 -48.1986 45.3237C-46.6413 49.9956 -20.1674 32.0868 -16.2742 28.9722C-12.381 25.8576 -3.81589 21.9629 3.97055 21.1842C11.757 20.4056 39.0095 28.192 52.2465 42.9863C65.4834 57.7805 54.5824 61.6737 68.598 63.231C82.6136 64.7883 92.736 77.2468 95.8505 79.5828C98.9651 81.9187 108.309 74.1323 126.218 74.9109C144.126 75.6895 154.249 112.286 164.371 108.392C174.494 104.499 189.288 105.278 194.738 105.278C200.189 105.278 213.426 110.728 220.434 118.515C227.441 126.301 226.663 137.202 236.785 134.866C246.907 132.53 254.694 131.751 266.374 137.202C275.717 141.562 276.496 156.669 275.717 163.677C274.679 164.196 274.471 164.923 281.946 163.677C291.29 162.12 303.748 174.578 306.084 187.036C308.42 199.495 311.535 197.937 315.428 198.716C319.321 199.495 323.993 197.937 329.444 191.708C334.894 185.478 344.238 178.471 354.36 176.913C364.483 175.356 365.261 185.478 376.941 191.708C389.399 194.043 390.178 206.502 391.735 210.395C393.293 214.288 397.186 214.288 406.53 216.624C415.873 218.96 407.308 227.525 426.774 238.426Z" fill="url(#paint0_radial_266_847)" stroke="#8362FD" stroke-opacity="0.69" stroke-width="1.62021"/>
<path d="M185.499 150.034C194.568 150.449 202.517 161.456 205.357 166.908C188.267 217.037 -32.0139 238.321 -140.018 242.697C-149.037 191.618 -166.007 88.7289 -161.74 85.8001C-157.473 82.8713 -149.798 85.6768 -146.493 87.4457C-145.5 87.5866 -142.42 86.1303 -138.042 79.1781C-132.57 70.4879 -127.646 66.8846 -121.506 66.0345C-115.365 65.1844 -113.092 66.5396 -105.679 68.8534C-100.629 63.1449 -92.3159 59.9057 -84.2546 60.8772C-76.1934 61.8486 -79.1206 76.8666 -77.8358 77.1063C-76.551 77.3459 -76.6768 79.4509 -78.2698 83.0115C-77.1108 85.356 -64.4974 74.0071 -62.6775 72.0851C-60.8576 70.1631 -56.6385 67.4906 -52.6017 66.5142C-48.5649 65.5378 -33.6705 67.6508 -25.6339 74.4708C-17.5974 81.2908 -23.0447 84.1325 -15.563 83.9317C-8.08125 83.7309 -1.85223 89.5487 -0.0446821 90.551C1.76286 91.5533 6.10791 86.7766 15.5797 85.8828C25.0514 84.989 33.0386 103.506 38.0766 100.721C43.1146 97.9358 50.9489 97.2686 53.8144 96.8719C56.6798 96.4752 64.0358 98.3793 68.2871 101.966C72.5384 105.552 72.923 111.344 78.0744 109.378C83.2258 107.412 87.2626 106.436 93.7999 108.453C99.0297 110.067 100.539 117.959 100.641 121.702C100.133 122.051 100.076 122.449 103.915 121.249C108.714 119.75 116.171 125.397 118.307 131.782C120.442 138.166 121.966 137.12 124.07 137.247C126.173 137.373 128.516 136.213 130.927 132.539C133.339 128.865 137.741 124.498 142.949 122.942C148.157 121.386 149.304 126.655 155.898 129.082C162.617 129.404 163.934 135.902 165.037 137.837C166.139 139.772 168.186 139.489 173.268 140.038C178.35 140.586 174.471 145.716 185.499 150.034Z" stroke="url(#paint1_radial_266_847)" stroke-opacity="0.69" stroke-width="1.07386"/>
<path d="M130.114 136.222C126.529 133.881 120.454 135.902 117.864 137.205C110.589 161.098 189.017 229.954 229.14 261.395C246.669 244.334 281.52 209.639 280.694 207.342C279.868 205.045 276.158 204.004 274.406 203.77C273.987 203.55 273.21 202.144 273.451 198.277C273.752 193.443 272.86 190.707 270.745 188.69C268.63 186.672 267.386 186.564 263.912 185.407C263.552 181.83 261.264 178.3 257.912 176.45C254.559 174.6 251.54 181.153 250.983 180.891C250.425 180.629 249.893 181.469 249.521 183.27C248.432 183.848 246.733 176.029 246.566 174.792C246.399 173.555 245.521 171.369 244.246 169.883C242.97 168.397 236.688 165.1 231.733 165.495C226.778 165.89 228.079 168.479 225.272 166.34C222.464 164.201 218.477 164.711 217.509 164.596C216.541 164.481 216.195 161.456 212.817 158.504C209.439 155.551 201.279 160.436 200.119 157.981C198.958 155.527 196.144 153.113 195.157 152.171C194.17 151.23 190.83 149.931 188.215 150.132C185.6 150.332 183.856 152.443 182.427 150.271C180.997 148.099 179.722 146.612 176.664 145.583C174.218 144.759 171.465 147.363 170.395 148.767C170.493 149.041 170.405 149.208 169.267 147.691C167.844 145.795 163.433 145.901 160.857 147.756C158.28 149.61 157.985 148.79 157.145 148.258C156.306 147.727 155.729 146.638 155.818 144.567C155.908 142.496 155.427 139.612 153.863 137.581C152.299 135.551 150.408 137.251 147.216 136.362C144.556 134.633 142.261 136.757 141.306 137.194C140.351 137.63 139.646 136.958 137.55 135.767C135.453 134.576 135.524 137.608 130.114 136.222Z" stroke="url(#paint2_radial_266_847)" stroke-opacity="0.69" stroke-width="0.506414"/>
<path d="M310.444 286.99C281.165 287.567 268.485 302.758 265.805 310.281L-189.902 356.561L-217.344 260.501C-212.963 217.508 -202.14 128.66 -193.892 117.215C-183.581 102.909 -132.5 110.004 -113.999 113.714C-99.1979 116.682 -94.8539 136.193 -94.5319 145.578C-89.3239 142.382 -74.8507 137.005 -58.6219 141.065C-42.3932 145.126 -35.554 160.889 -34.1631 168.263C-32.1065 165.485 -23.7495 160.956 -6.77419 165.065C10.2011 169.175 12.1167 177.125 10.9525 180.586C18.0541 177.098 37.8891 169.992 60.4165 169.471C82.9438 168.949 93.9547 182.073 96.6443 188.7C100.649 184.801 113.535 176.949 133.043 176.73C157.429 176.456 154.951 185.657 170.53 191.048C184.936 185.75 198.893 187.289 216.543 189.695C234.192 192.101 245.79 215.332 252.037 220.111C258.284 224.891 280.196 219.46 286.566 222.375C291.661 224.707 291.932 231.05 291.431 233.931C293.325 233.639 298.589 233.401 304.496 234.787C310.403 236.173 312.797 241.574 313.256 244.101C315.867 242.4 325.357 239.651 342.43 242.269C363.771 245.541 354.92 266.184 345.466 267.437C341.244 274.651 334.915 271.115 333.819 273.54C332.723 275.965 332.111 285.289 310.444 286.99Z" fill="url(#paint3_radial_266_847)" stroke="#8362FD" stroke-opacity="0.5" stroke-width="1.62021"/>
<path d="M177.72 309.569C153.517 305.813 138.64 322.314 134.227 331.035L-253.443 317.812L-247.708 197.078C-231.464 145.578 -196.442 39.4194 -186.304 26.7885C-173.633 10.9998 -133.791 27.3847 -119.697 34.7029C-108.421 40.5574 -110.595 64.8935 -113.092 76.3297C-107.877 73.2447 -94.415 68.9241 -82.2886 76.3215C-70.1622 83.7189 -69.1858 103.887 -70.2134 113.046C-67.708 109.988 -59.516 105.765 -46.7913 113.336C-34.0667 120.907 -34.833 130.844 -36.8068 134.867C-29.9515 131.716 -11.5799 126.113 7.06431 128.91C25.7085 131.707 30.8857 149.308 31.1437 157.758C35.5777 153.637 48.465 146.071 64.5425 148.775C84.6393 152.155 79.8986 162.942 91.1004 171.856C104.483 167.62 115.487 171.613 129.266 177.219C143.046 182.825 145.731 212.779 149.453 219.529C153.175 226.279 172.758 223.026 177.129 227.532C180.625 231.137 178.982 238.876 177.723 242.295C179.363 242.228 183.754 242.742 188.195 245.323C192.636 247.904 193.012 254.822 192.645 257.958C195.289 256.291 203.887 254.4 217.131 260.175C233.686 267.395 220.347 291.096 212.218 291.177C206.631 299.287 202.476 294.033 200.863 296.809C199.25 299.585 196.005 310.805 177.72 309.569Z" fill="url(#paint4_radial_266_847)" stroke="#8362FD" stroke-opacity="0.5" stroke-width="1.62021"/>
<path d="M47.3263 290.244C35.1389 288.352 27.6475 296.662 25.4252 301.053L-169.789 294.395L-166.901 233.598C-158.721 207.665 -141.085 154.208 -135.981 147.848C-129.6 139.897 -109.537 148.148 -102.44 151.833C-96.7617 154.781 -97.8566 167.036 -99.1138 172.794C-96.4877 171.241 -89.709 169.065 -83.6026 172.79C-77.4963 176.515 -77.0046 186.671 -77.5221 191.283C-76.2605 189.743 -72.1353 187.617 -65.7278 191.429C-59.3202 195.242 -59.7061 200.246 -60.7 202.271C-57.2479 200.684 -47.9968 197.863 -38.6084 199.272C-29.2199 200.68 -26.6129 209.543 -26.483 213.798C-24.2502 211.723 -17.7607 207.913 -9.66484 209.275C0.455047 210.977 -1.93214 216.409 3.70858 220.897C10.4477 218.764 15.9886 220.775 22.9273 223.598C29.8659 226.421 31.2182 241.504 33.0923 244.903C34.9665 248.302 44.8278 246.664 47.0287 248.934C48.7894 250.749 47.9618 254.646 47.3279 256.367C48.1539 256.334 50.3648 256.592 52.6011 257.892C54.8375 259.192 55.0269 262.675 54.8421 264.255C56.1733 263.415 60.5029 262.463 67.172 265.371C75.5084 269.006 68.7917 280.941 64.6983 280.982C61.8846 285.066 59.7926 282.421 58.9803 283.818C58.1679 285.216 56.534 290.866 47.3263 290.244Z" stroke="url(#paint5_radial_266_847)" stroke-opacity="0.5" stroke-width="1.41371"/>
<rect width="965.011" height="501.729" transform="matrix(-1 0 0 1 570.011 0.999832)" fill="url(#paint6_linear_266_847)"/>
<defs>
<radialGradient id="paint0_radial_266_847" cx="0" cy="0" r="1" gradientUnits="userSpaceOnUse" gradientTransform="translate(-154.094 -185.936) rotate(40.8151) scale(837.47 1143.64)">
<stop stop-color="#3FE600"/>
<stop offset="0.565632" stop-color="white"/>
<stop offset="1" stop-color="#8362FD"/>
</radialGradient>
<radialGradient id="paint1_radial_266_847" cx="0" cy="0" r="1" gradientUnits="userSpaceOnUse" gradientTransform="translate(71.2533 114.61) rotate(31.6862) scale(55.9016 109.262)">
<stop stop-color="#8362FD"/>
<stop offset="1" stop-color="#8362FD" stop-opacity="0"/>
</radialGradient>
<radialGradient id="paint2_radial_266_847" cx="0" cy="0" r="1" gradientUnits="userSpaceOnUse" gradientTransform="translate(183.595 154.153) rotate(-175.924) scale(26.3623 51.5264)">
<stop stop-color="#8362FD"/>
<stop offset="1" stop-color="#8362FD" stop-opacity="0"/>
</radialGradient>
<radialGradient id="paint3_radial_266_847" cx="0" cy="0" r="1" gradientUnits="userSpaceOnUse" gradientTransform="translate(371.076 105.564) rotate(138.662) scale(517.972 710.357)">
<stop stop-color="#3FE600"/>
<stop stop-color="white"/>
<stop offset="1" stop-color="#8362FD"/>
</radialGradient>
<radialGradient id="paint4_radial_266_847" cx="0" cy="0" r="1" gradientUnits="userSpaceOnUse" gradientTransform="translate(-135.406 53.1079) rotate(38.2992) scale(405.8 514.428)">
<stop stop-color="#3FE600"/>
<stop stop-color="white"/>
<stop offset="1" stop-color="#8362FD"/>
</radialGradient>
<radialGradient id="paint5_radial_266_847" cx="0" cy="0" r="1" gradientUnits="userSpaceOnUse" gradientTransform="translate(-47.0947 214.759) rotate(90) scale(61.1467 93.2167)">
<stop stop-color="#8362FD"/>
<stop offset="1" stop-color="#8362FD" stop-opacity="0"/>
</radialGradient>
<linearGradient id="paint6_linear_266_847" x1="482.506" y1="0" x2="482.506" y2="501.729" gradientUnits="userSpaceOnUse">
<stop stop-opacity="0"/>
<stop offset="0.572917"/>
</linearGradient>
</defs>
</svg>
