<svg width="627" height="344" viewBox="0 0 600 280" fill="" xmlns="http://www.w3.org/2000/svg">
<path d="M48.682 436.481C21.4131 445.011 6.04475 484.857 1.76919 503.714C93.9689 642.465 781.46 530.617 1113.68 457.35C1100.18 294.781 1069.35 -31.7266 1054.02 -37.2131C1038.68 -42.6997 1017.57 -28.0149 1008.93 -19.9867C1006.02 -18.7624 995.481 -20.7221 976.585 -38.3558C952.964 -60.3979 935.087 -67.4086 915.718 -65.0719C896.349 -62.7352 890.515 -56.7911 869.809 -43.8125C849.862 -57.1246 821.966 -60.3122 798.21 -50.8959C774.454 -41.4796 795.402 1.84635 791.684 3.60498C787.966 5.36361 790.036 11.6643 797.739 21.2158C796.091 29.2751 748.604 4.87182 741.525 0.485538C734.445 -3.90074 719.461 -8.64615 706.393 -8.37965C693.324 -8.11316 649.686 10.2521 630.694 37.435C611.702 64.6178 630.559 68.8934 607.627 74.28C584.696 79.6666 570.401 102.353 565.703 106.85C561.006 111.347 543.952 100.303 514.408 105.178C484.864 110.052 475.399 172.767 457.833 168.336C440.267 163.905 415.889 168.156 406.85 169.246C397.811 170.337 376.949 182.024 366.885 196.339C356.821 210.654 360.293 228.575 343.039 226.726C325.785 224.878 312.716 225.144 294.437 236.52C279.814 245.621 281.545 270.829 284.239 282.296C286.064 282.949 286.554 284.113 273.908 283.542C258.101 282.829 239.933 305.982 238.551 327.11C237.17 348.238 231.693 346.279 225.393 348.349C219.092 350.419 211.032 348.771 200.747 339.53C190.462 330.29 173.564 320.538 156.466 319.981C139.367 319.423 140.101 336.366 121.978 349.033C101.785 355.399 102.986 376.216 101.182 382.984C99.3785 389.752 92.922 390.531 77.8938 396.274C62.8656 402.017 78.7834 414.508 48.682 436.481Z" fill="url(#paint0_radial_320_9818)" stroke="#8362FD" stroke-opacity="0.69" stroke-width="1.62021"/>
<defs>
<radialGradient id="paint0_radial_320_9818" cx="0" cy="0" r="1" gradientUnits="userSpaceOnUse" gradientTransform="translate(927.088 -383.488) rotate(132.306) scale(1398.92 1910.36)">
<stop stop-color="#3FE600"/>
<stop offset="0.565632" stop-color="white"/>
<stop offset="1" stop-color="#8362FD"/>
</radialGradient>
</defs>
</svg>
