<svg width="259" height="140" viewBox="0 0 259 140" fill="none" xmlns="http://www.w3.org/2000/svg">
<path d="M236.213 3.63405C241.689 -0.965071 252.169 1.17168 256.724 2.81495C273.57 40.9828 157.282 170.862 97.0316 231.031C64.549 206.245 -0.188548 155.68 0.721255 151.706C1.63104 147.731 7.57583 145.261 10.4345 144.523C11.0851 144.075 12.0929 141.587 10.9198 135.223C9.45337 127.267 10.3843 122.551 13.4888 118.782C16.5932 115.013 18.6339 114.585 24.164 111.97C24.0444 105.967 27.1329 99.6544 32.3225 95.9157C37.5122 92.177 43.8299 102.441 44.7022 101.895C45.5746 101.348 46.6249 102.635 47.6018 105.548C49.5245 106.288 50.7776 92.9812 50.8066 90.8964C50.8356 88.8115 51.8543 85.0115 53.6725 82.2916C55.4907 79.5717 65.2491 72.8482 73.5453 72.5117C81.8415 72.1752 80.2014 76.7287 84.4297 72.62C88.6579 68.5112 95.372 68.5585 96.9542 68.1748C98.5365 67.791 98.5054 62.7045 103.517 57.1323C108.529 51.56 123.038 58.0279 124.471 53.7257C125.904 49.4235 130.088 44.8563 131.537 43.0974C132.986 41.3384 138.264 38.5166 142.642 38.3262C147.019 38.1359 150.332 41.2867 152.268 37.3987C154.205 33.5108 156.023 30.7909 160.887 28.4715C164.779 26.6161 169.865 30.3832 171.921 32.4986C171.813 32.9718 171.993 33.2321 173.577 30.4884C175.558 27.0589 182.893 26.3523 187.537 28.9124C192.181 31.4724 192.506 30.0531 193.792 29.0038C195.079 27.9546 195.818 26.0327 195.254 22.6166C194.691 19.2006 194.912 14.3213 197.099 10.6405C199.287 6.95965 202.763 9.40091 207.879 7.2887C211.945 3.88962 216.175 6.95223 217.847 7.48527C219.518 8.01831 220.553 6.76192 223.791 4.36794C227.029 1.97397 227.518 7.01633 236.213 3.63405Z" stroke="url(#paint0_radial_320_9820)" stroke-opacity="0.69" stroke-width="0.506414"/>
<defs>
<radialGradient id="paint0_radial_320_9820" cx="0" cy="0" r="1" gradientUnits="userSpaceOnUse" gradientTransform="translate(151.108 44.0704) rotate(-10.955) scale(44.036 86.0703)">
<stop stop-color="#8362FD"/>
<stop offset="1" stop-color="#8362FD" stop-opacity="0"/>
</radialGradient>
</defs>
</svg>
