<svg width="227" height="303" viewBox="0 0 227 303" fill="none" xmlns="http://www.w3.org/2000/svg">
<path d="M31.1262 203.622C16.1695 206.123 5.18955 225.968 1.56916 235.577C39.9405 315.291 409.511 306.518 589.499 292.168C594.237 205.655 601.796 31.6291 594.133 27.6257C586.471 23.6223 574.303 29.8106 569.177 33.4051C567.559 33.8374 562.159 32.0385 553.508 21.3849C542.695 8.06787 533.807 3.07747 523.454 2.89612C513.101 2.71477 509.602 5.41717 497.771 10.7374C488.254 2.28086 473.82 -1.42795 460.646 1.79591C447.471 5.01977 455.33 29.3399 453.248 29.9943C451.165 30.6487 451.795 34.1144 455.149 39.7006C453.696 43.8207 430.507 27.5232 427.105 24.6999C423.702 21.8766 416.171 18.2887 409.281 17.477C402.391 16.6654 378.113 23.1494 366.149 36.0675C354.186 48.9855 363.788 52.6083 351.341 53.7721C338.893 54.9359 329.727 65.8304 326.93 67.8542C324.132 69.878 315.971 62.8258 300.084 63.2384C284.198 63.651 274.656 95.9572 265.744 92.3464C256.832 88.7357 243.706 89.1967 238.875 89.112C234.043 89.0274 222.225 93.6569 215.893 100.455C209.56 107.254 210.081 116.935 201.144 114.706C192.208 112.476 185.318 111.665 174.88 116.318C166.53 120.041 165.605 133.43 166.187 139.659C167.099 140.136 167.272 140.784 160.665 139.562C152.407 138.036 141.17 148.894 138.906 159.909C136.642 170.924 133.905 169.494 130.442 170.125C126.979 170.755 122.862 169.301 118.127 163.69C113.393 158.079 105.219 151.718 96.2707 150.18C87.3223 148.641 86.4748 157.608 76.025 162.953C64.9455 164.831 64.0617 175.871 62.6208 179.3C61.1799 182.729 57.7289 182.669 49.4102 184.596C41.0915 186.523 48.5506 194.254 31.1262 203.622Z" stroke="url(#paint0_radial_320_9819)" stroke-opacity="0.69" stroke-width="1.07386"/>
<defs>
<radialGradient id="paint0_radial_320_9819" cx="0" cy="0" r="1" gradientUnits="userSpaceOnUse" gradientTransform="translate(213.503 122.018) rotate(141.435) scale(93.3789 182.513)">
<stop stop-color="#8362FD"/>
<stop offset="1" stop-color="#8362FD" stop-opacity="0"/>
</radialGradient>
</defs>
</svg>
