<svg width="459" height="243" viewBox="0 0 459 243" fill="none" xmlns="http://www.w3.org/2000/svg">
<path d="M83.3181 392.744C131.99 387.844 156.057 410.5 162.007 422.44L927.006 408.018L953.297 243.223C937.43 172.8 901.705 27.6211 885.737 10.2916C865.777 -11.3703 782.483 10.6148 752.543 20.4687C728.591 28.3519 725.291 61.5785 726.634 77.2064C717.358 72.9483 692.28 66.9271 666.179 76.9076C640.078 86.8881 631.889 114.398 631.058 126.905C627.091 122.709 612.326 116.87 584.997 127.082C557.667 137.294 556.081 150.86 558.704 156.367C546.229 152.004 511.913 144.187 474.45 147.83C436.986 151.473 421.352 175.44 418.217 186.968C410.796 181.304 387.855 170.859 355.458 174.399C314.963 178.823 320.913 193.586 296.155 205.644C271.205 199.74 248.366 205.085 219.578 212.605C190.79 220.126 176.204 260.973 166.8 270.149C157.396 279.324 119.971 274.703 109.991 280.811C102.007 285.697 102.826 296.272 104.233 300.948C101.035 300.843 92.2575 301.502 82.7382 304.982C73.2189 308.463 70.3293 317.898 70.0744 322.181C65.4043 319.882 49.1165 317.222 21.3262 324.978C-13.4116 334.674 5.39726 367.139 21.3268 367.325C29.7716 378.445 39.5595 371.314 41.8626 375.117C44.1657 378.919 47.0448 394.259 83.3181 392.744Z" fill="url(#paint0_radial_320_9821)" stroke="#8362FD" stroke-opacity="0.5" stroke-width="1.62021"/>
<defs>
<radialGradient id="paint0_radial_320_9821" cx="0" cy="0" r="1" gradientUnits="userSpaceOnUse" gradientTransform="translate(-53.5297 104) rotate(34.459) scale(865.227 1186.59)">
<stop stop-color="#3FE600"/>
<stop stop-color="white"/>
<stop offset="1" stop-color="#8362FD"/>
</radialGradient>
</defs>
</svg>
